<?xml version="1.0" encoding="utf-8"?>
<!-- Generator: Adobe Illustrator 22.1.0, SVG Export Plug-In . SVG Version: 6.00 Build 0)  -->
<svg version="1.1" id="Capa_1" xmlns="http://www.w3.org/2000/svg" xmlns:xlink="http://www.w3.org/1999/xlink" x="0px" y="0px"
	 viewBox="0 0 512 512" style="enable-background:new 0 0 512 512;" xml:space="preserve">
<style type="text/css">
	.st0{fill:#FE4D42;}
</style>
<g>
	<g>
		<path class="st0" d="M497,42h-28V15c0-13.3-15.7-20-25.1-10.6L380.3,68c-2.8,2.8-4.2,6.6-4.2,10.6v36.2l-9.8,9.7
			c-59.2,59.2-99.6,99.6-155.1,155.1c-5.9,5.9-5.9,15.4,0,21.2c5.9,5.9,15.4,5.9,21.2,0c16.7-16.7,141.8-141.8,158.5-158.5l6.2-6.4
			h36.2c4,0,7.8-1.4,10.6-4.2L507.6,68C517,58.6,510.3,42,497,42z"/>
	</g>
</g>
<g>
	<g>
		<path class="st0" d="M298.9,276.8l-42.1,42.1c-1.5,1.5-3.2,2.6-5,3.3c-20.6,15.7-44.1,11.3-58.7-3.3l0,0
			c-17.5-17.6-17.5-46.1,0-63.6c0.1-0.1,0.3-0.1,0.4-0.3c0.1-0.1,0.1-0.3,0.3-0.4l41.5-41.5c-25.5-3.5-47.6,5.2-63.4,20.9
			c-29.2,29.2-29.2,76.8,0,106.1c29.2,29.2,76.8,29.3,106.1,0C295.2,322.9,302,299.3,298.9,276.8z"/>
	</g>
</g>
<g>
	<g>
		<path class="st0" d="M346.3,229.3l-22.8,22.8c13,37,5.1,79.7-24.4,109.2c-40.9,40.9-107.6,40.9-148.5,0
			c-40.9-40.9-40.9-107.6,0-148.5c29.5-29.5,72.3-37.4,109.2-24.4l22.8-22.8c-55.6-26.4-115.3-12-153.2,25.9
			c-52.7,52.6-52.7,138.3,0,190.9c52.7,52.7,138.3,52.7,190.9,0C361.8,341.1,370.1,279.5,346.3,229.3z"/>
	</g>
</g>
<g>
	<g>
		<path class="st0" d="M412.6,163l-44.2,44.2c34.9,62.8,26.4,143.3-26.9,196.5c-64.4,64.4-169,64.4-233.3,0
			c-64.4-64.4-64.4-169,0-233.3c53.2-53.2,133.8-61.7,196.6-26.8L349,99.4C262.9,42.3,143.7,50.1,65.8,128
			c-87.7,87.7-87.7,230.5,0,318.2c43.9,43.9,101.5,65.8,159.1,65.8c57.6,0,115.2-21.9,159.1-65.8C461.7,368.5,469.9,249.4,412.6,163
			z"/>
	</g>
</g>
</svg>
