<?xml version="1.0" encoding="utf-8"?>
<!-- Generator: Adobe Illustrator 22.1.0, SVG Export Plug-In . SVG Version: 6.00 Build 0)  -->
<svg version="1.1" id="Capa_1" xmlns="http://www.w3.org/2000/svg" xmlns:xlink="http://www.w3.org/1999/xlink" x="0px" y="0px"
	 viewBox="0 0 511.8 511.8" style="enable-background:new 0 0 511.8 511.8;" xml:space="preserve">
<style type="text/css">
	.st0{fill:#FE4D42;}
</style>
<g>
	<g>
		<g>
			<path class="st0" d="M510.4,91c-2.4-4-7.2-4.8-11.2-2.4l-120,80c-0.8,0.8-1.6,1.6-2.4,2.4l-73.6,112l-14.4,2.4l37.6-107.2
				c1.6-4-0.8-8.8-4.8-10.4c-4-1.6-8.8,0.8-10.4,4.8L300,207.8h-68V191l108.8-80.8c3.2-2.4,4-8,1.6-11.2s-8-4-11.2-1.6l-112,83.2
				c-2.4,1.6-3.2,4-3.2,6.4v20.8h-14.4c-1.6,0-3.2,0.8-4,0.8L4,328.6c-4,2.4-4.8,8-2.4,11.2c0.8,2.4,4,4,6.4,4c1.6,0,3.2,0,4-0.8
				l192-119.2h20h70.4l-24,69.6c-0.8,2.4-0.8,5.6,1.6,8c1.6,1.6,4,3.2,6.4,3.2h0.8l31.2-4.8c2.4,0,4-1.6,5.6-3.2l47.2-72h19.2
				l-7.2,24H352c-4.8,0-8,3.2-8,8c0,4.8,3.2,8,8,8h17.6l-1.6,7.2h-24c-4.8,0-8,3.2-8,8s3.2,8,8,8h19.2l-2.4,8H360h-24
				c-4.8,0-8,3.2-8,8s3.2,8,8,8h20l-2.4,8h-152c-1.6,0-4,0.8-5.6,2.4L32.8,467c-3.2,3.2-3.2,8-0.8,11.2c1.6,1.6,4,2.4,5.6,2.4
				s4-0.8,5.6-2.4l75.2-67.2c38.4,34.4,87.2,52.8,137.6,52.8c114.4,0,208-93.6,208-208c0-36.8-9.6-72.8-28.8-104.8l72.8-48.8
				C512,99.8,512.8,95,510.4,91z M232,335.8h104v16H232L232,335.8L232,335.8z M448,255.8c0,105.6-86.4,192-192,192
				c-46.4,0-90.4-16.8-124.8-46.4l73.6-65.6H216v24c0,4.8,3.2,8,8,8h120c4.8,0,8-3.2,8-8v-24h8c3.2,0,6.4-2.4,8-5.6l32-112
				c0.8-2.4,0-4.8-1.6-7.2s-4-3.2-6.4-3.2h-19.2l16.8-26.4l32.8-21.6C439.2,188.6,448,222.2,448,255.8z"/>
			<path class="st0" d="M383.2,79.8c1.6,0,3.2-0.8,4.8-1.6l88.8-64c3.2-2.4,4-7.2,1.6-11.2c-2.4-3.2-7.2-4-11.2-1.6l-88.8,64
				c-3.2,2.4-4,7.2-1.6,11.2C378.4,79,380.8,79.8,383.2,79.8z"/>
			<path class="st0" d="M147.2,95.8c1.6,0,3.2-0.8,4-1.6c32-20,68-30.4,104.8-30.4c35.2,0,69.6,9.6,100,28c4,2.4,8.8,0.8,11.2-2.4
				c2.4-4,0.8-8.8-2.4-11.2C332,58.2,294.4,47.8,256,47.8c-40,0-79.2,11.2-112.8,33.6c-4,2.4-4.8,7.2-2.4,11.2
				C142.4,94.2,144.8,95.8,147.2,95.8z"/>
			<path class="st0" d="M57.6,287.8h0.8c4-0.8,7.2-4.8,7.2-8.8c-0.8-8-1.6-15.2-1.6-23.2c0-49.6,19.2-97.6,53.6-133.6
				c3.2-3.2,3.2-8,0-11.2s-8-3.2-11.2,0C68.8,150.2,48,201.4,48,255.8c0,8,0.8,16.8,1.6,24.8C50.4,284.6,53.6,287.8,57.6,287.8z"/>
			<path class="st0" d="M10.4,490.2l-8,8c-3.2,3.2-3.2,8,0,11.2c1.6,1.6,3.2,2.4,5.6,2.4s4-0.8,5.6-2.4l8-8c3.2-3.2,3.2-8,0-11.2
				S13.6,487,10.4,490.2z"/>
		</g>
	</g>
</g>
</svg>
