<?xml version="1.0" encoding="utf-8"?>
<!-- Generator: Adobe Illustrator 22.1.0, SVG Export Plug-In . SVG Version: 6.00 Build 0)  -->
<svg version="1.1" id="Layer_1" xmlns="http://www.w3.org/2000/svg" xmlns:xlink="http://www.w3.org/1999/xlink" x="0px" y="0px"
	 viewBox="0 0 512 512" style="enable-background:new 0 0 512 512;" xml:space="preserve">
<style type="text/css">
	.st0{fill:#FE4D42;}
</style>
<path class="st0" d="M458,381.1V163.7c0-3.2-1.5-6.2-4.1-8.1l-24.7-17.9l19.4-12.1c2.8-1.7,4.5-4.7,4.7-8c0.1-3.3-1.3-6.4-4-8.4
	l-18-13.7V89H448c5.5,0,10-4.5,10-10V59c0-32.5-26.5-59-59-59H58c-0.1,0-0.2,0-0.3,0c-0.2,0-0.5,0-0.7,0C41.3,0,26.6,7.8,15.8,21.9
	C5.6,35.2,0,52.8,0,71.4C0,104.8,21.9,132,48.8,132h55.3v158.5c0,3.4,1.7,6.5,4.6,8.4l19.6,12.7l-20.8,18.6
	c-2.1,1.9-3.3,4.6-3.3,7.5v86.7c0,0.5,0.1,1.1,0.1,1.6c-0.1,0.5-0.1,1-0.1,1.6c0,25.4,6.6,46.9,19,61.9c12,14.6,29.1,22.6,48.1,22.6
	H446c36.4,0,66-29.6,66-66C512,413.7,488.7,386.8,458,381.1z M82.1,112c2.9-5.6,4.6-12,4.6-18.8C86.7,70.1,71.8,54,50.4,54
	c-5.5,0-10,4.5-10,10s4.5,10,10,10c10.2,0,16.3,7.2,16.3,19.2c0,12.2-9.2,18.8-17.9,18.8C33.2,112,20,93.4,20,71.4
	C20,43.1,36.6,20,57,20c14.1,0,25.2,4.4,32.8,13.1c9.4,10.7,14.2,28,14.2,51.4V112H82.1z M138.5,476.7
	c-9.4-11.4-14.4-28.5-14.4-49.2c0-0.5-0.1-1.1-0.1-1.6c0.1-0.5,0.1-1,0.1-1.6v-82.2l27.2-24.4c2.3-2.1,3.6-5.1,3.3-8.2
	c-0.2-3.1-1.9-5.9-4.5-7.6l-26-16.9V84.5c0-28.4-6.4-50.1-19.1-64.5h294c21.5,0,39,17.5,39,39v10h-16.7c-5.5,0-10,4.5-10,10v21.3
	c0,3.1,1.5,6.1,4,8l10.4,7.9L406,128.5c-2.8,1.8-4.6,4.8-4.7,8.1s1.4,6.5,4.1,8.4l32.5,23.7V380H183.8c-0.5,0-1,0-1.5,0.1
	c-1-0.1-1.9-0.1-2.9-0.1c-21.3,0-37.9,17.1-37.9,38.8c0,23.1,14.9,39.2,36.3,39.2c5.5,0,10-4.5,10-10s-4.5-10-10-10
	c-10.2,0-16.3-7.2-16.3-19.2c0-12.2,9.2-18.8,17.9-18.8c15.6,0,28.8,18.6,28.8,40.6c0,28.3-16.6,51.4-37,51.4
	C158,492,146.8,486.7,138.5,476.7z M446,492H210.8c0.5-0.6,1-1.2,1.5-1.9c9.6-12.5,15.1-28.8,15.8-46.1H384c5.5,0,10-4.5,10-10
	s-4.5-10-10-10H226.3c-2.1-9-5.8-17.2-10.7-24H446c25.4,0,46,20.6,46,46S471.4,492,446,492z"/>
<path class="st0" d="M189.4,98c2.6,0,5.2-1.1,7.1-2.9c1.9-1.9,2.9-4.4,2.9-7.1s-1.1-5.2-2.9-7.1c-1.9-1.9-4.4-2.9-7.1-2.9
	c-2.6,0-5.2,1.1-7.1,2.9s-2.9,4.4-2.9,7.1s1.1,5.2,2.9,7.1S186.7,98,189.4,98z"/>
<path class="st0" d="M232,98h144.4c5.5,0,10-4.5,10-10s-4.5-10-10-10H232c-5.5,0-10,4.5-10,10S226.5,98,232,98z"/>
<path class="st0" d="M189.4,154h187c5.5,0,10-4.5,10-10s-4.5-10-10-10h-187c-5.5,0-10,4.5-10,10S183.8,154,189.4,154z"/>
<path class="st0" d="M189.4,210h187c5.5,0,10-4.5,10-10s-4.5-10-10-10h-187c-5.5,0-10,4.5-10,10S183.8,210,189.4,210z"/>
<path class="st0" d="M189.4,266h187c5.5,0,10-4.5,10-10s-4.5-10-10-10h-187c-5.5,0-10,4.5-10,10S183.8,266,189.4,266z"/>
<path class="st0" d="M189.4,322h187c5.5,0,10-4.5,10-10s-4.5-10-10-10h-187c-5.5,0-10,4.5-10,10S183.8,322,189.4,322z"/>
<path class="st0" d="M422.9,424c-2.6,0-5.2,1.1-7.1,2.9s-2.9,4.4-2.9,7.1s1.1,5.2,2.9,7.1c1.9,1.9,4.4,2.9,7.1,2.9
	c2.6,0,5.2-1.1,7.1-2.9c1.9-1.9,2.9-4.4,2.9-7.1s-1.1-5.2-2.9-7.1C428.1,425.1,425.5,424,422.9,424z"/>
</svg>
