<svg id="Layer_1" data-name="Layer 1" xmlns="http://www.w3.org/2000/svg" viewBox="0 0 512 512"><title>correct</title><path d="M495,256C495,123.37,387.62,16.05,255,16.05S15.05,123.38,15.05,256,122.38,496,255,496,495,388.62,495,256Z" fill="#e74c3c"/><path d="M358.13,342.32l-8.05,8.82a13.9,13.9,0,0,1-19.63.9l-62.18-56.77a13.9,13.9,0,0,0-19.63.9l-60.43,66.2a13.91,13.91,0,0,1-19.64.9l-10.28-9.39a13.91,13.91,0,0,1-.89-19.63L217.84,268a13.9,13.9,0,0,0-.9-19.63l-62.17-56.76a13.9,13.9,0,0,1-.9-19.63l8-8.82a13.91,13.91,0,0,1,19.63-.89l62.19,56.76a13.89,13.89,0,0,0,19.63-.89l59.76-65.47a13.9,13.9,0,0,1,19.63-.89L353,161.21a13.89,13.89,0,0,1,.89,19.63L294.16,246.3a13.9,13.9,0,0,0,.9,19.63l62.18,56.76A13.91,13.91,0,0,1,358.13,342.32Z" fill="#fcfcfc"/></svg>