<svg id="Layer_1" data-name="Layer 1" xmlns="http://www.w3.org/2000/svg" viewBox="0 0 512 512"><title>correct</title><path d="M256,1.54C114.52,1.54,0,116,0,257.54s114.5,256,256,256,256-114.5,256-256S397.5,1.54,256,1.54Zm0,472a216,216,0,1,1,216-216A215.88,215.88,0,0,1,256,473.54Z" fill="#e74c3c"/><path d="M358.13,342.32l-8.05,8.82a13.9,13.9,0,0,1-19.63.9l-62.18-56.77a13.9,13.9,0,0,0-19.63.9l-60.43,66.2a13.91,13.91,0,0,1-19.64.9l-10.28-9.39a13.91,13.91,0,0,1-.89-19.63L217.84,268a13.9,13.9,0,0,0-.9-19.63l-62.17-56.76a13.9,13.9,0,0,1-.9-19.63l8-8.82a13.91,13.91,0,0,1,19.63-.89l62.19,56.76a13.89,13.89,0,0,0,19.63-.89l59.76-65.47a13.9,13.9,0,0,1,19.63-.89L353,161.21a13.89,13.89,0,0,1,.89,19.63L294.16,246.3a13.9,13.9,0,0,0,.9,19.63l62.18,56.76A13.91,13.91,0,0,1,358.13,342.32Z" fill="#e74c3c"/></svg>