<svg id="Capa_1" data-name="Capa 1" xmlns="http://www.w3.org/2000/svg" viewBox="0 0 2814.28 512"><title>5-star</title><path d="M544.21,199.77,367.35,174.08,288.21,11.38l-79.14,162.7L32.21,199.77l128,124.73L130,500.62l158.17-83.15,158.17,83.15L416.17,324.5Z" fill="#ffda2d"/><path d="M416.17,324.5l30.21,176.12L288.21,417.47V11.38l79.14,162.7,176.86,25.69Z" fill="#fdbf00"/><path d="M1094.21,199.77,917.35,174.08,838.21,11.38l-79.14,162.7L582.21,199.77l128,124.73L680,500.62l158.17-83.15,158.17,83.15L966.17,324.5Z" fill="#ffda2d"/><path d="M966.17,324.5l30.21,176.12L838.21,417.47V11.38l79.14,162.7,176.86,25.69Z" fill="#fdbf00"/><path d="M1644.21,199.77l-176.86-25.69-79.14-162.7-79.14,162.7-176.86,25.69,128,124.73L1230,500.62l158.17-83.15,158.17,83.15L1516.17,324.5Z" fill="#ffda2d"/><path d="M1516.17,324.5l30.21,176.12-158.17-83.15V11.38l79.14,162.7,176.86,25.69Z" fill="#fdbf00"/><path d="M2204.21,199.77l-176.86-25.69-79.14-162.7-79.14,162.7-176.86,25.69,128,124.73L1790,500.62l158.17-83.15,158.17,83.15L2076.17,324.5Z" fill="#ffda2d"/><path d="M2076.17,324.5l30.21,176.12-158.17-83.15V11.38l79.14,162.7,176.86,25.69Z" fill="#fdbf00"/><path d="M2764.21,199.77l-176.86-25.69-79.14-162.7-79.14,162.7-176.86,25.69,128,124.73L2350,500.62l158.17-83.15,158.17,83.15L2636.17,324.5Z" fill="#ffda2d"/><path d="M2636.17,324.5l30.21,176.12-158.17-83.15V11.38l79.14,162.7,176.86,25.69Z" fill="#fdbf00"/></svg>