<svg xmlns="http://www.w3.org/2000/svg" xmlns:xlink="http://www.w3.org/1999/xlink" viewBox="0 0 539 567"><defs><linearGradient id="GradientFill_4" x1="178.65" y1="354.89" x2="192.77" y2="386.59" gradientUnits="userSpaceOnUse"><stop offset="0" stop-color="#dba73e"/><stop offset="0.16" stop-color="#d89d3a"/><stop offset="0.3" stop-color="#a46b28"/><stop offset="0.49" stop-color="#8e5723"/><stop offset="0.54" stop-color="#f4f3b8"/><stop offset="0.56" stop-color="#f7ed9a"/><stop offset="0.69" stop-color="#d5b767"/><stop offset="0.75" stop-color="#a76f29"/><stop offset="0.85" stop-color="#d0ab5b"/><stop offset="1" stop-color="#e0c77d"/></linearGradient><linearGradient id="GradientFill_13" x1="168.54" y1="381.35" x2="233.42" y2="348.3" gradientUnits="userSpaceOnUse"><stop offset="0" stop-color="#000002"/><stop offset="0.15" stop-color="#562f0f"/><stop offset="0.2" stop-color="#8d6d39"/><stop offset="0.26" stop-color="#7f5221"/><stop offset="0.51" stop-color="#845a26"/><stop offset="0.68" stop-color="#7b5020"/><stop offset="0.76" stop-color="#8b7045"/><stop offset="0.9" stop-color="#562f0f"/><stop offset="1" stop-color="#75491d"/></linearGradient><linearGradient id="GradientFill_4-2" x1="183.88" y1="347.36" x2="208.43" y2="391.65" xlink:href="#GradientFill_4"/><linearGradient id="GradientFill_14" x1="209.06" y1="359.94" x2="179.59" y2="376.28" gradientUnits="userSpaceOnUse"><stop offset="0" stop-color="#c89749"/><stop offset="0.14" stop-color="#8e5523"/><stop offset="0.36" stop-color="#ffee9d"/><stop offset="0.51" stop-color="#f4f3b8"/><stop offset="0.73" stop-color="#dbaa4d"/><stop offset="0.95" stop-color="#8b5623"/><stop offset="1" stop-color="#ca983e"/></linearGradient><linearGradient id="GradientFill_2" x1="269.5" y1="390.53" x2="269.5" y2="2.74" gradientUnits="userSpaceOnUse"><stop offset="0" stop-color="#f4c761"/><stop offset="0.28" stop-color="#a97f2c"/><stop offset="0.41" stop-color="#6d4c1e"/><stop offset="0.47" stop-color="#a97f2c"/><stop offset="0.53" stop-color="#f8f1de"/><stop offset="0.86" stop-color="#f3e3c2"/><stop offset="1" stop-color="#d0ab5b"/></linearGradient><linearGradient id="GradientFill_4-3" x1="367.87" y1="348.85" x2="381.38" y2="379.2" xlink:href="#GradientFill_4"/><linearGradient id="GradientFill_19" x1="390.22" y1="355.32" x2="326.74" y2="384.92" gradientUnits="userSpaceOnUse"><stop offset="0" stop-color="#000002"/><stop offset="0.08" stop-color="#562f0f"/><stop offset="0.15" stop-color="#8d6d39"/><stop offset="0.23" stop-color="#7f5221"/><stop offset="0.51" stop-color="#845a26"/><stop offset="0.68" stop-color="#7b5020"/><stop offset="0.76" stop-color="#8b7045"/><stop offset="0.9" stop-color="#562f0f"/><stop offset="1" stop-color="#75491d"/></linearGradient><linearGradient id="GradientFill_4-4" x1="355.16" y1="345.43" x2="374.6" y2="389.1" xlink:href="#GradientFill_4"/><linearGradient id="GradientFill_20" x1="351.63" y1="374.31" x2="379.76" y2="359.36" gradientUnits="userSpaceOnUse"><stop offset="0" stop-color="#c89749"/><stop offset="0.07" stop-color="#8e5523"/><stop offset="0.36" stop-color="#ffee9d"/><stop offset="0.51" stop-color="#f4f3b8"/><stop offset="0.73" stop-color="#dbaa4d"/><stop offset="0.95" stop-color="#8b5623"/><stop offset="1" stop-color="#ca983e"/></linearGradient><linearGradient id="GradientFill_5" x1="311.12" y1="343.9" x2="249.3" y2="392.2" gradientUnits="userSpaceOnUse"><stop offset="0" stop-color="#482a0f"/><stop offset="0.1" stop-color="#a77129"/><stop offset="0.15" stop-color="#fff"/><stop offset="0.22" stop-color="#da9e41"/><stop offset="0.34" stop-color="#8e5923"/><stop offset="0.5" stop-color="#d8a64d"/><stop offset="0.66" stop-color="#f5e380"/><stop offset="0.72" stop-color="#dac164"/><stop offset="0.77" stop-color="#fff"/><stop offset="0.83" stop-color="#a0752b"/><stop offset="1" stop-color="#664219"/></linearGradient><linearGradient id="GradientFill_21" x1="206.3" y1="427.9" x2="347.06" y2="313.92" gradientUnits="userSpaceOnUse"><stop offset="0" stop-color="#c89749"/><stop offset="0.04" stop-color="#8e5523"/><stop offset="0.15" stop-color="#ffee9d"/><stop offset="0.23" stop-color="#deac55"/><stop offset="0.38" stop-color="#efc978"/><stop offset="0.59" stop-color="#fddd90"/><stop offset="0.83" stop-color="#dbaa4d"/><stop offset="0.88" stop-color="#fcf6b2"/><stop offset="0.95" stop-color="#8b5623"/><stop offset="1" stop-color="#ca983e"/></linearGradient><linearGradient id="GradientFill_22" x1="105.11" y1="435.32" x2="124.11" y2="435.32" gradientUnits="userSpaceOnUse"><stop offset="0" stop-color="#dba73e"/><stop offset="0.16" stop-color="#d89d3a"/><stop offset="0.54" stop-color="#f4f3b8"/><stop offset="0.56" stop-color="#f7ed9a"/><stop offset="0.69" stop-color="#d5b767"/><stop offset="0.85" stop-color="#d0ab5b"/><stop offset="1" stop-color="#e0c77d"/></linearGradient><linearGradient id="GradientFill_22-2" x1="127.11" y1="435.42" x2="145.51" y2="435.42" xlink:href="#GradientFill_22"/><linearGradient id="GradientFill_22-3" x1="147.11" y1="435.34" x2="161.31" y2="435.34" xlink:href="#GradientFill_22"/><linearGradient id="GradientFill_22-4" x1="161.61" y1="435.37" x2="176.31" y2="435.37" xlink:href="#GradientFill_22"/><linearGradient id="GradientFill_22-5" x1="185.21" y1="435.37" x2="197.51" y2="435.37" xlink:href="#GradientFill_22"/><linearGradient id="GradientFill_22-6" x1="199.81" y1="435.37" x2="212.81" y2="435.37" xlink:href="#GradientFill_22"/><linearGradient id="GradientFill_22-7" x1="214.71" y1="435.22" x2="230.91" y2="435.22" xlink:href="#GradientFill_22"/><linearGradient id="GradientFill_22-8" x1="234.31" y1="435.32" x2="238.21" y2="435.32" xlink:href="#GradientFill_22"/><linearGradient id="GradientFill_22-9" x1="240.31" y1="435.37" x2="254.91" y2="435.37" xlink:href="#GradientFill_22"/><linearGradient id="GradientFill_22-10" x1="257.11" y1="435.32" x2="261.01" y2="435.32" xlink:href="#GradientFill_22"/><linearGradient id="GradientFill_22-11" x1="264.91" y1="435.32" x2="283.91" y2="435.32" xlink:href="#GradientFill_22"/><linearGradient id="GradientFill_22-12" x1="285.71" y1="435.32" x2="304.51" y2="435.32" xlink:href="#GradientFill_22"/><linearGradient id="GradientFill_22-13" x1="303.61" y1="435.37" x2="318.21" y2="435.37" xlink:href="#GradientFill_22"/><linearGradient id="GradientFill_22-14" x1="320.41" y1="435.37" x2="333.41" y2="435.37" xlink:href="#GradientFill_22"/><linearGradient id="GradientFill_22-15" x1="342.21" y1="435.27" x2="358.51" y2="435.27" xlink:href="#GradientFill_22"/><linearGradient id="GradientFill_22-16" x1="367.61" y1="435.32" x2="383.01" y2="435.32" xlink:href="#GradientFill_22"/><linearGradient id="GradientFill_22-17" x1="386.01" y1="435.37" x2="399.01" y2="435.37" xlink:href="#GradientFill_22"/><linearGradient id="GradientFill_22-18" x1="400.81" y1="435.34" x2="415.01" y2="435.34" xlink:href="#GradientFill_22"/><linearGradient id="GradientFill_22-19" x1="415.31" y1="435.37" x2="429.91" y2="435.37" xlink:href="#GradientFill_22"/><linearGradient id="GradientFill_22-20" x1="169.91" y1="464.17" x2="184.51" y2="464.17" xlink:href="#GradientFill_22"/><linearGradient id="GradientFill_22-21" x1="186.61" y1="464.22" x2="199.31" y2="464.22" xlink:href="#GradientFill_22"/><linearGradient id="GradientFill_22-22" x1="201.91" y1="464.22" x2="220.91" y2="464.22" xlink:href="#GradientFill_22"/><linearGradient id="GradientFill_22-23" x1="231.81" y1="464.22" x2="246.41" y2="464.22" xlink:href="#GradientFill_22"/><linearGradient id="GradientFill_22-24" x1="249.11" y1="464.27" x2="261.41" y2="464.27" xlink:href="#GradientFill_22"/><linearGradient id="GradientFill_22-25" x1="261.61" y1="464.22" x2="280.41" y2="464.22" xlink:href="#GradientFill_22"/><linearGradient id="GradientFill_22-26" x1="279.41" y1="464.17" x2="294.01" y2="464.17" xlink:href="#GradientFill_22"/><linearGradient id="GradientFill_22-27" x1="296.21" y1="464.22" x2="308.91" y2="464.22" xlink:href="#GradientFill_22"/><linearGradient id="GradientFill_22-28" x1="310.31" y1="464.32" x2="328.71" y2="464.32" xlink:href="#GradientFill_22"/><linearGradient id="GradientFill_22-29" x1="331.71" y1="464.22" x2="346.71" y2="464.22" xlink:href="#GradientFill_22"/><linearGradient id="GradientFill_22-30" x1="349.31" y1="464.22" x2="368.31" y2="464.22" xlink:href="#GradientFill_22"/><linearGradient id="GradientFill_22-31" x1="210.21" y1="492.97" x2="223.81" y2="492.97" xlink:href="#GradientFill_22"/><linearGradient id="GradientFill_22-32" x1="225.31" y1="493.02" x2="239.91" y2="493.02" xlink:href="#GradientFill_22"/><linearGradient id="GradientFill_22-33" x1="240.61" y1="492.97" x2="247.91" y2="492.97" xlink:href="#GradientFill_22"/><linearGradient id="GradientFill_22-34" x1="250.91" y1="492.97" x2="264.81" y2="492.97" xlink:href="#GradientFill_22"/><linearGradient id="GradientFill_22-35" x1="266.81" y1="492.92" x2="273.61" y2="492.92" xlink:href="#GradientFill_22"/><linearGradient id="GradientFill_22-36" x1="274.31" y1="492.97" x2="287.91" y2="492.97" xlink:href="#GradientFill_22"/><linearGradient id="GradientFill_22-37" x1="289.31" y1="493.02" x2="303.91" y2="493.02" xlink:href="#GradientFill_22"/><linearGradient id="GradientFill_22-38" x1="304.81" y1="492.97" x2="312.01" y2="492.97" xlink:href="#GradientFill_22"/><linearGradient id="GradientFill_22-39" x1="314.81" y1="492.92" x2="329.11" y2="492.92" xlink:href="#GradientFill_22"/><linearGradient id="GradientFill_22-40" x1="157.01" y1="531.82" x2="165.61" y2="531.82" xlink:href="#GradientFill_22"/><linearGradient id="GradientFill_22-41" x1="167.61" y1="531.87" x2="174.11" y2="531.87" xlink:href="#GradientFill_22"/><linearGradient id="GradientFill_22-42" x1="174.71" y1="531.82" x2="184.31" y2="531.82" xlink:href="#GradientFill_22"/><linearGradient id="GradientFill_22-43" x1="186.41" y1="531.87" x2="194.41" y2="531.87" xlink:href="#GradientFill_22"/><linearGradient id="GradientFill_22-44" x1="194.81" y1="531.87" x2="204.71" y2="531.87" xlink:href="#GradientFill_22"/><linearGradient id="GradientFill_22-45" x1="205.71" y1="531.87" x2="212.21" y2="531.87" xlink:href="#GradientFill_22"/><linearGradient id="GradientFill_22-46" x1="217.21" y1="531.87" x2="223.81" y2="531.87" xlink:href="#GradientFill_22"/><linearGradient id="GradientFill_22-47" x1="225.51" y1="531.87" x2="227.21" y2="531.87" xlink:href="#GradientFill_22"/><linearGradient id="GradientFill_22-48" x1="229.71" y1="531.87" x2="237.71" y2="531.87" xlink:href="#GradientFill_22"/><linearGradient id="GradientFill_22-49" x1="238.91" y1="531.87" x2="248.81" y2="531.87" xlink:href="#GradientFill_22"/><linearGradient id="GradientFill_22-50" x1="250.01" y1="531.87" x2="258.01" y2="531.87" xlink:href="#GradientFill_22"/><linearGradient id="GradientFill_22-51" x1="259.91" y1="531.82" x2="268.31" y2="531.82" xlink:href="#GradientFill_22"/><linearGradient id="GradientFill_22-52" x1="269.91" y1="531.87" x2="271.61" y2="531.87" xlink:href="#GradientFill_22"/><linearGradient id="GradientFill_22-53" x1="272.71" y1="531.87" x2="282.61" y2="531.87" xlink:href="#GradientFill_22"/><linearGradient id="GradientFill_22-54" x1="283.71" y1="531.87" x2="290.11" y2="531.87" xlink:href="#GradientFill_22"/><linearGradient id="GradientFill_22-55" x1="295.11" y1="531.87" x2="303.01" y2="531.87" xlink:href="#GradientFill_22"/><linearGradient id="GradientFill_22-56" x1="304.61" y1="531.87" x2="311.51" y2="531.87" xlink:href="#GradientFill_22"/><linearGradient id="GradientFill_22-57" x1="312.61" y1="531.82" x2="321.21" y2="531.82" xlink:href="#GradientFill_22"/><linearGradient id="GradientFill_22-58" x1="323.21" y1="532.02" x2="331.21" y2="532.02" xlink:href="#GradientFill_22"/><linearGradient id="GradientFill_22-59" x1="333.51" y1="531.87" x2="340.01" y2="531.87" xlink:href="#GradientFill_22"/><linearGradient id="GradientFill_22-60" x1="340.11" y1="531.87" x2="350.01" y2="531.87" xlink:href="#GradientFill_22"/><linearGradient id="GradientFill_22-61" x1="349.61" y1="531.87" x2="357.31" y2="531.87" xlink:href="#GradientFill_22"/><linearGradient id="GradientFill_22-62" x1="357.81" y1="531.82" x2="367.41" y2="531.82" xlink:href="#GradientFill_22"/><linearGradient id="GradientFill_22-63" x1="369.31" y1="531.87" x2="377.21" y2="531.87" xlink:href="#GradientFill_22"/><linearGradient id="GradientFill_22-64" x1="377.31" y1="531.87" x2="386.11" y2="531.87" xlink:href="#GradientFill_22"/><linearGradient id="GradientFill_22-65" x1="214.11" y1="547.52" x2="221.41" y2="547.52" xlink:href="#GradientFill_22"/><linearGradient id="GradientFill_22-66" x1="221.51" y1="547.47" x2="230.31" y2="547.47" xlink:href="#GradientFill_22"/><linearGradient id="GradientFill_22-67" x1="230.51" y1="547.52" x2="237.81" y2="547.52" xlink:href="#GradientFill_22"/><linearGradient id="GradientFill_22-68" x1="238.21" y1="547.47" x2="245.91" y2="547.47" xlink:href="#GradientFill_22"/><linearGradient id="GradientFill_22-69" x1="247.21" y1="547.47" x2="254.01" y2="547.47" xlink:href="#GradientFill_22"/><linearGradient id="GradientFill_22-70" x1="255.81" y1="547.47" x2="265.71" y2="547.47" xlink:href="#GradientFill_22"/><linearGradient id="GradientFill_22-71" x1="270.61" y1="547.47" x2="280.51" y2="547.47" xlink:href="#GradientFill_22"/><linearGradient id="GradientFill_22-72" x1="280.21" y1="547.47" x2="294.41" y2="547.47" xlink:href="#GradientFill_22"/><linearGradient id="GradientFill_22-73" x1="294.21" y1="547.47" x2="304.11" y2="547.47" xlink:href="#GradientFill_22"/><linearGradient id="GradientFill_22-74" x1="305.21" y1="547.47" x2="313.11" y2="547.47" xlink:href="#GradientFill_22"/><linearGradient id="GradientFill_22-75" x1="314.71" y1="547.52" x2="323.61" y2="547.52" xlink:href="#GradientFill_22"/><linearGradient id="GradientFill_22-76" x1="324.71" y1="547.52" x2="332.01" y2="547.52" xlink:href="#GradientFill_22"/><linearGradient id="GradientFill_3" x1="137.08" y1="171.36" x2="184.43" y2="171.36" gradientUnits="userSpaceOnUse"><stop offset="0" stop-color="#dfab4a"/><stop offset="0.15" stop-color="#feeba7"/><stop offset="0.35" stop-color="#ddb05d"/><stop offset="0.45" stop-color="#fadd85"/><stop offset="0.72" stop-color="#efc56c"/><stop offset="0.81" stop-color="#efd479"/><stop offset="0.91" stop-color="#f0cf81"/><stop offset="1" stop-color="#e2bc5e"/></linearGradient><linearGradient id="GradientFill_3-2" x1="208.16" y1="224.98" x2="255.51" y2="224.98" xlink:href="#GradientFill_3"/><linearGradient id="GradientFill_3-3" x1="224.09" y1="110.82" x2="323.44" y2="110.82" xlink:href="#GradientFill_3"/><linearGradient id="GradientFill_3-4" x1="281.41" y1="224.98" x2="328.76" y2="224.98" xlink:href="#GradientFill_3"/><linearGradient id="GradientFill_3-5" x1="346.94" y1="171.36" x2="394.28" y2="171.36" xlink:href="#GradientFill_3"/></defs><title>awrds</title><g id="Layer_1" data-name="Layer 1"><path d="M167.78,369.62c-2.37-5.71,7.29-9.85,16.34-13.73l.48-.21,22,23.73-25.79,1.94-13.05-11.73Zm15.68-14.77h0c-9.69,4.15-20,8.58-17.16,15.29a.46.46,0,0,0,.15.23l13.38,12h0a.84.84,0,0,0,.62.18l27.64-2.08h0a1.08,1.08,0,0,0,.43-.13.54.54,0,0,0,.22-.85l-23.19-25a.89.89,0,0,0-1-.16Z" fill-rule="evenodd" fill="url(#GradientFill_4)"/><path d="M167.07,370c-2.84-6.5,8.11-10.89,17.81-15.06l23.2,25L180.45,382Z" fill-rule="evenodd" fill="url(#GradientFill_13)"/><path d="M169,353.32l23.42,32.45a.79.79,0,0,0,.74.27h0L220.61,383a.76.76,0,0,0,.74-.69.52.52,0,0,0-.14-.3,201.58,201.58,0,0,1-15.46-20.25c-9.8-14.29-12-17.54-36.3-9.28-.41.14-.63.49-.48.8a.24.24,0,0,0,.06.09Zm24.58,31.47h0l-22.78-31.56c22.15-7.44,24.33-4.27,33.51,9.11a204.46,204.46,0,0,0,14.85,19.57Z" fill-rule="evenodd" fill="url(#GradientFill_4-2)"/><path d="M169.71,353l23.43,32.48,27.42-3.1C194.08,352.1,202.23,341.9,169.71,353Z" fill-rule="evenodd" fill="url(#GradientFill_14)"/></g><g id="_Layer_1-5" data-name="#Layer 1"><path d="M189.65,29.23c-1.14.59-2.26,1.19-3.38,1.81,2.15-2.43,3.07-5.37,3.9-9.28-9.55,2.76-12.58,6.27-13.73,14.91l.14.11c-2,1.29-4,2.61-6,4,2.23-3.17,2.92-6.78,3.35-11.53-10.83,4.57-13.89,9.11-14,19.41l.12.08c-1.49,1.22-3,2.46-4.42,3.73,1.56-3.57,1.71-7.42,1.5-12.31-11.1,6.58-13.92,12-12.71,23-1.23,1.29-2.45,2.59-3.64,3.91.69-3.48.24-7.07-.66-11.46-9.54,7.91-11.7,13.57-9.27,23.46q-2.43,3.24-4.73,6.58c.78-4.66-.32-9-2.26-14.57-9.66,10.56-11,17.25-6.3,28.44q-2.39,4.29-4.54,8.74c.7-5.51-1.08-10.12-4.11-16-8.31,12.09-8.53,19-1.84,29.81-1.56,4.12-3,8.3-4.23,12.56.49-7-2.24-12-6.9-18.32-6.76,14.12-5.81,21.35,3.14,31.74l.39-.06q-1.5,7.17-2.42,14.55c-.08-8.82-3.9-13.9-10.42-20.36-4.77,16-2.57,23.45,8.59,32.9l.76-.25c-.16,3-.23,6.1-.23,9.18q0,3,.1,6c-.17.88-.31,1.8-.42,2.78-.33-12.07-5.05-17.1-13.71-23.47-2.38,16.52.89,23.58,13.31,31.29.49-.24,1-.48,1.43-.73q.72,8,2.14,15.73c-2.91-8.66-8.33-12.5-16.86-16.86.32,17.54,4.91,24.3,19.09,30.21l.64-.46q1.66,6.32,3.78,12.43c-4.75-9.77-11.52-13.19-22.06-16.65,3.4,19.37,9.65,26.07,26.4,30.15.22-.23.45-.45.67-.67,1.1,2.53,2.27,5,3.49,7.49-5.58-4.43-12.06-5.94-20.69-7.08,7.13,18.94,14.72,25,31.74,26.25q3.28,4.94,6.89,9.64c-7.62-5.18-15.35-5.63-25.94-5,11.5,18.69,20.77,23.23,39.59,20.74q3.58,3.66,7.37,7.13c-7.23-2.06-14.18-.92-23.06,1.45,14.51,15.52,24.34,18.45,41.22,13,3.52,2.43,7.12,4.75,10.81,6.93-8.86-.93-16.33,2-25.79,7,19.34,13.17,30.56,13.89,47.46,3.86a171.67,171.67,0,0,0,22.05,7.47c-10.32,1.11-17.39,6.36-26.13,14.6,23.45,7.86,34.93,5.24,49.32-10.12a174.64,174.64,0,0,0,42,.13c14.33,15.25,25.81,17.83,49.19,10-8.48-8-15.39-13.18-25.22-14.49a173,173,0,0,0,21.69-7.26c16.6,9.69,27.78,8.85,46.91-4.18-8.91-4.65-16.05-7.54-24.25-7.09,3.47-2.05,6.86-4.23,10.18-6.51,16.33,5,26.06,1.93,40.31-13.3-8.14-2.17-14.65-3.31-21.25-1.9q3.47-3.18,6.74-6.54c18,2.15,27.15-2.58,38.41-20.88-9.45-.57-16.63-.27-23.48,3.48q3-4,5.83-8.24c16-1.5,23.41-7.72,30.34-26.14-7.6,1-13.53,2.3-18.65,5.62q1.31-2.7,2.52-5.47c16.44-4.08,22.62-10.82,26-30-8.54,2.8-14.6,5.58-19.12,11.73.75-2.42,1.46-4.86,2.1-7.32,13.7-5.84,18.15-12.67,18.47-29.94-6.77,3.46-11.58,6.59-14.73,12.06.53-3.4,1-6.82,1.27-10.28l.17.08c12.42-7.71,15.69-14.77,13.31-31.29-6.56,4.83-10.86,8.89-12.71,15.83V184c0-3.16-.08-6.29-.25-9.41,10.67-9.22,12.73-16.7,8-32.42-5.09,5-8.54,9.25-9.84,15-.53-3.38-1.14-6.73-1.86-10.05,8.25-9.93,9-17.14,2.38-30.86-3.71,5.08-6.2,9.25-6.81,14.32q-1.61-5-3.51-9.9c5.86-10.1,5.32-16.89-2.64-28.47-2.48,4.8-4.12,8.75-4.25,13Q424,101.64,422,98.11c4-10.38,2.4-17-6.86-27.07-1.63,4.62-2.67,8.47-2.5,12.33-1.36-1.91-2.75-3.81-4.19-5.67,1.92-9.08-.47-14.58-9.58-22.13a33.64,33.64,0,0,0-.9,9.74c-1.08-1.16-2.16-2.3-3.27-3.43.86-10.16-2.16-15.41-12.83-21.74-.18,4.13-.09,7.53.88,10.64-1.22-1-2.45-2.05-3.7-3.05-.31-9.66-3.5-14.06-14-18.5.36,4,.9,7.17,2.39,10-1.64-1.1-3.3-2.18-5-3.22-1.22-8.13-4.34-11.53-13.63-14.21.7,3.27,1.46,5.87,2.94,8l-1.09-.58,1.11.61A15.66,15.66,0,0,0,358.21,35c-6.85-2.19-10.57-.47-15.81,3.23,8.89,4.45,13.5,3.93,20.16-1.53l-.06-.44q2.65,1.71,5.25,3.53A19,19,0,0,0,374.21,46c-7.73-3.53-12.35-2-19,1.58,9.82,6.47,15.3,6.5,23.88,1v-.22q2.07,1.72,4.09,3.51a20.93,20.93,0,0,0,6.34,8.25c-8-5.08-13.39-4.12-21.33-1.12,9.91,8.66,16,9.53,26.33,4.74l.09-.75q1.85,2,3.63,4a20.71,20.71,0,0,0,5,9.49c-7.15-6.28-12.58-6.16-20.88-4.45,8.43,10.11,14.28,11.92,25.26,8.81.15-.54.29-1.07.43-1.59q2.57,3.53,5,7.17A26.27,26.27,0,0,0,416.8,95c-7-8.06-13-8.76-22.5-8.13,7.81,12.51,14,15.41,26.7,13.64l.15-.36q2.93,5.5,5.47,11.24a32.31,32.31,0,0,0,1.81,4.81c-5.79-9-11.69-10.48-21.17-11.17,5.88,13.18,11.53,17,23.74,17.2q2.88,7.9,5,16.13c-4.41-8.05-10.1-10.35-19-12.41,3.89,14.42,9,19.51,21.11,21.77q1.41,7,2.23,14.27c-3.38-7.56-8.78-10.68-17-14,1.66,15.58,6.09,21.84,18,26.23.11,2.59.18,5.19.18,7.8,0,.75,0,1.49,0,2.24-2.55-6.07-7.11-9.51-13.78-13.43-.61,15.18,2.63,22.08,13,28q-.69,7.32-2,14.45c-1.3-7.75-5.61-12.37-12.39-18-3.26,15.95-.91,23.65,9.32,31.74q-1.31,5-2.92,9.78c-.19-8.61-4.14-14.42-10.58-21.73-6.38,17.1-5.11,26,4.82,36.78a171.92,171.92,0,0,1-8.7,17.19c-.54.82-1.08,1.68-1.62,2.6,5.73-14,2.74-22.14-4.16-33.76-10.6,17.56-10.51,27.29-.79,41.66-3,4.4-6.17,8.66-9.53,12.77,5.43-10.83,3.77-19.2-.43-30.92-14.28,15.79-16.36,25.84-9.64,42.15a173.07,173.07,0,0,1-14.93,13.59c-1.17.74-2.36,1.57-3.59,2.5,11.29-11.4,11.65-20.56,9.6-34.72-17.6,13-21.39,22.57-17.57,40.78A170,170,0,0,1,344.41,338l-.81.36c14.8-9.48,17.38-19.19,18.57-34.82-21.86,9.63-28.23,19-28.54,39.24a167.94,167.94,0,0,1-27.51,8.45c13.44-5.5,18.23-14.16,23.26-27.87-24.38,3.44-33.5,10.85-39.56,30.56a170.43,170.43,0,0,1-40.69-.16c-6.06-19.58-15.19-27-39.5-30.4,4.84,13.22,9.47,21.75,21.85,27.27a168.52,168.52,0,0,1-26.12-8.38c-.41-19.92-6.86-29.17-28.53-38.71,1.1,14.39,3.37,23.75,15.26,32.55a171.67,171.67,0,0,1-18.53-11.15c3.54-17.71-.38-27.21-17.73-40-1.89,13-1.74,21.83,7.11,32a172.8,172.8,0,0,1-15.64-14.36c6.25-15.76,4-25.71-10-41.2-3.72,10.36-5.44,18.11-2,27.24-2.54-3.26-5-6.63-7.26-10.08,9.06-13.84,8.91-23.51-1.45-40.67-6,10.07-9,17.52-6,28.45a170.54,170.54,0,0,1-7.6-15.47c9.11-10.31,10.11-19.21,3.92-35.79-5.58,6.34-9.29,11.55-10.3,18.44q-1.14-3.65-2.1-7.38c9.3-7.78,11.37-15.48,8.22-30.85-5.77,4.8-9.76,8.87-11.61,14.77q-1-5.92-1.51-12c9.37-5.79,12.33-12.74,11.74-27.29-5.65,3.32-9.79,6.29-12.47,10.82q0-4,.2-7.95c10.89-4.37,15-10.74,16.64-25.71-7,2.82-11.9,5.49-15.31,10.81q.77-5.73,1.9-11.34c11.11-2.4,16-7.63,19.73-21.49-7.43,1.72-12.63,3.62-16.72,8.91,1.21-4.29,2.56-8.51,4.08-12.66,11.29-.43,16.74-4.48,22.4-17.17-8.12.59-13.6,1.8-18.64,7.74q2.69-6.19,5.82-12.14c12,1.5,18.16-1.55,25.78-13.76-9.48-.63-15.53.07-22.51,8.13a32,32,0,0,0,2.22-4c2.17-3.53,4.46-7,6.87-10.35l.08.25c11,3.11,16.82,1.3,25.25-8.81-8.3-1.71-13.74-1.83-20.88,4.45a23.21,23.21,0,0,0,4.43-7.25c1.53-1.8,3.11-3.58,4.72-5.33,10.12,4.59,16.16,3.65,26-4.91-7.94-3-13.29-4-21.33,1.12a23.41,23.41,0,0,0,5.32-6.13c1.87-1.71,3.77-3.39,5.72-5,8.23,5.1,13.68,4.92,23.26-1.4-6.66-3.61-11.27-5.11-19-1.58a21.63,21.63,0,0,0,5.12-4.38q3.36-2.44,6.84-4.74c6.49,5.23,11.08,5.66,19.84,1.28-5.24-3.7-9-5.42-15.81-3.23a17.14,17.14,0,0,0,5.37-3.81C187.31,30.5,188.48,29.86,189.65,29.23Z" fill-rule="evenodd" fill="url(#GradientFill_2)"/></g><g id="_Layer_1-6" data-name="#Layer 1"><path d="M392.47,366.35c2,5.81-8.09,9.53-17.32,13.11l-.49.19-20.51-24.56L379.92,354l12.55,12.32Zm-16.72,14.17h0c9.88-3.83,20.68-7.81,18.22-14.64a.52.52,0,0,0-.13-.24L381,353h0a.82.82,0,0,0-.62-.2l-27.61,1.13h0a1.16,1.16,0,0,0-.43.12.55.55,0,0,0-.27.84l21.61,25.88h0a.88.88,0,0,0,1,.18Z" fill-rule="evenodd" fill="url(#GradientFill_4-3)"/><path d="M392.94,365.93c2.44,6.62-8.71,10.65-18.6,14.49l-21.62-25.88,27.62-1.13Z" fill-rule="evenodd" fill="url(#GradientFill_19)"/><path d="M390,382.58l-21.4-33.39a.76.76,0,0,0-.72-.29h0l-27.46,2.16a.78.78,0,0,0-.78.66.45.45,0,0,0,.12.31A195.12,195.12,0,0,1,354,372.87c8.91,14.68,10.94,18,35.57,10.57.41-.13.65-.48.52-.79a.25.25,0,0,0,0-.07Zm-22.62-32.45h0l20.8,32.46c-22.46,6.7-24.45,3.44-32.8-10.3a196,196,0,0,0-13.61-20.14Z" fill-rule="evenodd" fill="url(#GradientFill_4-4)"/><path d="M389.31,382.88q-10.69-16.69-21.4-33.39l-27.45,2.16C365,382.92,356.31,392.87,389.31,382.88Z" fill-rule="evenodd" fill="url(#GradientFill_20)"/><path d="M166.54,370.41a4.77,4.77,0,0,0,.73.78c7.12,7.7,13.53,15.71,20,23.77,1.77,2.21,3.54,4.42,5.21,6.48,5.28,6.52,12.83,8.51,20.72,8.32s15.79-2.48,22.27-4.58l.06,0c7.93-2.45,14.88-4.53,21.84-6.6,14.15-4.22,28.31-8.45,47.6-14.89,31.66-10.57,50.65-16,63.25-18.2,12.4-2.16,18.54-1.17,24.56,1.1a1,1,0,0,0,.92-.08.52.52,0,0,0,.16-.85c-4.48-4.26-8.36-8.38-11.95-12.19C364,334.5,353.15,322.94,309.94,337.2q-14.82,4.91-29.65,9.78-29.62,9.76-59.19,19.61c-14.18,4.74-25.3,6.77-33.67,7.22-10.39.56-16.45-1.29-18.82-3.34l-.74-.8a.92.92,0,0,0-1.09-.08c-.35.2-.46.56-.24.82Zm4.7,2.95h0c3.52,1.26,8.84,2.05,16.16,1.65,8.53-.46,19.83-2.51,34.2-7.33q29.58-9.89,59.19-19.6,14.83-4.89,29.65-9.78c42.08-13.88,52.71-2.6,70.14,15.91,3,3.23,6.28,6.67,9.94,10.25-5.48-1.61-11.73-2-22.53-.16-12.7,2.21-31.78,7.66-63.54,18.27C285.17,389,271,393.23,256.9,397.44c-7.18,2.14-14.36,4.28-21.86,6.61l-.08,0c-6.34,2.07-14.19,4.31-21.69,4.49s-14.49-1.69-19.45-7.82c-1.83-2.26-3.52-4.37-5.21-6.48C183,387.2,177.34,380.18,171.24,373.36Z" fill-rule="evenodd" fill="url(#GradientFill_5)"/><path d="M167.21,370.05c3.06,4.21,19.64,8.64,54.14-2.91,29.57-9.9,59.22-19.6,88.84-29.39,51.34-16.94,56.46,3.07,83,28.29-12.38-4.67-25.09-4.1-88.51,17.08-28.93,9.66-46.29,14.32-69.43,21.48-12.85,4.18-31.89,9.15-42.13-3.51C184.64,390.59,176.55,380.05,167.21,370.05Z" fill-rule="evenodd" fill="url(#GradientFill_21)"/></g><g id="_321353356351_1" data-name="321353356351 1"><g id="objects"><path d="M120.51,443.72v-10.1l-5,8.3h-1.7l-5-8.1v9.9h-3.7v-16.8h3.2l6.3,10.4,6.2-10.4H124l.1,16.8Z" fill="url(#GradientFill_22)"/><path d="M131.61,442.92a9,9,0,0,1-3.3-3.1,8.56,8.56,0,0,1-1.2-4.4,7.83,7.83,0,0,1,1.2-4.4,8.22,8.22,0,0,1,3.3-3.1,9.32,9.32,0,0,1,4.7-1.1,10.49,10.49,0,0,1,4.7,1.1,9,9,0,0,1,3.3,3.1,8.56,8.56,0,0,1,1.2,4.4,7.83,7.83,0,0,1-1.2,4.4,8.22,8.22,0,0,1-3.3,3.1,9.08,9.08,0,0,1-4.7,1.1A9.32,9.32,0,0,1,131.61,442.92ZM139,440a5.75,5.75,0,0,0,1.9-1.9,5.95,5.95,0,0,0,0-5.6,5.75,5.75,0,0,0-1.9-1.9,5.56,5.56,0,0,0-5.4,0,5.75,5.75,0,0,0-1.9,1.9,6,6,0,0,0,0,5.6,5.75,5.75,0,0,0,1.9,1.9,5,5,0,0,0,2.7.7A6,6,0,0,0,139,440Z" fill="url(#GradientFill_22-2)"/><path d="M150.11,443.42a8.39,8.39,0,0,1-3-1.4l1.4-2.9a10,10,0,0,0,5.6,1.8,5.21,5.21,0,0,0,2.5-.5,1.56,1.56,0,0,0,.8-1.3,1.23,1.23,0,0,0-.5-1,4.49,4.49,0,0,0-1.2-.6,14.33,14.33,0,0,0-2-.5c-1.3-.3-2.3-.6-3.2-.9a5.11,5.11,0,0,1-2.1-1.5,4,4,0,0,1-.9-2.7,4.46,4.46,0,0,1,.8-2.6,5.81,5.81,0,0,1,2.4-1.9,9.37,9.37,0,0,1,3.9-.7,17.5,17.5,0,0,1,3.2.4,6.66,6.66,0,0,1,2.7,1.1l-1.2,2.9a9.44,9.44,0,0,0-4.7-1.4,4.77,4.77,0,0,0-2.4.5,1.72,1.72,0,0,0-.8,1.4,1.38,1.38,0,0,0,.9,1.3,14.3,14.3,0,0,0,2.8.8c1.3.3,2.3.6,3.2.9a6,6,0,0,1,2.1,1.4,4,4,0,0,1,.9,2.7,4.7,4.7,0,0,1-.8,2.6,5.81,5.81,0,0,1-2.4,1.9,9.37,9.37,0,0,1-3.9.7A11,11,0,0,1,150.11,443.42Z" fill="url(#GradientFill_22-3)"/><path d="M167,430.12h-5.4v-3.2h14.7v3.2h-5.4v13.7H167v-13.7Z" fill="url(#GradientFill_22-4)"/><path d="M185.21,426.92h3.9v13.7h8.4v3.2h-12.3v-16.9Z" fill="url(#GradientFill_22-5)"/><path d="M212.81,440.62v3.2h-13v-16.9h12.7v3.2h-8.9v3.7h7.8v3h-7.8v3.9l9.2-.1Z" fill="url(#GradientFill_22-6)"/><path d="M227.21,435h3.5v6.8a10.67,10.67,0,0,1-3.2,1.6,11.19,11.19,0,0,1-3.6.5,10.49,10.49,0,0,1-4.7-1.1,9,9,0,0,1-3.3-3.1,8.66,8.66,0,0,1-1.2-4.5,8.41,8.41,0,0,1,1.2-4.5,8.22,8.22,0,0,1,3.3-3.1,9.32,9.32,0,0,1,4.7-1.1,8.68,8.68,0,0,1,4,.8,7.33,7.33,0,0,1,3,2.2l-2.5,2.3a6.16,6.16,0,0,0-7.3-1.2,6.06,6.06,0,0,0-2,1.9,6,6,0,0,0,0,5.6,5.24,5.24,0,0,0,2,1.9,5.43,5.43,0,0,0,2.9.7,5.21,5.21,0,0,0,3-.8l.2-4.9Z" fill="url(#GradientFill_22-7)"/><path d="M234.31,426.92h3.9v16.8h-3.9Z" fill="url(#GradientFill_22-8)"/><path d="M245.71,430.12h-5.4v-3.2h14.6v3.2h-5.3v13.7h-3.9v-13.7Z" fill="url(#GradientFill_22-9)"/><path d="M257.11,426.92H261v16.8h-3.9Z" fill="url(#GradientFill_22-10)"/><path d="M280.31,443.72v-10.1l-5,8.3h-1.7l-5-8.1v9.9h-3.7v-16.8h3.2l6.3,10.4,6.2-10.4h3.2l.1,16.8Z" fill="url(#GradientFill_22-11)"/><path d="M299,440.12h-7.8l-1.5,3.6h-4l7.5-16.8H297l7.5,16.8h-4.1Zm-1.2-3-2.7-6.5-2.7,6.5Z" fill="url(#GradientFill_22-12)"/><path d="M309,430.12h-5.4v-3.2h14.6v3.2h-5.4v13.7h-3.9l.1-13.7Z" fill="url(#GradientFill_22-13)"/><path d="M333.41,440.62v3.2h-13v-16.9h12.7v3.2h-8.9v3.7H332v3h-7.8v3.9l9.2-.1Z" fill="url(#GradientFill_22-14)"/><path d="M356.21,444l-2-1.9a8.64,8.64,0,0,1-5.6,1.9,8.81,8.81,0,0,1-3.3-.6,5.77,5.77,0,0,1-2.3-1.7,4.07,4.07,0,0,1-.8-2.4,4.47,4.47,0,0,1,.9-2.8,7.94,7.94,0,0,1,2.9-2.3,7.34,7.34,0,0,1-1.4-1.8,3.66,3.66,0,0,1-.4-1.8,3.6,3.6,0,0,1,.7-2.2,4.89,4.89,0,0,1,1.8-1.4,6.1,6.1,0,0,1,2.8-.5,5.62,5.62,0,0,1,3.5,1.1,3.56,3.56,0,0,1,1.4,2.9,3.09,3.09,0,0,1-.8,2.3,10.91,10.91,0,0,1-2.5,2l3.1,2.9a7.86,7.86,0,0,0,.8-2.6l3,.9a10.08,10.08,0,0,1-1.5,3.8l2,1.8Zm-4.2-3.9-4.1-3.8a4.47,4.47,0,0,0-1.6,1.3,2.65,2.65,0,0,0-.5,1.4,1.9,1.9,0,0,0,.8,1.5,3.59,3.59,0,0,0,2.2.6A5.78,5.78,0,0,0,352,440.12Zm-3.9-10.4a1.61,1.61,0,0,0-.5,1.1,1.93,1.93,0,0,0,.3,1A5.36,5.36,0,0,0,349,433a6.83,6.83,0,0,0,1.7-1.2,2.11,2.11,0,0,0,.5-1.1,1.1,1.1,0,0,0-.5-1,2.14,2.14,0,0,0-1.2-.4A1.5,1.5,0,0,0,348.11,429.72Z" fill="url(#GradientFill_22-15)"/><path d="M382.21,436.52a4.46,4.46,0,0,1,.8,2.6,4,4,0,0,1-1.7,3.4,8.8,8.8,0,0,1-5,1.2h-8.7v-16.8h8.2a8,8,0,0,1,4.7,1.2,3.85,3.85,0,0,1,1.7,3.2,4,4,0,0,1-.6,2.2,4.13,4.13,0,0,1-1.7,1.5A4.06,4.06,0,0,1,382.21,436.52Zm-10.7-6.7v4h3.9a4.2,4.2,0,0,0,2.2-.5,1.65,1.65,0,0,0,.8-1.5,1.56,1.56,0,0,0-.8-1.5,4.2,4.2,0,0,0-2.2-.5Zm6.8,10.5a1.7,1.7,0,0,0,.8-1.6c0-1.4-1.1-2.1-3.1-2.1h-4.5v4.1H376A3.2,3.2,0,0,0,378.31,440.32Z" fill="url(#GradientFill_22-16)"/><path d="M399,440.62v3.2H386v-16.9h12.7v3.2h-8.9v3.7h7.8v3h-7.8v3.9l9.2-.1Z" fill="url(#GradientFill_22-17)"/><path d="M403.81,443.42a8.39,8.39,0,0,1-3-1.4l1.4-2.9a10,10,0,0,0,5.6,1.8,5.21,5.21,0,0,0,2.5-.5,1.56,1.56,0,0,0,.8-1.3,1.23,1.23,0,0,0-.5-1,3.37,3.37,0,0,0-1.2-.6,14.33,14.33,0,0,0-2-.5c-1.3-.3-2.3-.6-3.2-.9a5.11,5.11,0,0,1-2.1-1.5,4,4,0,0,1-.9-2.7,4.46,4.46,0,0,1,.8-2.6,5.81,5.81,0,0,1,2.4-1.9,9.37,9.37,0,0,1,3.9-.7,17.5,17.5,0,0,1,3.2.4,6.66,6.66,0,0,1,2.7,1.1l-1.2,2.9a9.44,9.44,0,0,0-4.7-1.4,4.77,4.77,0,0,0-2.4.5,1.72,1.72,0,0,0-.8,1.4,1.38,1.38,0,0,0,.9,1.3,14.3,14.3,0,0,0,2.8.8c1.3.3,2.3.6,3.2.9a6,6,0,0,1,2.1,1.4,4,4,0,0,1,.9,2.7,4.7,4.7,0,0,1-.8,2.6,5.81,5.81,0,0,1-2.4,1.9,9.37,9.37,0,0,1-3.9.7A10.5,10.5,0,0,1,403.81,443.42Z" fill="url(#GradientFill_22-18)"/><path d="M420.71,430.12h-5.4v-3.2h14.6v3.2h-5.4v13.7h-3.9l.1-13.7Z" fill="url(#GradientFill_22-19)"/><path d="M175.31,458.92h-5.4v-3.2h14.6v3.2h-5.4v13.7h-3.9l.1-13.7Z" fill="url(#GradientFill_22-20)"/><path d="M190.51,458.82v4.4h7.8v3.2h-7.8v6.2h-3.9v-16.8h12.7V459l-8.8-.2Z" fill="url(#GradientFill_22-21)"/><path d="M217.31,472.62v-10.1l-5,8.3h-1.7l-5-8.1v9.9h-3.7v-16.8h3.2l6.3,10.4,6.2-10.4h3.2l.1,16.8Z" fill="url(#GradientFill_22-22)"/><path d="M242.91,456.52a6.07,6.07,0,0,1,2.6,2.1,6.14,6.14,0,0,1,0,6.4,5,5,0,0,1-2.6,2.1,9.35,9.35,0,0,1-3.9.8h-3.3v4.7h-3.9v-16.8h7.3A8.9,8.9,0,0,1,242.91,456.52Zm-1.4,7.5a3.14,3.14,0,0,0,0-4.4,4.14,4.14,0,0,0-2.7-.8h-3.1v5.9h3.2A3.51,3.51,0,0,0,241.51,464Z" fill="url(#GradientFill_22-23)"/><path d="M249.11,455.82H253v13.7h8.4v3.2h-12.3v-16.9Z" fill="url(#GradientFill_22-24)"/><path d="M274.91,469h-7.8l-1.5,3.6h-4l7.5-16.8h3.8l7.5,16.8h-4.1Zm-1.3-3-2.7-6.5-2.7,6.5Z" fill="url(#GradientFill_22-25)"/><path d="M284.81,458.92h-5.4v-3.2H294v3.2h-5.4v13.7h-3.9l.1-13.7Z" fill="url(#GradientFill_22-26)"/><path d="M300.11,458.82v4.4h7.8v3.2h-7.8v6.2h-3.9v-16.8h12.7V459l-8.8-.2Z" fill="url(#GradientFill_22-27)"/><path d="M314.81,471.82a9,9,0,0,1-3.3-3.1,8.56,8.56,0,0,1-1.2-4.4,8.06,8.06,0,0,1,1.2-4.4,8.22,8.22,0,0,1,3.3-3.1,9.32,9.32,0,0,1,4.7-1.1,10.49,10.49,0,0,1,4.7,1.1,9,9,0,0,1,3.3,3.1,8.56,8.56,0,0,1,1.2,4.4,8.06,8.06,0,0,1-1.2,4.4,8.22,8.22,0,0,1-3.3,3.1,9.08,9.08,0,0,1-4.7,1.1A10.18,10.18,0,0,1,314.81,471.82Zm7.4-3a5.75,5.75,0,0,0,1.9-1.9,6,6,0,0,0,0-5.6,5.75,5.75,0,0,0-1.9-1.9,5.56,5.56,0,0,0-5.4,0,5.75,5.75,0,0,0-1.9,1.9,6,6,0,0,0,0,5.6,5.75,5.75,0,0,0,1.9,1.9,5,5,0,0,0,2.7.7A4.53,4.53,0,0,0,322.21,468.82Z" fill="url(#GradientFill_22-28)"/><path d="M342.41,472.62l-3.2-4.7h-3.6v4.7h-3.9v-16.8H339a8,8,0,0,1,3.9.8,6.07,6.07,0,0,1,2.6,2.1,6.14,6.14,0,0,1,0,6.4,5.53,5.53,0,0,1-2.6,2.1l3.8,5.4Zm-1-12.9a4.14,4.14,0,0,0-2.7-.8h-3.1v5.9h3.2a3.8,3.8,0,0,0,2.7-.8,2.66,2.66,0,0,0,.9-2.2A3,3,0,0,0,341.41,459.72Z" fill="url(#GradientFill_22-29)"/><path d="M364.71,472.62v-10.1l-5,8.3H358l-5-8.1v9.9h-3.7v-16.8h3.2l6.3,10.4,6.2-10.4h3.2l.1,16.8Z" fill="url(#GradientFill_22-30)"/><path d="M223.71,498.32v3.2H211v-2.6l6.5-6.2a8.76,8.76,0,0,0,1.4-1.7,4.29,4.29,0,0,0,.4-1.4,1.86,1.86,0,0,0-.7-1.6,3,3,0,0,0-2-.5,4.23,4.23,0,0,0-2,.5,3.74,3.74,0,0,0-1.5,1.3l-2.9-1.8a7.54,7.54,0,0,1,2.7-2.3,9.83,9.83,0,0,1,4-.8,8.45,8.45,0,0,1,3.3.6,5.43,5.43,0,0,1,2.2,1.7,5,5,0,0,1,.8,2.6,5.83,5.83,0,0,1-.6,2.6,8.67,8.67,0,0,1-2.3,2.7l-3.9,3.7h7.3Z" fill="url(#GradientFill_22-31)"/><path d="M228.81,500.72a7,7,0,0,1-2.6-3,12.72,12.72,0,0,1,0-9.4,7,7,0,0,1,2.6-3,6.8,6.8,0,0,1,3.8-1.1,7.3,7.3,0,0,1,3.8,1.1,7,7,0,0,1,2.6,3,12.72,12.72,0,0,1,0,9.4,7,7,0,0,1-2.6,3,6.8,6.8,0,0,1-3.8,1.1A7.4,7.4,0,0,1,228.81,500.72Zm6.1-3.6a7.56,7.56,0,0,0,.9-4.1,7.33,7.33,0,0,0-.9-4.1,2.76,2.76,0,0,0-4.8,0,7.56,7.56,0,0,0-.9,4.1,7.33,7.33,0,0,0,.9,4.1,2.81,2.81,0,0,0,2.4,1.4A3,3,0,0,0,234.91,497.12Z" fill="url(#GradientFill_22-32)"/><path d="M247.91,484.62v16.8H244v-13.7h-3.4v-3.2h7.3Z" fill="url(#GradientFill_22-33)"/><path d="M261.91,491.52a6.25,6.25,0,0,1,2.1,1.8,5.12,5.12,0,0,1,.8,2.8,5.47,5.47,0,0,1-.8,2.9,6.42,6.42,0,0,1-2.3,2,6.83,6.83,0,0,1-3.2.7,7.69,7.69,0,0,1-5.6-2.2c-1.4-1.4-2-3.5-2-6.2a10.73,10.73,0,0,1,1.1-4.9,7.49,7.49,0,0,1,3-3.1,9.36,9.36,0,0,1,4.5-1.1,11.53,11.53,0,0,1,2.6.3,10.23,10.23,0,0,1,2.1.8l-1.4,2.9a6.06,6.06,0,0,0-3.2-.8,4.76,4.76,0,0,0-3.4,1.3,5.41,5.41,0,0,0-1.4,3.6,5.59,5.59,0,0,1,4.1-1.5A7,7,0,0,1,261.91,491.52Zm-1.7,6.6a2.5,2.5,0,0,0,.8-1.8,2.06,2.06,0,0,0-.8-1.8,2.82,2.82,0,0,0-2.1-.7,3,3,0,0,0-2.1.7,2.5,2.5,0,0,0-.8,1.8,2.34,2.34,0,0,0,.8,1.8,3.61,3.61,0,0,0,2.2.7A2.72,2.72,0,0,0,260.21,498.12Z" fill="url(#GradientFill_22-34)"/><path d="M266.81,491.42h6.8v3h-6.8Z" fill="url(#GradientFill_22-35)"/><path d="M287.81,498.32v3.2h-12.7v-2.6l6.5-6.2A8.76,8.76,0,0,0,283,491a4.29,4.29,0,0,0,.4-1.4,1.86,1.86,0,0,0-.7-1.6,3,3,0,0,0-2-.5,4.23,4.23,0,0,0-2,.5,3.74,3.74,0,0,0-1.5,1.3l-2.9-1.8a7.54,7.54,0,0,1,2.7-2.3,9.83,9.83,0,0,1,4-.8,8.45,8.45,0,0,1,3.3.6,5.43,5.43,0,0,1,2.2,1.7,5,5,0,0,1,.8,2.6,5.83,5.83,0,0,1-.6,2.6,8.67,8.67,0,0,1-2.3,2.7l-3.9,3.7h7.3Z" fill="url(#GradientFill_22-36)"/><path d="M292.81,500.72a7,7,0,0,1-2.6-3,12.72,12.72,0,0,1,0-9.4,7,7,0,0,1,2.6-3,6.8,6.8,0,0,1,3.8-1.1,7,7,0,0,1,3.8,1.1,7,7,0,0,1,2.6,3,12.72,12.72,0,0,1,0,9.4,7,7,0,0,1-2.6,3,6.8,6.8,0,0,1-3.8,1.1A7,7,0,0,1,292.81,500.72Zm6.2-3.6a7.56,7.56,0,0,0,.9-4.1,7.33,7.33,0,0,0-.9-4.1,2.76,2.76,0,0,0-4.8,0,7.56,7.56,0,0,0-.9,4.1,7.33,7.33,0,0,0,.9,4.1,2.81,2.81,0,0,0,2.4,1.4A3,3,0,0,0,299,497.12Z" fill="url(#GradientFill_22-37)"/><path d="M312,484.62v16.8h-3.9v-13.7h-3.3v-3.2H312Z" fill="url(#GradientFill_22-38)"/><path d="M328.41,494.22a3.69,3.69,0,0,1,.7,2.3,4,4,0,0,1-.9,2.7,5.24,5.24,0,0,1-2.5,1.8,8.94,8.94,0,0,1-3.8.6,10.25,10.25,0,0,1-3.7-.6,7,7,0,0,1-2.5-1.8,4.19,4.19,0,0,1-.9-2.7,3.51,3.51,0,0,1,.7-2.3,6.27,6.27,0,0,1,1.9-1.7,4.66,4.66,0,0,1-1.4-1.4,4.23,4.23,0,0,1-.5-2,4.7,4.7,0,0,1,.8-2.6,4.51,4.51,0,0,1,2.3-1.7,9.93,9.93,0,0,1,6.8,0,5.77,5.77,0,0,1,2.3,1.7,4.7,4.7,0,0,1,.8,2.6,4.23,4.23,0,0,1-.5,2,2.94,2.94,0,0,1-1.5,1.4A6.27,6.27,0,0,1,328.41,494.22Zm-4.2,4a2.17,2.17,0,0,0,.8-1.8,1.88,1.88,0,0,0-.8-1.7,3.51,3.51,0,0,0-2.3-.7,3.33,3.33,0,0,0-2.3.7,2.11,2.11,0,0,0-.8,1.7,2.2,2.2,0,0,0,.8,1.8,3.93,3.93,0,0,0,2.3.7A3.7,3.7,0,0,0,324.21,498.22Zm-4.2-10.4a1.86,1.86,0,0,0-.7,1.6,1.68,1.68,0,0,0,.7,1.5,2.85,2.85,0,0,0,1.9.5,4.23,4.23,0,0,0,2-.5,1.9,1.9,0,0,0,.8-1.5,1.72,1.72,0,0,0-.8-1.6,3,3,0,0,0-2-.6A3.08,3.08,0,0,0,320,487.82Z" fill="url(#GradientFill_22-39)"/><path d="M163.91,531.82h1.6v3.6a3.37,3.37,0,0,1-1.7.8,6.45,6.45,0,0,1-2,.3,5.42,5.42,0,0,1-2.5-.6,3.51,3.51,0,0,1-1.7-1.7,3.92,3.92,0,0,1-.6-2.4,4.75,4.75,0,0,1,.6-2.4,4.6,4.6,0,0,1,4.3-2.3,7.12,7.12,0,0,1,2.1.4,4.19,4.19,0,0,1,1.6,1.1l-1.1,1.1a3.41,3.41,0,0,0-2.5-1.1,3.34,3.34,0,0,0-2.9,1.5,3.37,3.37,0,0,0-.5,1.7,3.69,3.69,0,0,0,.5,1.7,2.54,2.54,0,0,0,1.2,1.1,4.8,4.8,0,0,0,1.7.5,4.14,4.14,0,0,0,1.9-.5v-2.8Z" fill="url(#GradientFill_22-40)"/><path d="M167.71,527.32h1.7V535h4.7v1.4h-6.5l.1-9.1Z" fill="url(#GradientFill_22-41)"/><path d="M177,535.92a3.51,3.51,0,0,1-1.7-1.7,4.1,4.1,0,0,1-.6-2.4,4.75,4.75,0,0,1,.6-2.4,4.61,4.61,0,0,1,1.7-1.7,5.51,5.51,0,0,1,5,0,3.51,3.51,0,0,1,1.7,1.7,3.92,3.92,0,0,1,.6,2.4,4.75,4.75,0,0,1-.6,2.4,5.51,5.51,0,0,1-1.7,1.7,5.42,5.42,0,0,1-2.5.6A4.42,4.42,0,0,1,177,535.92Zm4.2-1.3a2.89,2.89,0,0,0,1.1-1.1,4.8,4.8,0,0,0,.5-1.7,3.69,3.69,0,0,0-.5-1.7,2.89,2.89,0,0,0-1.1-1.1,4.71,4.71,0,0,0-1.7-.4,5.26,5.26,0,0,0-1.7.4,2.89,2.89,0,0,0-1.1,1.1,4.8,4.8,0,0,0-.5,1.7,3.69,3.69,0,0,0,.5,1.7,2.33,2.33,0,0,0,1.1,1.1,3.29,3.29,0,0,0,1.7.4A3.06,3.06,0,0,0,181.21,534.62Z" fill="url(#GradientFill_22-42)"/><path d="M193.91,532.52a2.39,2.39,0,0,1,.5,1.4,2,2,0,0,1-.9,1.8,4,4,0,0,1-2.6.7h-4.5v-9.1h4.3a4.4,4.4,0,0,1,2.5.6,2.09,2.09,0,0,1,.9,1.7,2.38,2.38,0,0,1-.3,1.2,2,2,0,0,1-.8.8C193.21,531.92,193.61,532.12,193.91,532.52Zm-6-3.9v2.5h2.4a2.65,2.65,0,0,0,1.4-.3,1.05,1.05,0,0,0,.5-.9,1.1,1.1,0,0,0-.5-1,2.65,2.65,0,0,0-1.4-.3Zm4.7,5.1c0-.9-.7-1.3-2-1.3h-2.7V535h2.7C192,535.12,192.61,534.62,192.61,533.72Z" fill="url(#GradientFill_22-43)"/><path d="M202,534.32h-4.6l-.9,2.1h-1.7l4.1-9.1h1.7l4.1,9.1h-1.8Zm-.5-1.3-1.7-4-1.7,4Z" fill="url(#GradientFill_22-44)"/><path d="M205.81,527.32h1.7V535h4.7v1.4h-6.5l.1-9.1Z" fill="url(#GradientFill_22-45)"/><path d="M218.91,528.72v2.8h4.4v1.4h-4.4v3.5h-1.7v-9.1h6.6v1.4Z" fill="url(#GradientFill_22-46)"/><path d="M225.51,527.32h1.7v9.1h-1.7Z" fill="url(#GradientFill_22-47)"/><path d="M237.71,527.32v9.1h-1.4l-5-6.2v6.2h-1.6v-9.1h1.4l5,6.2v-6.2Z" fill="url(#GradientFill_22-48)"/><path d="M246.11,534.32h-4.6l-.9,2.1h-1.7l4.1-9.1h1.7l4.1,9.1H247Zm-.6-1.3-1.7-4-1.7,4Z" fill="url(#GradientFill_22-49)"/><path d="M258,527.32v9.1h-1.4l-5-6.2v6.2H250v-9.1h1.4l5,6.2v-6.2Z" fill="url(#GradientFill_22-50)"/><path d="M262.21,535.92a3.51,3.51,0,0,1-1.7-1.7,3.92,3.92,0,0,1-.6-2.4,4.75,4.75,0,0,1,.6-2.4,5.51,5.51,0,0,1,1.7-1.7,5.42,5.42,0,0,1,2.5-.6,5.92,5.92,0,0,1,2,.4,4.19,4.19,0,0,1,1.6,1.1l-1.1,1.1a3.36,3.36,0,0,0-2.4-1.1,4.71,4.71,0,0,0-1.7.4,2.35,2.35,0,0,0-1.1,1.1,3.14,3.14,0,0,0,0,3.4,2.89,2.89,0,0,0,1.1,1.1,4.71,4.71,0,0,0,1.7.4,3,3,0,0,0,2.4-1.1l1.1,1.1a4.19,4.19,0,0,1-1.6,1.1,6.47,6.47,0,0,1-2,.4A4.06,4.06,0,0,1,262.21,535.92Z" fill="url(#GradientFill_22-51)"/><path d="M269.91,527.32h1.7v9.1h-1.7Z" fill="url(#GradientFill_22-52)"/><path d="M279.91,534.32h-4.6l-.9,2.1h-1.7l4.1-9.1h1.7l4.1,9.1h-1.8Zm-.5-1.3-1.7-4-1.7,4Z" fill="url(#GradientFill_22-53)"/><path d="M283.71,527.32h1.7V535h4.7v1.4h-6.4v-9.1Z" fill="url(#GradientFill_22-54)"/><path d="M301.11,536.42l-1.9-2.6h-2.4v2.6h-1.7v-9.1h3.8a5.44,5.44,0,0,1,2,.4,2.59,2.59,0,0,1,1.4,1.1,3.37,3.37,0,0,1,.5,1.7,3.45,3.45,0,0,1-.5,1.8,3.14,3.14,0,0,1-1.4,1.1l2.1,3Zm-.6-7.2a2.86,2.86,0,0,0-1.7-.5h-2v3.6h2a2.65,2.65,0,0,0,1.7-.5,1.68,1.68,0,0,0,.6-1.4A1.31,1.31,0,0,0,300.51,529.22Z" fill="url(#GradientFill_22-55)"/><path d="M311.51,535v1.4h-6.9v-9.1h6.6v1.4h-5V531h4.4v1.4h-4.4v2.5h5.3Z" fill="url(#GradientFill_22-56)"/><path d="M319.51,531.82h1.6v3.6a3.37,3.37,0,0,1-1.7.8,6.45,6.45,0,0,1-2,.3,5.42,5.42,0,0,1-2.5-.6,3.51,3.51,0,0,1-1.7-1.7,3.92,3.92,0,0,1-.6-2.4,4.75,4.75,0,0,1,.6-2.4,4.6,4.6,0,0,1,4.3-2.3,7.12,7.12,0,0,1,2.1.4,4.19,4.19,0,0,1,1.6,1.1l-1.1,1.1a3.41,3.41,0,0,0-2.5-1.1,3.34,3.34,0,0,0-2.9,1.5,3.37,3.37,0,0,0-.5,1.7,3.69,3.69,0,0,0,.5,1.7,2.54,2.54,0,0,0,1.2,1.1,4.8,4.8,0,0,0,1.7.5,3.83,3.83,0,0,0,1.9-.5v-2.8Z" fill="url(#GradientFill_22-57)"/><path d="M324.31,535.52a4.08,4.08,0,0,1-1.1-3v-5.1h1.7v5c0,1.8.8,2.7,2.3,2.7s2.3-.9,2.3-2.7v-5h1.7v5.1a3.92,3.92,0,0,1-1.1,3,4,4,0,0,1-2.9,1.1A5.07,5.07,0,0,1,324.31,535.52Z" fill="url(#GradientFill_22-58)"/><path d="M333.61,527.32h1.7V535H340v1.4h-6.5l.1-9.1Z" fill="url(#GradientFill_22-59)"/><path d="M347.31,534.32h-4.6l-.9,2.1h-1.7l4.1-9.1h1.7l4.1,9.1h-1.8Zm-.5-1.3-1.7-4-1.7,4Z" fill="url(#GradientFill_22-60)"/><path d="M352.61,528.72h-3v-1.4h7.7v1.4h-3v7.7h-1.7v-7.7Z" fill="url(#GradientFill_22-61)"/><path d="M360.11,535.92a3.51,3.51,0,0,1-1.7-1.7,4.1,4.1,0,0,1-.6-2.4,4.75,4.75,0,0,1,.6-2.4,4.61,4.61,0,0,1,1.7-1.7,5.51,5.51,0,0,1,5,0,3.51,3.51,0,0,1,1.7,1.7,5.1,5.1,0,0,1,0,4.8,5.51,5.51,0,0,1-1.7,1.7,5.14,5.14,0,0,1-2.5.6A4.42,4.42,0,0,1,360.11,535.92Zm4.2-1.3a2.89,2.89,0,0,0,1.1-1.1,3.37,3.37,0,0,0,.5-1.7,3.69,3.69,0,0,0-.5-1.7,2.89,2.89,0,0,0-1.1-1.1,3.29,3.29,0,0,0-1.7-.4,5.26,5.26,0,0,0-1.7.4,2.89,2.89,0,0,0-1.1,1.1,4.8,4.8,0,0,0-.5,1.7,3.69,3.69,0,0,0,.5,1.7,2.33,2.33,0,0,0,1.1,1.1,3.81,3.81,0,0,0,3.4,0Z" fill="url(#GradientFill_22-62)"/><path d="M375.31,536.42l-1.9-2.6H371v2.6h-1.7v-9.1h3.8a5.44,5.44,0,0,1,2,.4,2.59,2.59,0,0,1,1.4,1.1,3.37,3.37,0,0,1,.5,1.7,3.45,3.45,0,0,1-.5,1.8,3.14,3.14,0,0,1-1.4,1.1l2.1,3Zm-.6-7.2a2.86,2.86,0,0,0-1.7-.5h-2v3.6h2a2.65,2.65,0,0,0,1.7-.5,1.68,1.68,0,0,0,.6-1.4A1.31,1.31,0,0,0,374.71,529.22Z" fill="url(#GradientFill_22-63)"/><path d="M382.61,533.22v3.2h-1.7v-3.2l-3.6-5.9h1.8l2.6,4.4,2.7-4.4h1.7Z" fill="url(#GradientFill_22-64)"/><path d="M215.71,551.82a4.77,4.77,0,0,1-1.6-.8l.6-1.3a8.7,8.7,0,0,0,1.4.8,4.67,4.67,0,0,0,1.7.3,2.81,2.81,0,0,0,1.5-.3,1,1,0,0,0,.5-.8,1.08,1.08,0,0,0-.3-.7,2.51,2.51,0,0,0-.7-.4,10.38,10.38,0,0,0-1.2-.3,12.2,12.2,0,0,1-1.7-.5,4.44,4.44,0,0,1-1.1-.8,2,2,0,0,1-.5-1.4,3.26,3.26,0,0,1,.4-1.4,2.41,2.41,0,0,1,1.2-1,5.44,5.44,0,0,1,2-.4,11.14,11.14,0,0,1,1.7.2c.5.2,1,.4,1.4.6l-.5,1.3a5,5,0,0,0-1.3-.5,3,3,0,0,0-1.3-.2,4.91,4.91,0,0,0-1.5.3,1.05,1.05,0,0,0-.5.9.71.71,0,0,0,.3.6,2.51,2.51,0,0,0,.7.4,6.81,6.81,0,0,0,1.2.3c.7.2,1.2.3,1.7.5a3.13,3.13,0,0,1,1.1.8,2.17,2.17,0,0,1,.5,1.4,3.26,3.26,0,0,1-.4,1.4,2.29,2.29,0,0,1-1.3,1,5.44,5.44,0,0,1-2,.4A14.16,14.16,0,0,1,215.71,551.82Z" fill="url(#GradientFill_22-65)"/><path d="M226.81,548.82V552h-1.7v-3.2l-3.6-5.9h1.8l2.6,4.4,2.7-4.4h1.7Z" fill="url(#GradientFill_22-66)"/><path d="M232.11,551.82a4.77,4.77,0,0,1-1.6-.8l.6-1.3a8.7,8.7,0,0,0,1.4.8,3.42,3.42,0,0,0,1.7.3,2.81,2.81,0,0,0,1.5-.3,1,1,0,0,0,.5-.8,1.08,1.08,0,0,0-.3-.7,2.51,2.51,0,0,0-.7-.4,10.38,10.38,0,0,0-1.2-.3,12.2,12.2,0,0,1-1.7-.5,4.44,4.44,0,0,1-1.1-.8,2,2,0,0,1-.5-1.4,3.26,3.26,0,0,1,.4-1.4,2.41,2.41,0,0,1,1.2-1,5.44,5.44,0,0,1,2-.4,11.14,11.14,0,0,1,1.7.2c.5.2,1,.4,1.4.6l-.5,1.3a5,5,0,0,0-1.3-.5,3,3,0,0,0-1.3-.2,4.91,4.91,0,0,0-1.5.3,1.05,1.05,0,0,0-.5.9.71.71,0,0,0,.3.6,2.51,2.51,0,0,0,.7.4,6.81,6.81,0,0,0,1.2.3c.7.2,1.2.3,1.7.5a3.13,3.13,0,0,1,1.1.8,2.17,2.17,0,0,1,.5,1.4,3.26,3.26,0,0,1-.4,1.4,2.29,2.29,0,0,1-1.3,1,5.44,5.44,0,0,1-2,.4A11.8,11.8,0,0,1,232.11,551.82Z" fill="url(#GradientFill_22-67)"/><path d="M241.21,544.32h-3v-1.4h7.7v1.4h-3V552h-1.7v-7.7Z" fill="url(#GradientFill_22-68)"/><path d="M254,550.62V552h-6.8v-9.1h6.6v1.4h-5v2.3h4.4V548h-4.4v2.5l5.2.1Z" fill="url(#GradientFill_22-69)"/><path d="M264.21,552v-6l-3,5h-.8l-3-4.9V552h-1.6v-9.1h1.4l3.6,6,3.5-6h1.4V552Z" fill="url(#GradientFill_22-70)"/><path d="M277.71,549.92h-4.5l-.9,2.1h-1.7l4.1-9.1h1.7l4.1,9.1h-1.9Zm-.5-1.4-1.7-4-1.7,4Z" fill="url(#GradientFill_22-71)"/><path d="M294.41,542.92l-3,9.1h-1.8l-2.3-6.8L285,552h-1.8l-3-9.1h1.7l2.3,6.9,2.3-6.9h1.6l2.3,7,2.3-7Z" fill="url(#GradientFill_22-72)"/><path d="M301.41,549.92h-4.6l-.9,2.1h-1.7l4.1-9.1H300l4.1,9.1h-1.8Zm-.6-1.4-1.7-4-1.7,4Z" fill="url(#GradientFill_22-73)"/><path d="M311.21,552l-1.9-2.6h-2.4V552h-1.7v-9.1H309a5.44,5.44,0,0,1,2,.4,2.59,2.59,0,0,1,1.4,1.1,3.37,3.37,0,0,1,.5,1.7,3.45,3.45,0,0,1-.5,1.8A3.14,3.14,0,0,1,311,549l2.1,3Zm-.6-7.2a2.86,2.86,0,0,0-1.7-.5h-2v3.6h2a2.65,2.65,0,0,0,1.7-.5,1.68,1.68,0,0,0,.6-1.4A1.56,1.56,0,0,0,310.61,544.82Z" fill="url(#GradientFill_22-74)"/><path d="M314.71,542.92h4a5.54,5.54,0,0,1,2.6.6,3.33,3.33,0,0,1,1.7,1.6,3.92,3.92,0,0,1,.6,2.4,4.75,4.75,0,0,1-.6,2.4,5.17,5.17,0,0,1-1.7,1.6,5.83,5.83,0,0,1-2.6.6h-4Zm3.9,7.7a3.87,3.87,0,0,0,1.7-.4,2.54,2.54,0,0,0,1.2-1.1,3.29,3.29,0,0,0,.4-1.7,4.71,4.71,0,0,0-.4-1.7,3.18,3.18,0,0,0-1.2-1.1,4.71,4.71,0,0,0-1.7-.4h-2.2v6.2l2.2.2Z" fill="url(#GradientFill_22-75)"/><path d="M326.31,551.82a4.77,4.77,0,0,1-1.6-.8l.6-1.3a8.7,8.7,0,0,0,1.4.8,3.42,3.42,0,0,0,1.7.3,2.81,2.81,0,0,0,1.5-.3,1,1,0,0,0,.5-.8,1.08,1.08,0,0,0-.3-.7,2.51,2.51,0,0,0-.7-.4,10.38,10.38,0,0,0-1.2-.3,12.2,12.2,0,0,1-1.7-.5,3.13,3.13,0,0,1-1.1-.8,2.17,2.17,0,0,1-.5-1.4,3.26,3.26,0,0,1,.4-1.4,2.41,2.41,0,0,1,1.2-1,5.44,5.44,0,0,1,2-.4,11.14,11.14,0,0,1,1.7.2c.5.2,1,.4,1.4.6l-.5,1.3a5,5,0,0,0-1.3-.5,3,3,0,0,0-1.3-.2,4.91,4.91,0,0,0-1.5.3,1.05,1.05,0,0,0-.5.9.71.71,0,0,0,.3.6,2.51,2.51,0,0,0,.7.4,6.81,6.81,0,0,0,1.2.3c.7.2,1.2.3,1.7.5a3.13,3.13,0,0,1,1.1.8,2.17,2.17,0,0,1,.5,1.4,3.26,3.26,0,0,1-.4,1.4,2.29,2.29,0,0,1-1.3,1,5.44,5.44,0,0,1-2,.4A10.08,10.08,0,0,1,326.31,551.82Z" fill="url(#GradientFill_22-76)"/></g><polygon points="160.74 144.03 167.59 159.53 184.43 157.68 174.4 171.34 184.43 185.04 167.59 183.19 160.74 198.7 153.93 183.19 137.08 185.04 147.08 171.34 137.08 157.68 153.93 159.53 160.74 144.03" fill="url(#GradientFill_3)"/><polygon points="231.81 197.64 238.66 213.15 255.51 211.3 245.47 224.96 255.51 238.66 238.66 236.81 231.81 252.31 225 236.81 208.16 238.66 218.16 224.96 208.16 211.3 225 213.15 231.81 197.64" fill="url(#GradientFill_3-2)"/><polygon points="273.73 53.47 288.1 86.01 323.44 82.13 302.38 110.78 323.44 139.52 288.1 135.64 273.73 168.18 259.44 135.64 224.09 139.52 245.07 110.78 224.09 82.13 259.44 86.01 273.73 53.47" fill="url(#GradientFill_3-3)"/><polygon points="305.06 197.64 311.91 213.15 328.76 211.3 318.72 224.96 328.76 238.66 311.91 236.81 305.06 252.31 298.25 236.81 281.41 238.66 291.4 224.96 281.41 211.3 298.25 213.15 305.06 197.64" fill="url(#GradientFill_3-4)"/><polygon points="370.59 144.03 377.44 159.53 394.28 157.68 384.25 171.34 394.28 185.04 377.44 183.19 370.59 198.7 363.78 183.19 346.94 185.04 356.93 171.34 346.94 157.68 363.78 159.53 370.59 144.03" fill="url(#GradientFill_3-5)"/></g></svg>