<svg id="Layer_1" data-name="Layer 1" xmlns="http://www.w3.org/2000/svg" xmlns:xlink="http://www.w3.org/1999/xlink" viewBox="0 0 539 567"><defs><linearGradient id="GradientFill_3" x1="245.64" y1="85.4" x2="287.12" y2="85.4" gradientUnits="userSpaceOnUse"><stop offset="0" stop-color="#dfab4a"/><stop offset="0.15" stop-color="#feeba7"/><stop offset="0.35" stop-color="#ddb05d"/><stop offset="0.45" stop-color="#fadd85"/><stop offset="0.72" stop-color="#efc56c"/><stop offset="0.81" stop-color="#efd479"/><stop offset="0.91" stop-color="#f0cf81"/><stop offset="1" stop-color="#e2bc5e"/></linearGradient><linearGradient id="GradientFill_3-2" x1="265.25" y1="177.2" x2="318.29" y2="177.2" xlink:href="#GradientFill_3"/><linearGradient id="GradientFill_3-3" x1="222.14" y1="187.07" x2="263.99" y2="187.07" xlink:href="#GradientFill_3"/><linearGradient id="GradientFill_3-4" x1="229.56" y1="314.82" x2="300.44" y2="314.82" xlink:href="#GradientFill_3"/><linearGradient id="GradientFill_3-5" x1="203.25" y1="370.62" x2="269.45" y2="370.62" xlink:href="#GradientFill_3"/><linearGradient id="GradientFill_3-6" x1="148.39" y1="354.64" x2="213.21" y2="354.64" xlink:href="#GradientFill_3"/><linearGradient id="GradientFill_3-7" x1="105.69" y1="325.32" x2="165.71" y2="325.32" xlink:href="#GradientFill_3"/><linearGradient id="GradientFill_3-8" x1="76.56" y1="287.07" x2="127.86" y2="287.07" xlink:href="#GradientFill_3"/><linearGradient id="GradientFill_3-9" x1="62.89" y1="242.23" x2="101.24" y2="242.23" xlink:href="#GradientFill_3"/><linearGradient id="GradientFill_3-10" x1="65.55" y1="194.5" x2="93.01" y2="194.5" xlink:href="#GradientFill_3"/><linearGradient id="GradientFill_3-11" x1="74.58" y1="143.11" x2="107.9" y2="143.11" xlink:href="#GradientFill_3"/><linearGradient id="GradientFill_3-12" x1="95.52" y1="94.58" x2="139.83" y2="94.58" xlink:href="#GradientFill_3"/><linearGradient id="GradientFill_3-13" x1="270.98" y1="370.62" x2="337.18" y2="370.62" xlink:href="#GradientFill_3"/><linearGradient id="GradientFill_3-14" x1="327.22" y1="354.64" x2="392.04" y2="354.64" xlink:href="#GradientFill_3"/><linearGradient id="GradientFill_3-15" x1="374.59" y1="325.32" x2="434.61" y2="325.32" xlink:href="#GradientFill_3"/><linearGradient id="GradientFill_3-16" x1="412.57" y1="287.07" x2="463.87" y2="287.07" xlink:href="#GradientFill_3"/><linearGradient id="GradientFill_3-17" x1="439.06" y1="242.23" x2="477.41" y2="242.23" xlink:href="#GradientFill_3"/><linearGradient id="GradientFill_3-18" x1="447.42" y1="194.5" x2="474.88" y2="194.5" xlink:href="#GradientFill_3"/><linearGradient id="GradientFill_3-19" x1="432.4" y1="143.11" x2="465.72" y2="143.11" xlink:href="#GradientFill_3"/><linearGradient id="GradientFill_3-20" x1="400.6" y1="94.58" x2="444.91" y2="94.58" xlink:href="#GradientFill_3"/><linearGradient id="GradientFill_22" x1="113.85" y1="427.17" x2="133.25" y2="427.17" gradientUnits="userSpaceOnUse"><stop offset="0" stop-color="#dba73e"/><stop offset="0.16" stop-color="#d89d3a"/><stop offset="0.54" stop-color="#f4f3b8"/><stop offset="0.56" stop-color="#f7ed9a"/><stop offset="0.69" stop-color="#d5b767"/><stop offset="0.85" stop-color="#d0ab5b"/><stop offset="1" stop-color="#e0c77d"/></linearGradient><linearGradient id="GradientFill_22-2" x1="137.05" y1="427.07" x2="153.55" y2="427.07" xlink:href="#GradientFill_22"/><linearGradient id="GradientFill_22-3" x1="155.85" y1="427.22" x2="173.65" y2="427.22" xlink:href="#GradientFill_22"/><linearGradient id="GradientFill_22-4" x1="174.35" y1="427.27" x2="192.95" y2="427.27" xlink:href="#GradientFill_22"/><linearGradient id="GradientFill_22-5" x1="204.15" y1="427.27" x2="209.15" y2="427.27" xlink:href="#GradientFill_22"/><linearGradient id="GradientFill_22-6" x1="214.25" y1="427.27" x2="233.75" y2="427.27" xlink:href="#GradientFill_22"/><linearGradient id="GradientFill_22-7" x1="236.45" y1="427.27" x2="255.05" y2="427.27" xlink:href="#GradientFill_22"/><linearGradient id="GradientFill_22-8" x1="257.05" y1="427.27" x2="276.45" y2="427.27" xlink:href="#GradientFill_22"/><linearGradient id="GradientFill_22-9" x1="281.25" y1="427.27" x2="286.25" y2="427.27" xlink:href="#GradientFill_22"/><linearGradient id="GradientFill_22-10" x1="288.95" y1="427.27" x2="307.55" y2="427.27" xlink:href="#GradientFill_22"/><linearGradient id="GradientFill_22-11" x1="310.15" y1="427.27" x2="315.15" y2="427.27" xlink:href="#GradientFill_22"/><linearGradient id="GradientFill_22-12" x1="317.25" y1="427.27" x2="340.55" y2="427.27" xlink:href="#GradientFill_22"/><linearGradient id="GradientFill_22-13" x1="342.35" y1="427.07" x2="358.85" y2="427.07" xlink:href="#GradientFill_22"/><linearGradient id="GradientFill_22-14" x1="368.65" y1="427.07" x2="392.65" y2="427.07" xlink:href="#GradientFill_22"/><linearGradient id="GradientFill_22-15" x1="394.75" y1="427.17" x2="413.35" y2="427.17" xlink:href="#GradientFill_22"/><linearGradient id="GradientFill_22-16" x1="416.65" y1="427.17" x2="435.35" y2="427.17" xlink:href="#GradientFill_22"/><linearGradient id="GradientFill_22-17" x1="164.25" y1="463.67" x2="180.45" y2="463.67" xlink:href="#GradientFill_22"/><linearGradient id="GradientFill_22-18" x1="182.35" y1="463.87" x2="205.75" y2="463.87" xlink:href="#GradientFill_22"/><linearGradient id="GradientFill_22-19" x1="209.35" y1="463.87" x2="228.35" y2="463.87" xlink:href="#GradientFill_22"/><linearGradient id="GradientFill_22-20" x1="238.05" y1="463.87" x2="256.65" y2="463.87" xlink:href="#GradientFill_22"/><linearGradient id="GradientFill_22-21" x1="259.15" y1="463.87" x2="278.15" y2="463.87" xlink:href="#GradientFill_22"/><linearGradient id="GradientFill_22-22" x1="279.05" y1="463.67" x2="303.05" y2="463.67" xlink:href="#GradientFill_22"/><linearGradient id="GradientFill_22-23" x1="305.05" y1="463.97" x2="326.55" y2="463.97" xlink:href="#GradientFill_22"/><linearGradient id="GradientFill_22-24" x1="330.25" y1="463.87" x2="335.25" y2="463.87" xlink:href="#GradientFill_22"/><linearGradient id="GradientFill_22-25" x1="340.25" y1="463.87" x2="359.85" y2="463.87" xlink:href="#GradientFill_22"/><linearGradient id="GradientFill_22-26" x1="363.55" y1="463.87" x2="384.25" y2="463.87" xlink:href="#GradientFill_22"/><linearGradient id="GradientFill_22-27" x1="238.75" y1="500.22" x2="256.15" y2="500.22" xlink:href="#GradientFill_22"/><linearGradient id="GradientFill_22-28" x1="258.05" y1="500.38" x2="276.45" y2="500.38" xlink:href="#GradientFill_22"/><linearGradient id="GradientFill_22-29" x1="277.55" y1="500.47" x2="286.85" y2="500.47" xlink:href="#GradientFill_22"/><linearGradient id="GradientFill_22-30" x1="290.55" y1="500.52" x2="308.15" y2="500.52" xlink:href="#GradientFill_22"/><linearGradient id="GradientFill_22-31" x1="167.95" y1="541.57" x2="179.25" y2="541.57" xlink:href="#GradientFill_22"/><linearGradient id="GradientFill_22-32" x1="182.05" y1="541.67" x2="183.95" y2="541.67" xlink:href="#GradientFill_22"/><linearGradient id="GradientFill_22-33" x1="186.75" y1="541.67" x2="196.85" y2="541.67" xlink:href="#GradientFill_22"/><linearGradient id="GradientFill_22-34" x1="198.95" y1="541.67" x2="209.05" y2="541.67" xlink:href="#GradientFill_22"/><linearGradient id="GradientFill_22-35" x1="211.15" y1="541.62" x2="218.55" y2="541.62" xlink:href="#GradientFill_22"/><linearGradient id="GradientFill_22-36" x1="220.05" y1="541.67" x2="227.85" y2="541.67" xlink:href="#GradientFill_22"/><linearGradient id="GradientFill_22-37" x1="229.55" y1="541.62" x2="233.65" y2="541.62" xlink:href="#GradientFill_22"/><linearGradient id="GradientFill_22-38" x1="235.95" y1="541.67" x2="243.75" y2="541.67" xlink:href="#GradientFill_22"/><linearGradient id="GradientFill_22-39" x1="244.45" y1="541.57" x2="255.65" y2="541.57" xlink:href="#GradientFill_22"/><linearGradient id="GradientFill_22-40" x1="256.05" y1="541.87" x2="264.25" y2="541.87" xlink:href="#GradientFill_22"/><linearGradient id="GradientFill_22-41" x1="264.75" y1="541.62" x2="273.55" y2="541.62" xlink:href="#GradientFill_22"/><linearGradient id="GradientFill_22-42" x1="277.45" y1="541.77" x2="284.15" y2="541.77" xlink:href="#GradientFill_22"/><linearGradient id="GradientFill_22-43" x1="285.25" y1="541.57" x2="296.45" y2="541.57" xlink:href="#GradientFill_22"/><linearGradient id="GradientFill_22-44" x1="295.75" y1="541.67" x2="306.65" y2="541.67" xlink:href="#GradientFill_22"/><linearGradient id="GradientFill_22-45" x1="306.05" y1="541.57" x2="317.25" y2="541.57" xlink:href="#GradientFill_22"/><linearGradient id="GradientFill_22-46" x1="321.75" y1="541.87" x2="329.95" y2="541.87" xlink:href="#GradientFill_22"/><linearGradient id="GradientFill_22-47" x1="331.85" y1="541.77" x2="341.05" y2="541.77" xlink:href="#GradientFill_22"/><linearGradient id="GradientFill_22-48" x1="343.75" y1="541.67" x2="352.85" y2="541.67" xlink:href="#GradientFill_22"/><linearGradient id="GradientFill_22-49" x1="354.95" y1="541.57" x2="366.25" y2="541.57" xlink:href="#GradientFill_22"/><linearGradient id="GradientFill_22-50" x1="369.05" y1="541.67" x2="370.95" y2="541.67" xlink:href="#GradientFill_22"/><linearGradient id="GradientFill_22-51" x1="372.45" y1="541.62" x2="381.25" y2="541.62" xlink:href="#GradientFill_22"/></defs><title>awrds</title><g id="objects"><polygon points="266.38 65.73 272.79 78.67 287.12 80.81 276.69 90.86 279.2 105.07 266.38 98.28 253.56 105.07 256.07 90.86 245.64 80.81 259.97 78.67 266.38 65.73" fill="url(#GradientFill_3)"/><path d="M266,308.79l-.75-194.17s36.95-2.77,50.27-69c0,0,2.89,78.93,2.76,85.21S266,308.79,266,308.79Z" fill="url(#GradientFill_3-2)"/><path d="M261.35,135.23s-23.25-5-39.21-71c0,0,2.14,81.31,2.39,87.85S264,309.92,264,309.92Z" fill="url(#GradientFill_3-3)"/><polygon points="300.44 319.72 263.74 328.26 229.56 319.72 241.25 301.37 288.25 301.37 300.44 319.72" fill="url(#GradientFill_3-4)"/><path d="M212.72,384.07a56.93,56.93,0,0,1,14.83-8.68c2-.75,3.89-1.5,6-2.13-5.4-2.89-9.3-7.17-13.32-11.69-1.51-1.38-12.7-14.83-12.57-14.83,6.91-1.51,12.94-2.77,20.11-1.51a32,32,0,0,1,12.06,4.9c3.15,2,6.41,4.4,9.93,6.79a28.58,28.58,0,0,0,7.92,4.27,10.65,10.65,0,0,0,8.55-.63,1.63,1.63,0,0,1,1-.37,2,2,0,0,1,.75.75c3.52,6-.12,18-3.51,21.62-9.05,10.18-18.23,14.83-31.42,13.57-11.57-1.26-18.85-1.63-29.66.38-1,.25,2.89-6,3.27-6.54A66.19,66.19,0,0,1,212.72,384.07Z" fill="url(#GradientFill_3-5)"/><path d="M159.43,362.2a47.36,47.36,0,0,1,15.08-3.14c1.89-.13,3.77-.13,5.78-.13-4-4-6.41-8.92-8.92-14.33-1-1.63-7.67-17-7.67-17,6.54.75,12.19,1.51,18.1,4.77a32.18,32.18,0,0,1,9.43,8c2.26,2.64,4.52,5.65,7,8.92a29.11,29.11,0,0,0,5.79,6,9.07,9.07,0,0,0,7.41,1.89,1.36,1.36,0,0,1,1,0c.25.12.37.5.5.88,1.51,6.28-4.4,15.58-8.17,17.72-10.18,6.28-19.1,7.66-30.29,2.89-9.67-4.4-16.08-6.92-26-8.3-.88-.12,4-4.52,4.27-4.77A47.26,47.26,0,0,1,159.43,362.2Z" fill="url(#GradientFill_3-6)"/><path d="M117.2,326.51a44.42,44.42,0,0,1,14.08,1.88c1.76.5,3.39,1,5.15,1.63-2.64-4.9-3.77-10-4.77-15.45-.51-1.76-3.14-17.6-3.14-17.6,5.65,2.77,10.55,5.28,15.2,10.06a35.84,35.84,0,0,1,6.66,10.05c1.39,3.14,2.77,6.41,4.28,10.05a29.57,29.57,0,0,0,3.77,7.17c1.63,2.13,3.77,3.77,6.15,3.89a1.16,1.16,0,0,1,.88.26,2.21,2.21,0,0,1,.25.87c-.12,5.91-7.41,12.32-11.31,13.2C144,355,135.8,353.65,127,345.86c-7.67-6.91-12.7-11.06-21.24-15.46-.76-.37,4.52-2.76,4.9-2.89A37,37,0,0,1,117.2,326.51Z" fill="url(#GradientFill_3-7)"/><path d="M87.67,280.89a50.25,50.25,0,0,1,12.07,6.28c1.38,1,2.76,2,4.14,3.14-1.25-5.28-1.13-10.3-.88-15.58-.12-1.76,1-17.09,1-17.09,4.4,4.39,8.17,8.29,11.31,14.2a40,40,0,0,1,3.77,11.31c.63,3.27,1,6.66,1.63,10.55a38.09,38.09,0,0,0,1.76,7.67,10.25,10.25,0,0,0,4.65,5.53,1.27,1.27,0,0,1,.63.5,1,1,0,0,1,0,.88c-1.38,5.28-9.42,8.67-12.94,8.17-9.81-1.13-16.84-4.9-22.88-14.7-5.27-8.67-8.79-14.2-15.33-20.86-.63-.63,4.53-1,4.9-1A20.33,20.33,0,0,1,87.67,280.89Z" fill="url(#GradientFill_3-8)"/><path d="M72.09,229.11a56.29,56.29,0,0,1,8.92,9.8c1,1.38,2,2.89,2.89,4.27,0-5.27,1.26-9.92,2.77-14.7.25-1.63,4.65-15.58,4.77-15.58,2.64,5.65,5.15,10.55,6.54,17.09a41,41,0,0,1,.75,11.69c-.13,3.26-.5,6.53-.88,10.18a30.2,30.2,0,0,0,0,7.54c.38,2.51,1.26,5,2.89,6.53a1.58,1.58,0,0,1,.5.75.93.93,0,0,1-.25.76c-2.39,4.4-10.18,4.9-13.19,3.27-8.42-4.28-13.58-10.06-16.59-21-2.52-9.8-4.4-16-8.3-24.51-.37-.75,4.15.5,4.4.63A40,40,0,0,1,72.09,229.11Z" fill="url(#GradientFill_3-9)"/><path d="M72.09,175.07a66.23,66.23,0,0,1,4.65,12.44c.5,1.63.88,3.39,1.25,5.15,1.39-5,3.65-8.92,6-13.19.62-1.39,8-13.45,8-13.45.63,6.41,1.26,11.94.75,18.72a53.81,53.81,0,0,1-2.26,11.44c-.88,3-2,6-3.14,9.43a43.43,43.43,0,0,0-1.89,7.16c-.25,2.51-.12,5.15.88,7a1.76,1.76,0,0,1,.26.88.7.7,0,0,1-.38.63c-3,3.26-9.68,1.13-11.94-1.39-6-6.78-9-14-8.67-25.38.37-10.06.63-16.72-.13-26.14-.12-.88,3.14,1.88,3.4,2.13A17.29,17.29,0,0,1,72.09,175.07Z" fill="url(#GradientFill_3-10)"/><path d="M89.05,122.28a107.36,107.36,0,0,1-.75,13.83c-.25,1.76-.38,3.64-.63,5.4a53,53,0,0,1,9.18-10.93c1-1.13,10.93-10.81,11.05-10.81a173.94,173.94,0,0,1-6,19,63.38,63.38,0,0,1-5.4,10.55c-1.64,2.64-3.4,5.28-5.28,8.17a37.85,37.85,0,0,0-3.52,6.29,14.53,14.53,0,0,0-1.26,7.16c0,.25.13.63,0,.88a.94.94,0,0,1-.5.5c-3.39,2.14-8.17-2.26-9.17-5.4-2.89-8.55-3.14-16.46.88-27.65,3.64-9.8,6.15-16.21,9.17-25.76.25-.88,1.63,2.89,1.76,3.14A41.21,41.21,0,0,1,89.05,122.28Z" fill="url(#GradientFill_3-11)"/><path d="M124.62,74.65c-2,4.28-4.65,9-7.29,13.7l-3,5.28a65.72,65.72,0,0,1,11.94-8.42c1.26-.88,13.58-7.92,13.58-7.92-4.91,6.29-8.68,11.82-13.58,17.72a87.57,87.57,0,0,1-8.67,9.18c-2.39,2.13-4.77,4.27-7.29,6.53a51.65,51.65,0,0,0-5.15,5.28,18.69,18.69,0,0,0-3.64,6.79c-.13.25-.13.63-.38.88a.68.68,0,0,1-.5.37c-3.4,1.13-5.53-4.9-5-8.42,1-9.55,4.15-17.47,12.06-27.39,7.29-8.68,12.32-14.46,19.61-23.13.75-.88-.25,3.4-.38,3.77C126.25,70.76,125.5,72.64,124.62,74.65Z" fill="url(#GradientFill_3-12)"/><path d="M327.71,384.07a57.09,57.09,0,0,0-14.83-8.68c-2-.75-3.9-1.5-6-2.13,5.4-2.89,9.3-7.17,13.32-11.69,1.51-1.38,12.69-14.83,12.57-14.83-6.91-1.51-12.95-2.77-20.11-1.51a32,32,0,0,0-12.07,4.9c-3.14,2-6.41,4.4-9.92,6.79a28.58,28.58,0,0,1-7.92,4.27,10.65,10.65,0,0,1-8.55-.63,1.65,1.65,0,0,0-1-.37,2.06,2.06,0,0,0-.76.75c-3.52,6,.13,18,3.52,21.62,9.05,10.18,18.22,14.83,31.42,13.57,11.56-1.26,18.85-1.63,29.66.38,1,.25-2.89-6-3.27-6.54C331.86,388,329.85,386,327.71,384.07Z" fill="url(#GradientFill_3-13)"/><path d="M381,362.2a47.36,47.36,0,0,0-15.08-3.14c-1.89-.13-3.77-.13-5.79-.13,4-4,6.41-8.92,8.93-14.33,1-1.63,7.66-17,7.66-17-6.53.75-12.19,1.51-18.09,4.77a32.18,32.18,0,0,0-9.43,8c-2.26,2.64-4.52,5.65-7,8.92a29.33,29.33,0,0,1-5.78,6A9.07,9.07,0,0,1,329,357.3a1.36,1.36,0,0,0-1,0c-.25.12-.38.5-.5.88-1.51,6.28,4.4,15.58,8.17,17.72,10.18,6.28,19.1,7.66,30.29,2.89,9.67-4.4,16.08-6.92,26-8.3.88-.12-4-4.52-4.27-4.77A55.66,55.66,0,0,0,381,362.2Z" fill="url(#GradientFill_3-14)"/><path d="M423.1,326.51A44.42,44.42,0,0,0,409,328.39c-1.76.5-3.39,1-5.15,1.63,2.64-4.9,3.77-10,4.77-15.45.51-1.76,3.15-17.6,3.15-17.6-5.66,2.77-10.56,5.28-15.21,10.06a35.84,35.84,0,0,0-6.66,10.05c-1.38,3.14-2.77,6.41-4.27,10.05a30.28,30.28,0,0,1-3.77,7.17c-1.64,2.13-3.77,3.77-6.16,3.89a1.17,1.17,0,0,0-.88.26,2.21,2.21,0,0,0-.25.87c.12,5.91,7.41,12.32,11.31,13.2,10.43,2.51,18.6,1.13,27.39-6.66C421,339,426,334.8,434.53,330.4c.76-.37-4.52-2.76-4.9-2.89A36.87,36.87,0,0,0,423.1,326.51Z" fill="url(#GradientFill_3-15)"/><path d="M452.76,280.89a50.25,50.25,0,0,0-12.07,6.28c-1.38,1-2.76,2-4.15,3.14,1.26-5.28,1.14-10.3.88-15.58.13-1.76-1-17.09-1-17.09-4.4,4.39-8.17,8.29-11.31,14.2a39.65,39.65,0,0,0-3.77,11.31c-.63,3.27-1,6.66-1.64,10.55a37.43,37.43,0,0,1-1.76,7.67,10.17,10.17,0,0,1-4.65,5.53,1.24,1.24,0,0,0-.62.5,1,1,0,0,0,0,.88c1.38,5.28,9.42,8.67,12.94,8.17,9.8-1.13,16.84-4.9,22.87-14.7,5.28-8.67,8.8-14.2,15.34-20.86.62-.63-4.53-1-4.91-1A20.32,20.32,0,0,0,452.76,280.89Z" fill="url(#GradientFill_3-16)"/><path d="M468.21,229.11a56.69,56.69,0,0,0-8.92,9.8c-1,1.38-2,2.89-2.89,4.27,0-5.27-1.26-9.92-2.76-14.7-.25-1.63-4.65-15.58-4.78-15.58-2.64,5.65-5.15,10.55-6.53,17.09a41.05,41.05,0,0,0-.76,11.69c.13,3.26.5,6.53.88,10.18a30.2,30.2,0,0,1,0,7.54c-.38,2.51-1.26,5-2.89,6.53a1.58,1.58,0,0,0-.5.75.93.93,0,0,0,.25.76c2.39,4.4,10.18,4.9,13.2,3.27,8.42-4.28,13.57-10.06,16.58-21,2.52-9.8,4.4-16,8.3-24.51.38-.75-4.15.5-4.4.63C471.48,226.85,469.85,227.85,468.21,229.11Z" fill="url(#GradientFill_3-17)"/><path d="M468.34,175.07a66.23,66.23,0,0,0-4.65,12.44c-.5,1.63-.88,3.39-1.26,5.15-1.38-5-3.64-8.92-6-13.19-.63-1.39-8-13.45-8-13.45-.63,6.41-1.26,11.94-.76,18.72a54.44,54.44,0,0,0,2.27,11.44c.88,3,2,6,3.14,9.43a42.45,42.45,0,0,1,1.88,7.16c.25,2.51.13,5.15-.88,7a1.87,1.87,0,0,0-.25.88.7.7,0,0,0,.38.63c3,3.26,9.68,1.13,11.94-1.39,6-6.78,9.05-14,8.67-25.38-.38-10.06-.63-16.72.13-26.14.12-.88-3.15,1.88-3.4,2.13A17.29,17.29,0,0,0,468.34,175.07Z" fill="url(#GradientFill_3-18)"/><path d="M451.25,122.28a107.36,107.36,0,0,0,.75,13.83c.25,1.76.38,3.64.63,5.4a53,53,0,0,0-9.17-10.93c-1-1.13-10.94-10.81-11.06-10.81a173.94,173.94,0,0,0,6,19,63.38,63.38,0,0,0,5.4,10.55c1.64,2.64,3.4,5.28,5.28,8.17a37.85,37.85,0,0,1,3.52,6.29,14.42,14.42,0,0,1,1.26,7.16c0,.25-.13.63,0,.88a.94.94,0,0,0,.5.5c3.39,2.14,8.17-2.26,9.17-5.4,2.9-8.55,3.15-16.46-.87-27.65-3.65-9.8-6.16-16.21-9.18-25.76-.25-.88-1.63,2.89-1.76,3.14C451.63,118.51,451.37,120.27,451.25,122.28Z" fill="url(#GradientFill_3-19)"/><path d="M415.81,74.65c2,4.28,4.65,9,7.29,13.7l3,5.28a65,65,0,0,0-11.94-8.42c-1.25-.88-13.57-7.92-13.57-7.92,4.9,6.29,8.67,11.82,13.57,17.72a88.66,88.66,0,0,0,8.68,9.18l7.29,6.53a53.84,53.84,0,0,1,5.15,5.28,18.84,18.84,0,0,1,3.64,6.79c.13.25.13.63.38.88a.68.68,0,0,0,.5.37c3.4,1.13,5.53-4.9,5-8.42-1-9.55-4.15-17.47-12.07-27.39-7.28-8.68-12.31-14.46-19.6-23.13-.75-.88.25,3.4.38,3.77A29.81,29.81,0,0,0,415.81,74.65Z" fill="url(#GradientFill_3-20)"/></g><g id="objects-2" data-name="objects"><path d="M132.25,428.77a5.38,5.38,0,0,1,1,3.3,5.17,5.17,0,0,1-2.1,4.3,11.29,11.29,0,0,1-6.3,1.5h-11v-21.4h10.4a10.23,10.23,0,0,1,6,1.5,4.52,4.52,0,0,1,2.1,4,4.78,4.78,0,0,1-.8,2.7,4.84,4.84,0,0,1-2.1,1.9A6.89,6.89,0,0,1,132.25,428.77Zm-13.7-8.5v5h4.9a4.91,4.91,0,0,0,2.7-.6,2.46,2.46,0,0,0,0-3.8,4.91,4.91,0,0,0-2.7-.6Zm8.7,13.3a2.12,2.12,0,0,0,1-2q0-2.7-3.9-2.7h-5.7v5.3h5.7A5.46,5.46,0,0,0,127.25,433.57Z" fill="url(#GradientFill_22)"/><path d="M153.55,433.87v3.9h-16.5v-21.4h16.2v3.9h-11.2v4.6h9.8v3.8H142v5l11.6.2Z" fill="url(#GradientFill_22-2)"/><path d="M159.65,437.57a10.32,10.32,0,0,1-3.8-1.8l1.7-3.7a10.15,10.15,0,0,0,3.3,1.6,12.56,12.56,0,0,0,3.8.6,6,6,0,0,0,3.1-.6,1.72,1.72,0,0,0,1-1.6,1.76,1.76,0,0,0-.6-1.3,5.3,5.3,0,0,0-1.5-.8c-.6-.2-1.5-.4-2.5-.7a33.39,33.39,0,0,1-4-1.2,6.36,6.36,0,0,1-2.7-1.9,4.81,4.81,0,0,1-1.1-3.4,5.38,5.38,0,0,1,1-3.3,7.28,7.28,0,0,1,3-2.4,12.42,12.42,0,0,1,5-.9,17.52,17.52,0,0,1,4,.5,10.54,10.54,0,0,1,3.4,1.4l-1.5,3.8a12.07,12.07,0,0,0-5.9-1.7,6.17,6.17,0,0,0-3.1.7,1.9,1.9,0,0,0-1,1.8,1.51,1.51,0,0,0,1.1,1.6,22.56,22.56,0,0,0,3.5,1,33.39,33.39,0,0,1,4,1.2,7.12,7.12,0,0,1,2.7,1.8,4.81,4.81,0,0,1,1.1,3.4,5.58,5.58,0,0,1-1,3.3,7,7,0,0,1-3.1,2.4,12.42,12.42,0,0,1-5,.9A18.69,18.69,0,0,1,159.65,437.57Z" fill="url(#GradientFill_22-3)"/><path d="M181.15,420.57h-6.8v-4H193v4h-6.8V438h-5v-17.4Z" fill="url(#GradientFill_22-4)"/><path d="M204.15,416.57h5V438h-5Z" fill="url(#GradientFill_22-5)"/><path d="M233.75,416.57V438h-4l-10.6-13v13h-4.9v-21.4h4.1l10.6,13v-13Z" fill="url(#GradientFill_22-6)"/><path d="M243.25,420.57h-6.8v-4h18.6v4h-6.8V438h-5v-17.4Z" fill="url(#GradientFill_22-7)"/><path d="M259.65,435.67a9.76,9.76,0,0,1-2.6-7.2v-12h5v11.8q0,5.7,4.8,5.7a4.2,4.2,0,0,0,3.5-1.4c.9-.9,1.2-2.4,1.2-4.4v-11.8h4.9v12c0,3.2-.9,5.6-2.6,7.2a9.68,9.68,0,0,1-7.1,2.6C263.75,438.17,261.35,437.37,259.65,435.67Z" fill="url(#GradientFill_22-8)"/><path d="M281.25,416.57h5V438h-5Z" fill="url(#GradientFill_22-9)"/><path d="M295.75,420.57H289v-4h18.6v4h-6.8V438h-5v-17.4Z" fill="url(#GradientFill_22-10)"/><path d="M310.15,416.57h5V438h-5Z" fill="url(#GradientFill_22-11)"/><path d="M340.55,416.57l-9.2,21.4h-4.9l-9.2-21.4h5.3l6.5,15.2,6.6-15.2Z" fill="url(#GradientFill_22-12)"/><path d="M358.85,433.87v3.9h-16.5v-21.4h16.2v3.9h-11.2v4.6h9.8v3.8h-9.9v5l11.6.2Z" fill="url(#GradientFill_22-13)"/><path d="M385.45,433.27h-9.9l-1.9,4.5h-5l9.5-21.4h4.9l9.6,21.4h-5.2Zm-1.5-3.7-3.4-8.2-3.4,8.2Z" fill="url(#GradientFill_22-14)"/><path d="M409,417.47a7.33,7.33,0,0,1,3.3,2.7,8.19,8.19,0,0,1,0,8.2,6.84,6.84,0,0,1-3.3,2.7,12.42,12.42,0,0,1-5,.9h-4.3v5.9h-4.9v-21.4H404A14.3,14.3,0,0,1,409,417.47Zm-1.8,9.6a3.64,3.64,0,0,0,0-5.4,5.51,5.51,0,0,0-3.4-.9h-4v7.4h4A7.16,7.16,0,0,0,407.15,427.07Z" fill="url(#GradientFill_22-15)"/><path d="M431,417.47a7.33,7.33,0,0,1,3.3,2.7,8.19,8.19,0,0,1,0,8.2,6.84,6.84,0,0,1-3.3,2.7,12.42,12.42,0,0,1-5,.9h-4.3v5.9h-5v-21.4h9.2A14,14,0,0,1,431,417.47Zm-1.8,9.6a3.64,3.64,0,0,0,0-5.4,5.51,5.51,0,0,0-3.4-.9h-4v7.4h4A6.79,6.79,0,0,0,429.15,427.07Z" fill="url(#GradientFill_22-16)"/><path d="M169.25,457.07v5.6h9.9v3.9h-9.9v7.8h-5V453h16.2v3.9l-11.2.2Z" fill="url(#GradientFill_22-17)"/><path d="M188.05,473.37a10.55,10.55,0,0,1-4.2-3.9,11.2,11.2,0,0,1,0-11.2,10.55,10.55,0,0,1,4.2-3.9,13.32,13.32,0,0,1,6-1.5,12.14,12.14,0,0,1,6,1.5,10.55,10.55,0,0,1,4.2,3.9,10.67,10.67,0,0,1,1.5,5.6,10.43,10.43,0,0,1-1.5,5.6,10.55,10.55,0,0,1-4.2,3.9,13.32,13.32,0,0,1-6,1.5A11.62,11.62,0,0,1,188.05,473.37Zm9.4-3.5a6.89,6.89,0,0,0,2.4-2.4,7.26,7.26,0,0,0,0-7,6.15,6.15,0,0,0-2.4-2.4,7.46,7.46,0,0,0-3.4-.9,6.4,6.4,0,0,0-3.4.9,6.89,6.89,0,0,0-2.4,2.4,7.26,7.26,0,0,0,0,7,6.15,6.15,0,0,0,2.4,2.4,6.4,6.4,0,0,0,3.4.9A7.46,7.46,0,0,0,197.45,469.87Z" fill="url(#GradientFill_22-18)"/><path d="M223.05,474.57l-4.1-6h-4.6v6h-5v-21.4h9.2a13.11,13.11,0,0,1,5,.9,7.33,7.33,0,0,1,3.3,2.7,7.22,7.22,0,0,1,1.1,4.1,7,7,0,0,1-1.1,4.1,8,8,0,0,1-3.3,2.7l4.8,6.8-5.3.1Zm-1.3-16.5a5.51,5.51,0,0,0-3.4-.9h-4v7.4h4a5.31,5.31,0,0,0,3.4-.9A3.16,3.16,0,0,0,223,461,3.7,3.7,0,0,0,221.75,458.07Z" fill="url(#GradientFill_22-19)"/><path d="M244.85,457.17h-6.8v-4h18.6v4h-6.8v17.4h-5v-17.4Z" fill="url(#GradientFill_22-20)"/><path d="M272.85,474.57l-4.1-6h-4.6v6h-5v-21.4h9.2a13.11,13.11,0,0,1,5,.9,7.33,7.33,0,0,1,3.3,2.7,7.22,7.22,0,0,1,1.1,4.1,7,7,0,0,1-1.1,4.1,8,8,0,0,1-3.3,2.7l4.8,6.8-5.3.1Zm-1.2-16.5a5.51,5.51,0,0,0-3.4-.9h-4v7.4h4a5.31,5.31,0,0,0,3.4-.9,3.16,3.16,0,0,0,1.2-2.7A3.7,3.7,0,0,0,271.65,458.07Z" fill="url(#GradientFill_22-21)"/><path d="M295.85,469.87H286l-1.9,4.5h-5l9.5-21.4h4.9l9.6,21.4h-5.2Zm-1.7-3.7-3.4-8.2-3.4,8.2Z" fill="url(#GradientFill_22-22)"/><path d="M305.05,453.17h9.7a12.6,12.6,0,0,1,6.2,1.4,8.91,8.91,0,0,1,4.1,3.8,11.2,11.2,0,0,1,0,11.2,11.54,11.54,0,0,1-4.1,3.8,13.49,13.49,0,0,1-6.2,1.4h-9.7Zm9.5,17.3a7.22,7.22,0,0,0,5.1-1.8,7.27,7.27,0,0,0,0-9.8,7.22,7.22,0,0,0-5.1-1.8h-4.5v13.3l4.5.1Z" fill="url(#GradientFill_22-23)"/><path d="M330.25,453.17h5v21.4h-5Z" fill="url(#GradientFill_22-24)"/><path d="M359.85,453.17v21.4h-4l-10.7-13v13h-4.9v-21.4h4.1l10.6,13v-13Z" fill="url(#GradientFill_22-25)"/><path d="M379.35,463.47h4.5v8.6a16.86,16.86,0,0,1-4,2.1,14.69,14.69,0,0,1-4.6.7,12.14,12.14,0,0,1-6-1.5,9.9,9.9,0,0,1-4.2-3.9,10.93,10.93,0,0,1-1.5-5.6,10.43,10.43,0,0,1,1.5-5.6,10.55,10.55,0,0,1,4.2-3.9,13.41,13.41,0,0,1,6.1-1.5,13.64,13.64,0,0,1,5.1.9,9.45,9.45,0,0,1,3.8,2.7l-3.2,2.9a7.26,7.26,0,0,0-5.6-2.4,6.87,6.87,0,0,0-3.6.9,7.18,7.18,0,0,0-2.5,2.4,6.87,6.87,0,0,0-.9,3.6,6.76,6.76,0,0,0,.9,3.5,5.8,5.8,0,0,0,2.5,2.4,6.87,6.87,0,0,0,3.6.9,7.63,7.63,0,0,0,3.8-.9l.1-6.3Z" fill="url(#GradientFill_22-26)"/><path d="M256.15,507.07v4H240v-3.2l8.2-7.8A9.57,9.57,0,0,0,250,498a3.92,3.92,0,0,0,.4-1.8,2.38,2.38,0,0,0-.9-2,4.73,4.73,0,0,0-2.6-.7,7.51,7.51,0,0,0-2.6.5,4.21,4.21,0,0,0-1.9,1.6l-3.6-2.3a8.67,8.67,0,0,1,3.4-2.9,11.76,11.76,0,0,1,5-1,10.84,10.84,0,0,1,4.2.8,6,6,0,0,1,2.7,2.2,6.11,6.11,0,0,1,1,3.3,7.64,7.64,0,0,1-.8,3.3,17.61,17.61,0,0,1-2.8,3.5l-4.9,4.6Z" fill="url(#GradientFill_22-27)"/><path d="M262.55,510.07a8.81,8.81,0,0,1-3.3-3.8,15.1,15.1,0,0,1,0-11.8,9.43,9.43,0,0,1,3.3-3.8,8.54,8.54,0,0,1,4.7-1.3,8.32,8.32,0,0,1,4.7,1.3,8.81,8.81,0,0,1,3.3,3.8,15.1,15.1,0,0,1,0,11.8,9.43,9.43,0,0,1-3.3,3.8,8.54,8.54,0,0,1-4.7,1.3A7,7,0,0,1,262.55,510.07Zm7.8-4.5c.8-1.1,1.1-2.8,1.1-5.2s-.3-4.1-1.1-5.2a3.68,3.68,0,0,0-3.1-1.7,3.4,3.4,0,0,0-3,1.7c-.8,1.1-1.1,2.8-1.1,5.2s.3,4.1,1.1,5.2a3.52,3.52,0,0,0,3,1.7A3.68,3.68,0,0,0,270.35,505.57Z" fill="url(#GradientFill_22-28)"/><path d="M286.85,489.77v21.4h-5v-17.4h-4.3v-3.9l9.3-.1Z" fill="url(#GradientFill_22-29)"/><path d="M304.55,498.57a7.54,7.54,0,0,1,2.7,2.3,5.73,5.73,0,0,1,.9,3.5,6.74,6.74,0,0,1-1,3.8,7.06,7.06,0,0,1-2.9,2.5,10.19,10.19,0,0,1-11.1-1.8c-1.7-1.8-2.6-4.4-2.6-7.9a12.1,12.1,0,0,1,1.4-6.2,9,9,0,0,1,3.8-3.9,12.53,12.53,0,0,1,5.6-1.4,18.41,18.41,0,0,1,3.3.3,9.53,9.53,0,0,1,2.7,1.1l-1.8,3.6a7,7,0,0,0-4-1,5.58,5.58,0,0,0-4.3,1.6,6.9,6.9,0,0,0-1.7,4.6,7,7,0,0,1,5.3-1.9A6.52,6.52,0,0,1,304.55,498.57Zm-2.1,8.4a2.9,2.9,0,0,0,1-2.3,2.76,2.76,0,0,0-1-2.3,3.83,3.83,0,0,0-2.7-.9,4,4,0,0,0-2.7.9,3.15,3.15,0,0,0,0,4.6,4,4,0,0,0,2.7.9A5.41,5.41,0,0,0,302.45,507Z" fill="url(#GradientFill_22-30)"/><path d="M177.45,546.77V540l-3.4,5.6h-.9l-3.4-5.6v6.8H168v-10.4h1.6l4.1,6.8,4-6.8h1.6v10.4Z" fill="url(#GradientFill_22-31)"/><path d="M182.05,536.47H184v10.4h-1.9Z" fill="url(#GradientFill_22-32)"/><path d="M186.75,536.47h4.5a6.53,6.53,0,0,1,2.9.7,4.38,4.38,0,0,1,2,1.8,6,6,0,0,1,.7,2.7,5.68,5.68,0,0,1-.7,2.7,4.38,4.38,0,0,1-2,1.8,7.27,7.27,0,0,1-2.9.7h-4.5Zm4.4,8.7a5.44,5.44,0,0,0,2-.4,3.48,3.48,0,0,0,1.4-1.3,3.13,3.13,0,0,0,.4-1.9,5.33,5.33,0,0,0-.4-1.9,4.42,4.42,0,0,0-1.4-1.3,4.48,4.48,0,0,0-2-.4h-2.6v7.1l2.6.1Z" fill="url(#GradientFill_22-33)"/><path d="M199,536.47h4.5a6.53,6.53,0,0,1,2.9.7,4.38,4.38,0,0,1,2,1.8,6,6,0,0,1,.7,2.7,5.68,5.68,0,0,1-.7,2.7,4.38,4.38,0,0,1-2,1.8,7.27,7.27,0,0,1-2.9.7H199Zm4.5,8.7a5.44,5.44,0,0,0,2-.4,3.48,3.48,0,0,0,1.4-1.3,3.13,3.13,0,0,0,.4-1.9,5.33,5.33,0,0,0-.4-1.9,4.42,4.42,0,0,0-1.4-1.3,4.48,4.48,0,0,0-2-.4H201v7.1l2.5.1Z" fill="url(#GradientFill_22-34)"/><path d="M211.25,536.47h1.9v8.7h5.4v1.6h-7.4l.1-10.3Z" fill="url(#GradientFill_22-35)"/><path d="M227.85,545.27v1.6h-7.8v-10.4h7.5v1.6H222v2.7h5v1.6h-5v2.8l5.9.1Z" fill="url(#GradientFill_22-36)"/><path d="M229.55,540.87h4.1v1.5h-4.1Z" fill="url(#GradientFill_22-37)"/><path d="M243.75,545.27v1.6H236v-10.4h7.5v1.6h-5.6v2.7h5v1.6h-5v2.8l5.9.1Z" fill="url(#GradientFill_22-38)"/><path d="M252.65,544.37h-5.2l-1,2.4h-2l4.6-10.4H251l4.7,10.4h-2ZM252,543l-2-4.5-2,4.5Z" fill="url(#GradientFill_22-39)"/><path d="M257.85,546.67a5,5,0,0,1-1.8-.9l.7-1.5a9.88,9.88,0,0,0,1.5.9,4,4,0,0,0,1.9.3,3.42,3.42,0,0,0,1.7-.3c.3-.3.6-.6.6-.9a1.33,1.33,0,0,0-.3-.8c-.2-.3-.5-.3-.8-.4a4.2,4.2,0,0,0-1.4-.3,6.07,6.07,0,0,1-1.9-.6,3.81,3.81,0,0,1-1.3-.9,2.54,2.54,0,0,1-.5-1.6,3.31,3.31,0,0,1,.4-1.5,2.67,2.67,0,0,1,1.4-1.1,5.27,5.27,0,0,1,2.3-.4,6.28,6.28,0,0,1,1.9.3,7.74,7.74,0,0,1,1.6.7l-.6,1.5a5.21,5.21,0,0,0-1.5-.6,3.64,3.64,0,0,0-1.5-.2,5.79,5.79,0,0,0-1.7.3,1.39,1.39,0,0,0-.5,1,.91.91,0,0,0,.3.7,3,3,0,0,0,.8.4,4.2,4.2,0,0,0,1.4.3,16.66,16.66,0,0,1,1.9.5,3.81,3.81,0,0,1,1.3.9,2.54,2.54,0,0,1,.5,1.6,3.31,3.31,0,0,1-.4,1.5,2.58,2.58,0,0,1-1.5,1.1,5.27,5.27,0,0,1-2.3.4A20.69,20.69,0,0,1,257.85,546.67Z" fill="url(#GradientFill_22-40)"/><path d="M268.15,538.07h-3.4v-1.6h8.8v1.6h-3.4v8.7h-2Z" fill="url(#GradientFill_22-41)"/><path d="M278.85,546.67a3.81,3.81,0,0,1-1.4-1.1l1.1-1.3a2.59,2.59,0,0,0,2.1,1.2c1.1,0,1.6-.6,1.6-1.9v-5.4h-3.7v-1.6h5.6v6.8a3.67,3.67,0,0,1-.9,2.7,3.57,3.57,0,0,1-2.6.9A5.66,5.66,0,0,1,278.85,546.67Z" fill="url(#GradientFill_22-42)"/><path d="M293.45,544.37h-5.2l-1,2.4h-2l4.6-10.4h1.9l4.7,10.4h-2.1Zm-.7-1.4-2-4.5-2,4.5Z" fill="url(#GradientFill_22-43)"/><path d="M306.65,536.47l-4.5,10.4h-1.9l-4.5-10.4h2.1l3.4,8,3.5-8Z" fill="url(#GradientFill_22-44)"/><path d="M314.25,544.37h-5.2l-1,2.4h-2l4.6-10.4h1.9l4.7,10.4h-2Zm-.7-1.4-2-4.5-2,4.5Z" fill="url(#GradientFill_22-45)"/><path d="M323.55,546.67a5,5,0,0,1-1.8-.9l.7-1.5a9.88,9.88,0,0,0,1.5.9,4,4,0,0,0,1.9.3,3.42,3.42,0,0,0,1.7-.3c.3-.3.6-.6.6-.9a1.33,1.33,0,0,0-.3-.8c-.2-.3-.5-.3-.8-.4a4.2,4.2,0,0,0-1.4-.3,6.07,6.07,0,0,1-1.9-.6,3.81,3.81,0,0,1-1.3-.9,2.54,2.54,0,0,1-.5-1.6,3.31,3.31,0,0,1,.4-1.5,3.14,3.14,0,0,1,1.4-1.1,5.27,5.27,0,0,1,2.3-.4,6.28,6.28,0,0,1,1.9.3,7.74,7.74,0,0,1,1.6.7l-.6,1.5a5.21,5.21,0,0,0-1.5-.6,3.64,3.64,0,0,0-1.5-.2,5.79,5.79,0,0,0-1.7.3,1.39,1.39,0,0,0-.5,1,.91.91,0,0,0,.3.7,3,3,0,0,0,.8.4,4.2,4.2,0,0,0,1.4.3,16.66,16.66,0,0,1,1.9.5,3.81,3.81,0,0,1,1.3.9,2.54,2.54,0,0,1,.5,1.6,3.31,3.31,0,0,1-.4,1.5,2.58,2.58,0,0,1-1.5,1.1,5.27,5.27,0,0,1-2.3.4A20.69,20.69,0,0,1,323.55,546.67Z" fill="url(#GradientFill_22-46)"/><path d="M333.05,545.77a4.7,4.7,0,0,1-1.2-3.4v-5.8h1.9v5.7c0,2.1.9,3.1,2.7,3.1s2.7-1,2.7-3.1v-5.7h1.9v5.8a4.4,4.4,0,0,1-1.2,3.4,4.46,4.46,0,0,1-3.3,1.2A5,5,0,0,1,333.05,545.77Z" fill="url(#GradientFill_22-47)"/><path d="M352.35,542.37a2.77,2.77,0,0,1,.5,1.6,2.39,2.39,0,0,1-1,2.1,5.1,5.1,0,0,1-3,.8h-5.1v-10.4h4.9a5.49,5.49,0,0,1,2.8.7,2.12,2.12,0,0,1,1,2,3.53,3.53,0,0,1-.3,1.4,2,2,0,0,1-.9.9A4.36,4.36,0,0,1,352.35,542.37Zm-6.8-4.4v2.8h2.7a2.81,2.81,0,0,0,1.5-.3,1.39,1.39,0,0,0,.5-1,1.29,1.29,0,0,0-.5-1.1,2.25,2.25,0,0,0-1.5-.3h-2.7Zm5.4,5.8c0-1-.8-1.5-2.2-1.5h-3.1v3h3.1C350.15,545.37,351,544.87,351,543.77Z" fill="url(#GradientFill_22-48)"/><path d="M364.45,546.77V540l-3.4,5.6h-.9l-3.4-5.6v6.8H355v-10.4h1.6l4.1,6.8,4-6.8h1.6v10.4Z" fill="url(#GradientFill_22-49)"/><path d="M369.05,536.47H371v10.4h-1.9Z" fill="url(#GradientFill_22-50)"/><path d="M375.85,538.07h-3.4v-1.6h8.8v1.6h-3.4v8.7H376l-.1-8.7Z" fill="url(#GradientFill_22-51)"/></g></svg>