<svg xmlns="http://www.w3.org/2000/svg" xmlns:xlink="http://www.w3.org/1999/xlink" viewBox="0 0 539 567"><defs><linearGradient id="GradientFill_15" x1="214.11" y1="512.08" x2="213.32" y2="489.37" gradientUnits="userSpaceOnUse"><stop offset="0" stop-color="#b4882d"/><stop offset="0.16" stop-color="#b3812c"/><stop offset="0.3" stop-color="#855522"/><stop offset="0.49" stop-color="#70451b"/><stop offset="0.54" stop-color="#c8c996"/><stop offset="0.56" stop-color="#ccc47c"/><stop offset="0.69" stop-color="#af954c"/><stop offset="0.75" stop-color="#875723"/><stop offset="0.85" stop-color="#ab8c42"/><stop offset="1" stop-color="#baa562"/></linearGradient><linearGradient id="GradientFill_16" x1="227.12" y1="500.48" x2="196.66" y2="501.01" gradientUnits="userSpaceOnUse"><stop offset="0" stop-color="#73481c"/><stop offset="0.04" stop-color="#562f0f"/><stop offset="0.15" stop-color="#8d6d39"/><stop offset="0.23" stop-color="#7f5221"/><stop offset="0.51" stop-color="#845a26"/><stop offset="0.68" stop-color="#7b5020"/><stop offset="0.76" stop-color="#8b7045"/><stop offset="0.9" stop-color="#562f0f"/><stop offset="1" stop-color="#75491d"/></linearGradient><linearGradient id="GradientFill_15-2" x1="350.89" y1="470.65" x2="351.66" y2="492.8" xlink:href="#GradientFill_15"/><linearGradient id="GradientFill_16-2" x1="338.27" y1="481.96" x2="367.93" y2="481.45" xlink:href="#GradientFill_16"/><linearGradient id="GradientFill_3" x1="296.31" y1="103.79" x2="264.71" y2="102.68" gradientUnits="userSpaceOnUse"><stop offset="0" stop-color="#dfab4a"/><stop offset="0.15" stop-color="#feeba7"/><stop offset="0.35" stop-color="#ddb05d"/><stop offset="0.45" stop-color="#fadd85"/><stop offset="0.72" stop-color="#efc56c"/><stop offset="0.81" stop-color="#efd479"/><stop offset="0.91" stop-color="#f0cf81"/><stop offset="1" stop-color="#e2bc5e"/></linearGradient><linearGradient id="GradientFill_3-2" x1="519.55" y1="396.12" x2="96.55" y2="373.96" xlink:href="#GradientFill_3"/><linearGradient id="GradientFill_4" x1="283.43" y1="516.81" x2="281.54" y2="462.71" gradientUnits="userSpaceOnUse"><stop offset="0" stop-color="#dba73e"/><stop offset="0.16" stop-color="#d89d3a"/><stop offset="0.3" stop-color="#a46b28"/><stop offset="0.49" stop-color="#8e5723"/><stop offset="0.54" stop-color="#f4f3b8"/><stop offset="0.56" stop-color="#f7ed9a"/><stop offset="0.69" stop-color="#d5b767"/><stop offset="0.75" stop-color="#a76f29"/><stop offset="0.85" stop-color="#d0ab5b"/><stop offset="1" stop-color="#e0c77d"/></linearGradient><linearGradient id="GradientFill_10" x1="371.48" y1="488.23" x2="191.84" y2="491.36" gradientUnits="userSpaceOnUse"><stop offset="0" stop-color="#c89749"/><stop offset="0.04" stop-color="#8e5523"/><stop offset="0.15" stop-color="#ffee9d"/><stop offset="0.23" stop-color="#deac55"/><stop offset="0.51" stop-color="#e8c576"/><stop offset="0.81" stop-color="#dbaa4d"/><stop offset="0.86" stop-color="#fcf6b2"/><stop offset="0.95" stop-color="#8b5623"/><stop offset="1" stop-color="#ca983e"/></linearGradient><linearGradient id="GradientFill_4-2" x1="283.39" y1="516.37" x2="281.53" y2="462.92" xlink:href="#GradientFill_4"/><linearGradient id="GradientFill_22" x1="225.81" y1="162.81" x2="252.43" y2="162.81" gradientUnits="userSpaceOnUse"><stop offset="0" stop-color="#dba73e"/><stop offset="0.16" stop-color="#d89d3a"/><stop offset="0.54" stop-color="#f4f3b8"/><stop offset="0.56" stop-color="#f7ed9a"/><stop offset="0.69" stop-color="#d5b767"/><stop offset="0.85" stop-color="#d0ab5b"/><stop offset="1" stop-color="#e0c77d"/></linearGradient><linearGradient id="GradientFill_22-2" x1="258.17" y1="162.81" x2="280.81" y2="162.81" xlink:href="#GradientFill_22"/><linearGradient id="GradientFill_22-3" x1="283.87" y1="162.81" x2="308.13" y2="162.81" xlink:href="#GradientFill_22"/><linearGradient id="GradientFill_22-4" x1="310.22" y1="162.81" x2="338.55" y2="162.81" xlink:href="#GradientFill_22"/><linearGradient id="GradientFill_22-5" x1="152.47" y1="228.63" x2="175.12" y2="228.63" xlink:href="#GradientFill_22"/><linearGradient id="GradientFill_22-6" x1="181.18" y1="228.63" x2="187.88" y2="228.63" xlink:href="#GradientFill_22"/><linearGradient id="GradientFill_22-7" x1="195.95" y1="228.63" x2="226.25" y2="228.63" xlink:href="#GradientFill_22"/><linearGradient id="GradientFill_22-8" x1="230.02" y1="228.63" x2="265.06" y2="228.63" xlink:href="#GradientFill_22"/><linearGradient id="GradientFill_22-9" x1="268.76" y1="228.63" x2="299.05" y2="228.63" xlink:href="#GradientFill_22"/><linearGradient id="GradientFill_22-10" x1="304.22" y1="228.63" x2="334.76" y2="228.63" xlink:href="#GradientFill_22"/><linearGradient id="GradientFill_22-11" x1="340.42" y1="228.63" x2="347.13" y2="228.63" xlink:href="#GradientFill_22"/><linearGradient id="GradientFill_22-12" x1="351.72" y1="228.63" x2="386.76" y2="228.63" xlink:href="#GradientFill_22"/><linearGradient id="GradientFill_22-13" x1="390.46" y1="228.63" x2="411.52" y2="228.63" xlink:href="#GradientFill_22"/><linearGradient id="GradientFill_22-14" x1="147.04" y1="294.45" x2="171.31" y2="294.45" xlink:href="#GradientFill_22"/><linearGradient id="GradientFill_22-15" x1="174.46" y1="294.45" x2="210.86" y2="294.45" xlink:href="#GradientFill_22"/><linearGradient id="GradientFill_22-16" x1="216.13" y1="294.45" x2="238.77" y2="294.45" xlink:href="#GradientFill_22"/><linearGradient id="GradientFill_22-17" x1="240.98" y1="294.45" x2="269.32" y2="294.45" xlink:href="#GradientFill_22"/><linearGradient id="GradientFill_22-18" x1="270.23" y1="294.45" x2="321.61" y2="294.45" xlink:href="#GradientFill_22"/><linearGradient id="GradientFill_22-19" x1="319.13" y1="294.45" x2="354.17" y2="294.45" xlink:href="#GradientFill_22"/><linearGradient id="GradientFill_22-20" x1="358.09" y1="294.45" x2="386.12" y2="294.45" xlink:href="#GradientFill_22"/><linearGradient id="GradientFill_22-21" x1="390.39" y1="294.45" x2="413.04" y2="294.45" xlink:href="#GradientFill_22"/><linearGradient id="GradientFill_22-22" x1="243.57" y1="344.88" x2="260.03" y2="344.88" xlink:href="#GradientFill_22"/><linearGradient id="GradientFill_22-23" x1="262.25" y1="345.02" x2="279.85" y2="345.02" xlink:href="#GradientFill_22"/><linearGradient id="GradientFill_22-24" x1="283.42" y1="345" x2="298.42" y2="345" xlink:href="#GradientFill_22"/><linearGradient id="GradientFill_22-25" x1="301.37" y1="345.17" x2="318.14" y2="345.17" xlink:href="#GradientFill_22"/></defs><title>awrds</title><g id="Layer_1" data-name="Layer 1"><path d="M196,508.5a2.5,2.5,0,0,0,0,.47c.21,1.1,1.39,1.93,3.25,2.52a33.12,33.12,0,0,0,6.53,1.19,110.63,110.63,0,0,0,25.65-.8.68.68,0,0,0,.54-.78.77.77,0,0,0-.1-.25l-14-22.29a.68.68,0,0,0-.63-.31c-3.29.2-6.93.56-10.57.92s-7.29.71-10.42.91a.67.67,0,0,0-.63.67h0L196,508.5Zm1.33.23h0v-.24L197,491.36c3.07-.2,6.44-.53,9.82-.87,3.53-.34,7.06-.69,10.16-.89l13.3,21.13a111.46,111.46,0,0,1-24.31.62,32.21,32.21,0,0,1-6.25-1.12C198.33,509.78,197.47,509.28,197.37,508.73Z" fill-rule="evenodd" fill="url(#GradientFill_15)"/><path d="M196.71,508.51c-.46,4.58,24.26,4.61,34.66,2.71l-14-22.31c-6.46.39-14.61,1.44-21,1.83Z" fill-rule="evenodd" fill="url(#GradientFill_16)"/><path d="M369,474a1.5,1.5,0,0,0,0-.47c-.2-1.1-1.39-1.93-3.25-2.53a34,34,0,0,0-6.53-1.18,110.65,110.65,0,0,0-25.65.8.68.68,0,0,0-.54.78.77.77,0,0,0,.1.25l14,22.29a.67.67,0,0,0,.62.31c3.29-.2,6.94-.56,10.58-.92s7.28-.71,10.41-.9a.68.68,0,0,0,.63-.68h0L369,474Zm-1.33-.23h0a.65.65,0,0,1,0,.14v.1l.37,17.13c-3.07.2-6.44.53-9.82.86-3.53.35-7.06.7-10.16.9l-13.3-21.13A111.46,111.46,0,0,1,359,471.1a32.47,32.47,0,0,1,6.26,1.12C366.66,472.67,367.52,473.17,367.62,473.72Z" fill-rule="evenodd" fill="url(#GradientFill_15-2)"/><path d="M368.29,473.94c.45-4.58-24.26-4.61-34.67-2.71l14,22.31c6.46-.39,14.61-1.44,21-1.83Q368.49,482.83,368.29,473.94Z" fill-rule="evenodd" fill="url(#GradientFill_16-2)"/><path d="M280.45,38.32h2.72a.68.68,0,0,0,0-1.35h-4.86a.68.68,0,0,0,0,1.35h2.11Zm0-7.14a.68.68,0,1,0,0,1.35h2.7a.68.68,0,0,0,0-1.35h-2.71Zm-2,1.36a.68.68,0,0,0,0-1.35h-.75l-1.35,0h-.61a.68.68,0,0,0,0,1.36l.61,0,1.34,0Zm-6.74.17a.68.68,0,0,0-.06-1.35l-.72,0-1.34.06-.65,0a.68.68,0,0,0,.08,1.35l.63,0,1.34-.07.72,0Zm-6.73.39a.68.68,0,0,0-.1-1.35l-.65,0L263,31.9l-.72.06a.68.68,0,1,0,.12,1.35l.71-.06,1.32-.11.65,0Zm-6.71.59a.67.67,0,0,0-.15-1.34l-.53,0-1.32.15-.84.1a.67.67,0,0,0,.16,1.34l.83-.09,1.32-.15.53-.06Zm-6.69.82a.68.68,0,0,0-.19-1.34l-.38,0-1.31.19-1,.15a.67.67,0,0,0,.2,1.33l1-.14,1.3-.19.38-.05Zm-6.66,1a.68.68,0,0,0-.23-1.34l-.19,0-1.3.22-1.18.22a.68.68,0,0,0,.24,1.33l1.18-.22,1.29-.22.19,0Zm-6.62,1.24a.67.67,0,0,0-.28-1.32l-1.25.26-1.28.27-.12,0a.68.68,0,0,0,.29,1.32l.12,0,1.27-.27,1.25-.26Zm-6.58,1.46a.67.67,0,0,0-.32-1.31l-1,.23-1.26.32-.38.09a.68.68,0,0,0,.34,1.31l.37-.09,1.25-.31,1-.24Zm-6.53,1.67a.67.67,0,0,0-.36-1.3l-.71.19-1.25.35-.65.19a.68.68,0,0,0,.37,1.3l.65-.19,1.24-.34.71-.2Zm-6.47,1.88a.68.68,0,0,0-.4-1.29l-.41.13-1.23.39-.95.3a.68.68,0,0,0,.42,1.29l.93-.3,1.23-.39.41-.13Zm-6.41,2.1a.68.68,0,0,0-.44-1.28l-.09,0-1.22.42-1.21.43,0,0a.68.68,0,0,0,.46,1.27h0l1.2-.43,1.21-.42.09,0Zm-6.33,2.3a.68.68,0,0,0-.49-1.26l-.95.36-1.2.47-.38.15a.68.68,0,0,0,.51,1.25l.37-.14,1.19-.47,1-.36Zm-6.26,2.5a.67.67,0,0,0-.52-1.24l-.6.25-1.18.5-.72.31a.68.68,0,0,0,.54,1.24l.72-.31,1.17-.5.59-.25Zm-6.17,2.71a.68.68,0,0,0-.57-1.23l-.23.11-1.16.53-1.06.51a.68.68,0,0,0,.58,1.22l1.06-.5,1.15-.54.23-.1Zm-6.08,2.9a.67.67,0,0,0-.61-1.2l-1,.5-1.13.57-.29.15a.68.68,0,0,0,.63,1.2l.27-.14,1.13-.58,1-.5Zm-6,3.1a.67.67,0,0,0-.65-1.18l-.61.33-1.12.61-.65.36a.68.68,0,0,0,.66,1.18l.65-.36,1.1-.61.62-.33Zm-5.89,3.3a.68.68,0,0,0-.68-1.17l-.22.13-1.1.64-1,.61a.67.67,0,0,0,.69,1.16l1-.6,1.09-.64.22-.13Zm-5.76,3.48c.74-.45,0-1.6-.73-1.15l-.91.58-1.07.68-.31.2a.68.68,0,0,0,.49,1.23.69.69,0,0,0,.25-.1l.3-.19,1.06-.68.92-.57Zm-5.66,3.66c.72-.43,0-1.59-.76-1.12l-.52.35-1.05.71-.67.47a.68.68,0,0,0,.69,1.16l.08,0,.67-.46,1-.71.52-.35Zm-5.54,3.85a.7.7,0,0,0,.28-.63.68.68,0,0,0-1.07-.47l-.13.1-1,.74-1,.75h0a.68.68,0,0,0-.19.87.67.67,0,0,0,1,.21h0l1-.75,1-.73.13-.1Zm-5.4,4a.68.68,0,1,0-.83-1.07l-.76.59-1,.77-.38.31a.68.68,0,0,0,.84,1.06l.38-.3,1-.77.76-.59ZM148,79.9a.67.67,0,0,0-.86-1l-.38.31-1,.81-.73.62a.67.67,0,0,0,.87,1l.73-.62,1-.8.38-.31Zm-5.14,4.36a.67.67,0,0,0-.89-1h0l-1,.83-.94.84-.13.12a.68.68,0,0,0,.91,1l.13-.11.93-.84.94-.83Zm-5,4.53a.68.68,0,0,0-.93-1l-.58.54-.91.87-.48.46a.68.68,0,0,0,.94,1l.47-.45.91-.86.58-.54Zm-4.85,4.68a.68.68,0,0,0-1-1l-.22.22-.89.9-.8.81a.68.68,0,0,0,1,1h0l.79-.8.89-.89.22-.22Zm-4.7,4.83a.68.68,0,1,0-1-.92l-.74.8-.86.92-.24.27a.67.67,0,0,0,.89,1l.11-.09.24-.26.85-.92.74-.8Zm-4.53,5c.57-.57-.34-1.57-1-.89l-.41.46-.83,1-.54.64a.7.7,0,0,0,0,.91.68.68,0,0,0,1,0l.55-.63.82-.94.41-.47Zm-4.38,5.13c.56-.57-.39-1.52-1-.93l-.07.07-.09.11-.8,1-.8,1,0,0c-.48.47.23,1.49.95,1l.11-.11,0,0,.79-1,.8-1,.09-.11Zm-4.21,5.26a.67.67,0,0,0-1.07-.82l-.57.73-.76,1-.32.42a.68.68,0,0,0,1.08.81l.31-.42.77-1,.56-.74Zm-4,5.4a.68.68,0,0,0-1.1-.79l-.26.37-.74,1-.57.81a.68.68,0,0,0,1.11.77l.56-.8.73-1,.27-.37Zm-3.86,5.52a.67.67,0,0,0-1.12-.75l-.71,1-.7,1-.1.16a.68.68,0,0,0,1.14.73l.09-.15.7-1,.7-1Zm-3.68,5.65a.68.68,0,0,0-1.15-.72l-.43.68-.67,1.08-.33.54a.68.68,0,0,0,1.16.71l.32-.54.67-1.07.43-.68Zm-3.5,5.76a.68.68,0,0,0-1.17-.68l-.18.31-.64,1.1-.53.93a.67.67,0,0,0,1.17.67l.53-.93.63-1.09.19-.31Zm-3.31,5.86a.68.68,0,0,0-1.18-.66v0l-.57,1.05-.6,1.12-.11.22a.68.68,0,0,0,.85.94.72.72,0,0,0,.35-.32l.11-.2.59-1.12.57-1.06Zm-3.12,6a.68.68,0,0,0-.25-.88.67.67,0,0,0-1,.28l-.35.69-.56,1.15-.29.59a.68.68,0,0,0,1.22.59l.28-.59.56-1.13.35-.7Zm-2.92,6.07a.68.68,0,0,0-1.23-.56l-.16.34-.53,1.16-.43,1a.67.67,0,0,0,1.23.55l.43-1,.53-1.16.16-.34Zm-2.73,6.16a.68.68,0,0,0-1.25-.52l-.48,1.16-.49,1.19-.07.16a.68.68,0,0,0,1.26.5l.06-.15.49-1.18.48-1.16Zm-2.52,6.25a.68.68,0,0,0-1.27-.48l-.31.83-.45,1.2-.19.51a.68.68,0,0,0,1.27.47l.18-.51.45-1.19.32-.83Zm-2.32,6.33a.68.68,0,0,0-1.28-.44l-.17.5-.42,1.22-.28.85c-.32.8.94,1.27,1.28.42l.28-.83.41-1.22.18-.5Zm-2.11,6.4a.68.68,0,0,0-.72-.87.64.64,0,0,0-.57.47l-.06.19-.38,1.24L79,181.25a.68.68,0,0,0,1.25.5l0-.12.35-1.16.38-1.23.06-.19Zm-1.91,6.46a.67.67,0,1,0-1.3-.35l-.31,1.14-.34,1.26-.06.22a.68.68,0,0,0,1.31.34l.06-.22.33-1.24.31-1.15ZM77.52,192a.67.67,0,0,0-1.31-.31l-.21.87-.3,1.27-.11.5a.68.68,0,0,0,1.32.29l.11-.48.29-1.26.21-.88ZM76,198.61a.67.67,0,0,0-1.32-.27l-.13.64-.26,1.29-.15.73a.68.68,0,0,0,1.33.26l.14-.73.26-1.28.13-.64Zm-1.26,6.62a.68.68,0,0,0-1.33-.23l-.08.43-.22,1.3-.15,1a.67.67,0,0,0,1.33.21l.16-.94.22-1.29.07-.43Zm-1,6.66a.68.68,0,0,0-1.34-.19l0,.25-.18,1.31L72,214.39a.68.68,0,0,0,1.34.17l.15-1.13.17-1.3,0-.24Zm-.83,6.69a.68.68,0,0,0-1.35-.15v.09l-.14,1.33-.12,1.28a.67.67,0,0,0,1.34.13l.13-1.28.14-1.31v-.09Zm-.62,6.71a.68.68,0,0,0-1.35-.1l-.1,1.31-.09,1.34v.06a.68.68,0,0,0,1.35.08v-.06l.09-1.32.1-1.31ZM71.87,232a.68.68,0,0,0-1.35,0l0,1.25,0,1.35v.11a.68.68,0,0,0,1.35,0v-.11l0-1.34.05-1.25Zm-.19,6.74a.68.68,0,0,0-1.35,0v2.72a.68.68,0,0,0,1.35,0v-2.7Zm0,6.74a.68.68,0,0,0-1.35,0l0,1.23,0,.71,1.29,1.07a.72.72,0,0,0,.08-.35v-.12l0-1.35,0-1.23Zm417.5.75a.68.68,0,0,0,1.36,0v-.86l0-1.36v-.5a.68.68,0,0,0-1.35,0V244l0,1.35,0,.86Zm.05-6.74a.68.68,0,0,0,1.35,0v-.86l0-1.36v-.49a.68.68,0,0,0-1.35,0v.49l0,1.35v.86Zm-.16-6.74a.68.68,0,0,0,1.35-.06l0-.84-.06-1.34,0-.53a.68.68,0,0,0-1.35.08l0,.52.06,1.33,0,.84Zm-.38-6.73a.68.68,0,0,0,1.35-.1l-.06-.76-.11-1.34,0-.6a.67.67,0,1,0-1.34.12l.05.59.1,1.33.06.76Zm-.6-6.71a.68.68,0,0,0,1.35-.14l-.07-.66-.15-1.32-.08-.72a.68.68,0,0,0-1.35.16l.09.72.15,1.31.06.65Zm-.81-6.69a.68.68,0,0,0,1.34-.19l-.07-.49-.18-1.31-.13-.88a.68.68,0,0,0-1.34.2l.13.87.19,1.3.06.5Zm-1-6.66a.67.67,0,0,0,1.33-.23l-.05-.31-.23-1.3-.19-1.06a.68.68,0,0,0-1.33.24l.19,1.06.23,1.29.05.31Zm-1.24-6.63a.67.67,0,0,0,1.32-.27l0-.09-.26-1.28-.28-1.28h0a.68.68,0,0,0-1.32.3h0l.27,1.27.27,1.27,0,.09Zm-1.46-6.57a.68.68,0,0,0,1.32-.32l-.27-1.11-.31-1.27-.07-.26a.68.68,0,0,0-1.31.34l.06.25.32,1.26.26,1.11Zm-1.67-6.53a.68.68,0,0,0,1.31-.36l-.23-.83-.35-1.25-.15-.54a.68.68,0,0,0-1.3.38l.15.53.35,1.24.22.83ZM480,179.76a.68.68,0,0,0,1.3-.4l-.17-.52-.38-1.23-.27-.83a.68.68,0,0,0-1.29.41l.27.83.38,1.22.16.52Zm-2.08-6.4a.67.67,0,0,0,1.27-.45l-.06-.2-.43-1.21-.41-1.14a.67.67,0,0,0-1.27.45l.4,1.14.43,1.2.07.21Zm-2.3-6.34a.68.68,0,0,0,1.26-.49l-.41-1.06-.46-1.19-.11-.27a.68.68,0,0,0-1.26.5l.11.26.46,1.19.41,1.06Zm-2.5-6.26a.67.67,0,0,0,1.24-.52l-.29-.71-.5-1.17-.27-.62a.68.68,0,0,0-1.24.54l.26.61.5,1.17.3.7Zm-2.7-6.17a.67.67,0,0,0,1.22-.56l-.15-.34-.54-1.16-.45-1a.68.68,0,0,0-1-.29.68.68,0,0,0-.25.87l.45.95.53,1.15.16.34Zm-2.91-6.08a.68.68,0,0,0,1.21-.61l-.55-1.1-.58-1.14-.09-.18a.68.68,0,0,0-1.2.62l.09.18.57,1.13.55,1.1Zm-3.09-6a.67.67,0,0,0,1.18-.64l-.38-.72-.61-1.11-.31-.55a.68.68,0,0,0-1.18.66l.3.54.61,1.11.39.71Zm-3.29-5.88a.67.67,0,0,0,1.16-.68l-.19-.33-.64-1.09-.54-.92a.68.68,0,0,0-1.16.7l.54.9.64,1.09.19.33Zm-3.48-5.77a.67.67,0,0,0,1.14-.72l-.64-1-.67-1.07-.14-.2a.67.67,0,0,0-1.13.73l.13.2.67,1.06.64,1ZM454,125.21a.66.66,0,0,0,.66.29.68.68,0,0,0,.46-1l-.42-.62-.71-1-.4-.58a.68.68,0,0,0-1.15.71l0,.06.39.57.71,1,.42.62Zm-3.85-5.54c.42.7,1.57,0,1.15-.71l-.05-.08-.16-.23-.75-1-.68-.94a.68.68,0,0,0-1.09.8l.68.93.74,1,.16.23Zm-4-5.4a.68.68,0,1,0,1.07-.83l-.66-.86-.78-1-.23-.29a.68.68,0,0,0-1.06.84l.23.28.77,1,.66.86ZM442,109a.67.67,0,0,0,1-.86l-.39-.47-.8-1-.55-.65a.67.67,0,0,0-1,.87l.54.64.8,1,.39.47Zm-4.36-5.15a.67.67,0,0,0,1-.89l-.08-.1-.84-.94-.84-.94,0,0a.68.68,0,0,0-1,.91l0,0,.83.94.83.94.09.09Zm-4.52-5a.68.68,0,0,0,1-.93l-.62-.66-.87-.92-.37-.39a.68.68,0,0,0-1,.94l.37.38.87.91.62.67ZM428.42,94a.68.68,0,0,0,.95-1l-.3-.31-.89-.89-.73-.71c-.62-.62-1.56.35-.95,1l.73.71.88.88.31.31Zm-4.83-4.7a.68.68,0,0,0,.92-1l-.88-.83-.93-.85-.18-.17a.68.68,0,0,0-.91,1l.18.16.92.85.88.83Zm-5-4.54c.57.57,1.57-.34.89-1l-.55-.48-.95-.83-.55-.47c-.58-.58-1.54.35-.87,1l.53.47.95.82.55.49Zm-5.13-4.38a.68.68,0,0,0,.86-1l-.19-.16-1-.8-.93-.75c-.52-.53-1.58.31-.84,1l.92.75,1,.79.19.17Zm-5.26-4.21a.68.68,0,0,0,.83-1.08l-.83-.63-1-.77-.33-.24a.68.68,0,0,0-.81,1.08l.32.24,1,.76.82.64Zm-5.39-4a.68.68,0,0,0,.79-1.1l-.47-.34-1-.74-.72-.5a.68.68,0,0,0-.77,1.11l.7.5,1,.73.47.34Zm-5.52-3.87a.68.68,0,0,0,.76-1.12l-.1-.07-1.05-.7-1.06-.7-.05,0a.68.68,0,0,0-.74,1.13l.05,0,1.05.69,1,.7.1.07Zm-5.64-3.69a.67.67,0,0,0,.71-1.14l-.78-.49-1.08-.67-.44-.27a.67.67,0,0,0-.7,1.15l.44.27,1.07.66.78.49Zm-5.76-3.5a.68.68,0,0,0,.69-1.16h0l-.42-.24L385.08,59l-.84-.47a.67.67,0,0,0-.67,1.17l.83.48,1.09.63.42.24ZM380,57.76a.68.68,0,1,0,.64-1.19l0,0-1.12-.61-1.12-.59-.11-.06c-.71-.43-1.43.72-.65,1.19h0l.1,0,1.12.6,1.11.59,0,0Zm-6-3.12a.68.68,0,0,0,.88-.26.66.66,0,0,0-.28-1l-.8-.4-1.14-.57-.49-.24a.68.68,0,0,0-.59,1.22l.48.24,1.14.56.8.4ZM368,51.71a.68.68,0,0,0,.56-1.23l-.44-.2L367,49.75l-.87-.39a.67.67,0,0,0-.55,1.23l.86.39,1.15.52.45.21ZM361.83,49a.67.67,0,0,0,.53-1.24l-.09,0-1.18-.5-1.18-.49-.06,0a.68.68,0,0,0-.5,1.26l0,0,1.17.48,1.17.49.09,0Zm-6.24-2.53a.67.67,0,0,0,.48-1.26l-.93-.36-1.21-.45-.4-.15a.68.68,0,0,0-.47,1.27h0l.39.15,1.19.45.94.35Zm-6.33-2.32a.68.68,0,0,0,.46-1.27h0l-.61-.21-1.22-.42-.73-.24a.68.68,0,0,0-.43,1.28l.73.24,1.21.42.61.21ZM342.86,42a.69.69,0,0,0,.51-.05.67.67,0,0,0-.11-1.25l-.3-.09-1.23-.38-1.06-.32c-.76-.3-1.27,1-.44,1.28l0,0,1.05.31,1.23.38.3.1Zm-6.46-1.91a.68.68,0,0,0,.52-1.24l-.16-.06h0l-1.25-.34-1.25-.33-.11,0a.68.68,0,0,0-.34,1.31l.1,0,1.25.34,1.24.34Zm-6.52-1.7a.67.67,0,0,0,.31-1.31l-1-.24-1.27-.3-.38-.08a.68.68,0,0,0-.29,1.32l.37.08,1.26.3,1,.23Zm-6.58-1.48a.67.67,0,0,0,.28-1.32l-.76-.16-1.28-.26-.62-.12a.68.68,0,0,0-.26,1.33l.62.12,1.27.26.75.15Zm-6.62-1.27a.67.67,0,0,0,.23-1.33l-.53-.09-1.3-.22-.84-.14a.68.68,0,0,0-.21,1.34l.83.13,1.29.22.53.09Zm-6.65-1a.68.68,0,0,0,.19-1.34l-.36-.05L308.55,33l-1-.13a.68.68,0,0,0-.17,1.34l1,.13,1.3.18.36,0Zm-6.69-.84a.67.67,0,0,0,.15-1.34l-.21,0L302,32.27l-1.17-.12a.68.68,0,0,0-.13,1.35l1.16.11,1.31.14.21,0Zm-6.71-.62a.68.68,0,0,0,.1-1.35h-.09l-1.34-.09L294,31.61a.68.68,0,0,0-.09,1.35l1.27.09,1.33.09Zm-6.73-.41a.68.68,0,0,0,.06-1.35h0l-1.35-.05-1.34-.05a.68.68,0,0,0,0,1.35l1.33,0,1.34.05Zm-15.6,5.67a.68.68,0,0,0-.05-1.35h-.37l-1.31,0-1,0a.68.68,0,0,0,.06,1.35l1,0,1.31,0Zm-6.74.31a.68.68,0,0,0-.08-1.35h-.13l-1.3.08-1.28.1a.68.68,0,0,0,.1,1.35l1.27-.1,1.29-.08Zm-6.71.53a.67.67,0,0,0-.14-1.34l-1.13.11-1.29.13-.28,0a.68.68,0,0,0,.16,1.35l.26,0,1.28-.14,1.14-.11Zm-6.7.76a.68.68,0,0,0-.18-1.34l-.81.1-1.27.18-.6.08a.68.68,0,0,0,.19,1.34l.6-.09,1.26-.17.81-.1Zm-6.67,1a.67.67,0,0,0-.22-1.33l-.44.07-1.27.21-1,.17a.68.68,0,0,0,.24,1.33l.95-.16,1.26-.21.44-.08Zm-6.63,1.2a.68.68,0,0,0-.26-1.33h-.06l-1.25.25-1.24.26-.11,0a.67.67,0,0,0,.28,1.32l.11,0,1.23-.26,1.24-.25Zm-6.58,1.42a.68.68,0,0,0-.32-1.32l-.87.21-1.23.29-.53.13a.68.68,0,0,0,.32,1.32l.53-.13,1.22-.3.88-.2Zm-6.54,1.63a.67.67,0,1,0-.35-1.3L227,44l-1.22.34-1,.27a.68.68,0,0,0,.37,1.3l1-.27,1.2-.33.43-.12Zm-6.48,1.86a.68.68,0,0,0-.4-1.29l-1.15.35-1.2.38-.24.07a.68.68,0,0,0,.42,1.29l.23-.07,1.19-.38,1.15-.35Zm-6.41,2.07a.68.68,0,0,0-.44-1.28l-.66.23-1.19.41-.71.25a.68.68,0,0,0,.45,1.28l.71-.26,1.18-.41.66-.22Zm-6.34,2.28a.67.67,0,0,0-.48-1.26l-.16.06-1.17.45-1.16.45-.05,0a.68.68,0,0,0,.5,1.26H206l1.15-.45,1.16-.45.16-.06Zm-6.26,2.5a.68.68,0,0,0-.53-1.25l-.79.33-1.15.49-.55.24a.68.68,0,0,0,.54,1.24l.55-.24,1.14-.48.79-.33Zm-6.18,2.7a.68.68,0,0,0-.56-1.23l-.27.12-1.12.52-1.07.51a.68.68,0,0,0,.58,1.22l1.06-.5,1.12-.52.26-.12ZM190,59.54a.67.67,0,0,0-.61-1.2l-.85.42-1.1.56-.47.24a.68.68,0,0,0,.62,1.2l.47-.24,1.09-.55.85-.43Zm-6,3.11a.68.68,0,0,0-.65-1.19l-.31.17-1.08.59-1,.55a.68.68,0,0,0,.66,1.18l1-.54,1.08-.59.31-.17ZM178.14,66a.68.68,0,0,0-.69-1.17l-.84.49-1.06.63-.44.27a.68.68,0,0,0,.7,1.16h0l.43-.26,1.05-.62.84-.49Zm-5.77,3.5c.75-.45,0-1.6-.72-1.15l-.3.19-1,.66-1,.61a.79.79,0,0,0-.25.3.68.68,0,0,0,1,.84l1-.61,1-.66.29-.18Zm-5.64,3.68A.68.68,0,0,0,166,72l-.78.54-1,.7-.43.3a.7.7,0,0,0-.21.89.68.68,0,0,0,1,.22l.43-.3,1-.7.78-.53ZM161.22,77c.67-.4.05-1.6-.8-1.09l-.25.18-1,.73-.94.7a.68.68,0,1,0,.81,1.08l.93-.69,1-.72.26-.19Zm-5.38,4.06A.68.68,0,0,0,155,80l-.71.55-1,.76-.46.37a.68.68,0,0,0,.85,1.06l.45-.37,1-.75.71-.55Zm-5.25,4.22a.67.67,0,0,0-.87-1l-.19.16-.94.78-.94.8h0a.68.68,0,0,0,.89,1h0l.93-.79.93-.79.2-.16Zm-5.11,4.4a.68.68,0,0,0-.9-1l-.61.55-.91.82-.49.45a.68.68,0,0,0,.91,1l.48-.44.91-.82.61-.55Zm-5,4.57a.68.68,0,0,0-.93-1l-.12.12-.89.84-.88.86-.07.06a.68.68,0,0,0,1,1l.06-.06.87-.85.88-.85.12-.11ZM135.72,99a.68.68,0,0,0-1-.94l-.52.53-.85.88-.52.53a.68.68,0,0,0,1,.94l.51-.54.85-.87.52-.53Zm-4.65,4.88c.6-.59-.34-1.56-1-.94l0,0L130,103l-.83.91-.82.91-.12.13c-.58.58.36,1.55,1,.94l0,0,.11-.13.82-.9.82-.9.06-.07Zm-4.48,5c.59-.59-.36-1.55-1-.88l-.43.5-.8.93-.53.63a.68.68,0,0,0,1,.87l.52-.62.79-.93.43-.5Zm-4.31,5.17a.68.68,0,0,0,0-.85.66.66,0,0,0-1,0h0l-.77,1-.76,1-.15.19a.67.67,0,1,0,1.06.83l.15-.19.76-.95.76-1Zm-4.14,5.32a.68.68,0,0,0-1.08-.81l-.36.48-.73,1-.53.72a.68.68,0,0,0,1.09.8l.52-.72.73-1,.36-.47Zm-4,5.45a.68.68,0,0,0-1.11-.77l-.68,1-.7,1-.17.25a.68.68,0,0,0,1.13.76l.16-.25.69-1,.68-1Zm-3.78,5.58a.68.68,0,0,0-1.14-.74l-.3.46-.66,1-.5.78a.68.68,0,0,0,1.14.73l.49-.78.67-1,.3-.46Zm-3.59,5.7a.68.68,0,0,0-1.16-.7l-.6,1-.63,1.05-.16.28a.67.67,0,0,0,1.16.68l.16-.27.63-1,.6-1Zm-3.4,5.82a.68.68,0,0,0-1.18-.66l-.27.47-.6,1.08-.45.82a.68.68,0,0,0,1.18.67v0l.44-.81.6-1.08.27-.47Zm-3.21,5.92c.44-.72-.73-1.41-1.2-.61l-.54,1-.56,1.11-.14.26a.67.67,0,0,0,.26.88.67.67,0,0,0,1-.27l.13-.26.56-1.1.54-1Zm-3,6a.68.68,0,0,0-1.22-.58l-.25.53L95.19,155l-.37.8a.68.68,0,0,0,1.23.57l.36-.8.53-1.11.25-.53ZM94.39,160a.68.68,0,0,0-1.24-.54v0l-.49,1.14-.49,1.14-.08.2a.68.68,0,0,0,1.25.52l.07-.19.49-1.14.49-1.13v0Zm-2.6,6.22a.68.68,0,0,0-1.26-.5l-.25.66-.46,1.16-.27.71a.67.67,0,0,0,1.25.5v0l.27-.7.45-1.16.26-.65Zm-2.39,6.3a.68.68,0,0,0-1.27-.47v0l-.06.15-.42,1.18-.41,1.18v.05a.68.68,0,0,0,1.28.43v0l.41-1.17.42-1.17.05-.16Zm-2.17,6.38c.31-.79-1-1.22-1.26-.49l0,.08-.28.85-.37,1.2-.17.54a.69.69,0,0,0,.39.82.67.67,0,0,0,.91-.43l.16-.53.37-1.19.28-.85Zm-2,6.45a.67.67,0,0,0-1.24-.5L84,185l-.11.39-.34,1.21-.28,1a.68.68,0,1,0,1.31.35l.27-1,.34-1.21.11-.38Zm-1.74,6.5a.68.68,0,0,0-1.32-.32l-.28,1.16-.3,1.24-.06.24a.68.68,0,0,0,1.32.3l.06-.23.29-1.23.29-1.16ZM82,198.44a.67.67,0,0,0-1.32-.28l-.16.74-.26,1.25-.13.66a.67.67,0,0,0,1.32.27l.14-.66.25-1.24.16-.74Zm-1.31,6.61a.68.68,0,0,0-1.33-.24l-.06.35-.22,1.26-.18,1.06a.67.67,0,0,0,1.33.22l.18-1,.22-1.25.06-.35ZM79.6,211.7a.68.68,0,0,0-1.34-.19l-.18,1.24L77.91,214l0,.17a.68.68,0,0,0,1.34.17l0-.16.17-1.27.18-1.24Zm-.86,6.68a.68.68,0,0,0-1.35-.15l-.1.92-.14,1.29,0,.49a.67.67,0,0,0,1.34.13l0-.48.13-1.28.11-.92Zm-.65,6.71a.68.68,0,0,0-1.35-.1l0,.62-.1,1.3,0,.78a.68.68,0,0,0,1.35.09l0-.78.09-1.29,0-.62Zm-.42,6.73a.68.68,0,0,0-1.35-.06l0,.37,0,1.3,0,1a.68.68,0,0,0,1.35,0l0-1,.05-1.3,0-.37Zm-.2,6.73a.68.68,0,0,0-1.35,0v.15l0,1.32v1.24a.68.68,0,1,0,1.35,0v-2.7Zm0,6.74a.68.68,0,0,0-1.35,0l0,1.29,0,1.31V248a.68.68,0,0,0,1.35-.05v-.1l0-1.31,0-1.28Zm.24,6.73a.68.68,0,0,0-1.35.08l0,.36,1.42,1.19,0-.57L77.73,252Zm406.74,1.71,0-.57,0-.5a.68.68,0,0,0-1.35-.07l0,.49-.08,1.29-.06.9,1.45-1.54Zm-1.11-5.18a.68.68,0,0,0,1.36,0l0-.67,0-1.31v-.73a.68.68,0,0,0-1.35,0l0,.71,0,1.31,0,.67Zm.13-6.74a.68.68,0,1,0,1.35,0V239.1a.68.68,0,0,0-1.35,0v2.69Zm-.1-6.74a.68.68,0,0,0,1.36,0v-.28l-.05-1.32,0-1.11a.68.68,0,0,0-1.36.06l0,1.11.05,1.3v.28Zm-.31-6.73a.68.68,0,0,0,1.35-.08v0l-.09-1.3-.09-1.3v-.06a.68.68,0,0,0-1.35.11v.05L483,227l.09,1.3v0Zm-.53-6.71a.67.67,0,0,0,1.34-.14l-.1-1.05-.14-1.29,0-.36a.67.67,0,0,0-1.34.16l0,.35.13,1.28.11,1Zm-.76-6.7a.68.68,0,0,0,1.34-.18L483,214l-.17-1.28-.1-.69a.68.68,0,0,0-1.34.2l.1.68.17,1.27.1.72Zm-1-6.67a.67.67,0,0,0,1.33-.22l-.06-.36-.21-1.26-.18-1a.68.68,0,0,0-1.34.23l.19,1.05.21,1.25.06.36Zm-1.2-6.63a.67.67,0,0,0,1.32-.27l-.24-1.21-.26-1.25,0-.19a.67.67,0,0,0-1.32.28l0,.19.26,1.24.24,1.21Zm-1.42-6.58a.67.67,0,0,0,1.31-.32l-.18-.78-.3-1.24-.15-.61a.67.67,0,0,0-1.31.32l.15.61.29,1.23.19.79Zm-1.64-6.54a.67.67,0,1,0,1.3-.35l-.09-.34-.33-1.22-.3-1.06a.68.68,0,0,0-1.3.37l.3,1.05.33,1.21.09.34ZM474.69,182a.68.68,0,0,0,1.29-.4l-.33-1.07-.37-1.2-.11-.32a.67.67,0,0,0-1.28.42l.1.31.37,1.19.33,1.07Zm-2.07-6.41a.68.68,0,0,0,1.28-.44l-.2-.58-.41-1.18-.29-.8a.68.68,0,0,0-1.27.46l.28.79.41,1.17.2.58Zm-2.29-6.34a.68.68,0,0,0,1.27-.48l0-.08-.45-1.16-.45-1.16-.06-.13a.67.67,0,0,0-1.25.5l.05.12.45,1.16.44,1.15,0,.08Zm-2.5-6.26a.68.68,0,0,0,1.25-.52l-.3-.72-.49-1.14L468,160a.68.68,0,0,0-1.24.54l.27.63.49,1.14.29.71Zm-2.7-6.17a.68.68,0,0,0,1.23-.56l-.09-.19-.52-1.13-.53-1.12v0c-.3-.76-1.57-.29-1.22.59v0l.53,1.11.51,1.12.09.19Zm-2.91-6.08a.68.68,0,0,0,1.21-.6l-.39-.77-.56-1.11-.28-.54a.68.68,0,0,0-1.2.62l.28.54.56,1.1.38.76Zm-3.11-6a.68.68,0,0,0,1.19-.64l-.12-.23-.6-1.09-.59-1.06a.68.68,0,0,0-1.18.66l.59,1.06.59,1.07.12.23Zm-3.31-5.86a.68.68,0,0,0,1.17-.69l-.45-.77-.63-1.05-.31-.52a.68.68,0,0,0-1.16.7h0l.3.5.63,1,.44.77Zm-3.5-5.76a.68.68,0,0,0,1.15-.73l-.14-.22-.67-1-.66-1a.67.67,0,0,0-1.15.7l0,0,.66,1,.65,1,.14.23Zm-3.69-5.64c.43.71,1.59,0,1.15-.72l0,0-.48-.71-.7-1-.36-.51a.67.67,0,1,0-1.1.78l.35.5.69,1,.48.72ZM444.74,122a.68.68,0,0,0,1.13-.74l0-.06-.13-.18-.73-1-.73-1,0,0a.68.68,0,0,0-.83-.2.66.66,0,0,0-.25,1l0,0,.73,1,.72,1,.13.18Zm-4.05-5.38a.67.67,0,1,0,1.06-.83l-.5-.64-.76-1-.42-.52a.68.68,0,0,0-1.05.85l.41.52.76.95.5.64Zm-4.23-5.25a.67.67,0,0,0,1-.86l-.1-.13-.79-.94-.79-.93-.07-.08a.68.68,0,0,0-1,.89l.06.07.79.93.78.93.11.12Zm-4.4-5.1a.67.67,0,0,0,1-.9l-.49-.55-.82-.91-.51-.55a.67.67,0,0,0-1,.91l.5.55.82.9.49.55Zm-4.57-5a.68.68,0,0,0,1-.94l-.06-.06-.85-.88-.85-.88-.13-.13a.68.68,0,0,0-1,1l.12.12.85.87.84.88.06.07Zm-4.73-4.81c.62.62,1.56-.35.95-1l-.47-.46-.88-.86-.6-.57a.68.68,0,0,0-.94,1h0l.59.57.87.85.47.45Zm-4.88-4.64a.68.68,0,1,0,.91-1h0l-.9-.83-.91-.82-.2-.17c-.59-.59-1.56.35-.9,1l.19.17.91.82.89.82Zm-5-4.48a.69.69,0,0,0,.82,0,.68.68,0,0,0,.06-1.08l-.43-.37-.94-.8-.69-.58c-.58-.58-1.54.37-.9,1l0,0,.69.58.93.79.43.37Zm-5.17-4.31c.51.52,1.46-.27.94-1l-.1-.1-.9-.72-1-.76-.27-.2a.67.67,0,1,0-.83,1.06l.26.21,1,.75.9.72ZM402.35,79a.68.68,0,0,0,.81-1.08l-.41-.31-1-.73-.78-.58a.68.68,0,0,0-.8,1.1l.78.57,1,.73.41.3Zm-5.46-4a.68.68,0,0,0,.77-1.11l-.89-.62-1-.7-.32-.22a.67.67,0,0,0-.75,1.12l.31.21,1,.7.89.62Zm-5.58-3.77a.68.68,0,0,0,.74-1.14l-.39-.25-1-.67-.86-.55a.68.68,0,0,0-.73,1.15l.86.54,1,.66.39.26Zm-5.7-3.59a.68.68,0,0,0,.7-1.16h0l-.92-.56-1.06-.63-.35-.2a.68.68,0,0,0-.69,1.16h0l.34.21,1.05.62.92.56Zm-5.82-3.4a.68.68,0,0,0,.67-1.18h0l-.4-.23-1.08-.6-.89-.49a.69.69,0,0,0-.91.25.68.68,0,0,0,.26.94l.89.49,1.07.59.4.23ZM373.86,61a.68.68,0,0,0,.62-1.2l-1-.5-1.1-.56-.35-.17a.68.68,0,1,0-.6,1.21l.34.17,1.09.55,1,.5Zm-6-3a.68.68,0,0,0,.58-1.22l-.45-.22-1.13-.53-.88-.4a.67.67,0,0,0-.56,1.22l.87.41,1.12.52.45.22Zm-6.13-2.8a.68.68,0,0,0,.54-1.24l-1.07-.47L360,53l-.27-.11a.68.68,0,0,0-.52,1.25l.26.11,1.14.48,1.07.47Zm-6.22-2.6a.67.67,0,1,0,.5-1.25l-.57-.23-1.16-.45-.8-.31a.67.67,0,0,0-.48,1.26l.79.31,1.15.45.57.22Zm-6.3-2.38a.68.68,0,0,0,.46-1.28l-.08,0-1.17-.42-1.19-.41-.13,0c-.77-.31-1.27.94-.5,1.26l.07,0,.12,0,1.18.41,1.17.42.07,0Zm-6.38-2.18a.68.68,0,0,0,.44-1.28h0l-.77-.25-1.2-.38-.61-.19a.69.69,0,0,0-.75.25.67.67,0,0,0,.35,1l.61.19,1.19.38.77.24Zm-6.45-2a.67.67,0,0,0,.51-1.24l-.14-.06-.3-.08-1.21-.34-1.1-.3a.67.67,0,1,0-.35,1.3l1.08.3,1.21.34.3.08Zm-6.5-1.74a.67.67,0,0,0,.32-1.31l-1.08-.27-1.23-.29-.33-.08a.68.68,0,0,0-.3,1.32l.32.07,1.22.3,1.08.26Zm-6.57-1.52a.67.67,0,0,0,.28-1.32l-.66-.15-1.24-.26-.75-.15a.68.68,0,0,0-.27,1.33l.75.15,1.23.26.66.14Zm-6.61-1.31a.68.68,0,0,0,.24-1.33l-.26,0-1.26-.23-1.16-.19a.67.67,0,0,0-.22,1.33l1.15.2,1.25.22.26,0ZM310,40.45a.68.68,0,0,0,.19-1.34L309.05,39l-1.27-.18-.26,0a.68.68,0,0,0-.17,1.34l.25,0,1.26.17,1.16.17Zm-6.68-.86a.68.68,0,0,0,.14-1.35l-.83-.09L301.37,38l-.58-.06a.68.68,0,0,0-.13,1.35l.57,0,1.28.14.83.09ZM296.63,39a.68.68,0,0,0,.1-1.35l-.54,0-1.29-.1-.87-.05a.68.68,0,0,0-.09,1.35l.86.05,1.29.1.54,0Zm-6.73-.42a.68.68,0,0,0,.06-1.35h-.28l-1.31-.06-1.12,0a.68.68,0,0,0,0,1.35l1.11,0,1.3.06Z" fill="#f4f3b9" fill-rule="evenodd"/><path d="M214.2,101.48l5.57,3.57,6.43-2.31-1.67,6.4,4.17,5.4-6.6.39-3.84,5.64-2.41-6.16-6.55-1.91,5.11-4.19-.21-6.83Zm132.54,0h0l-.3,6.61,5.2,4.41-6.37,1.76-2.59,6.31L339,115.05l-6.8-.51,4.12-5.17-1.62-6.63,6.19,2.33,5.81-3.59Zm-32-13.24h0l1.42,6.46,6.17,2.91-5.7,3.35-.87,6.77-4.94-4.39-6.7,1.27,2.64-6.06-3.28-6,6.58.64,4.68-5Zm-34.3-4.51h0l3,5.87,6.72,1.22-4.65,4.7.92,6.76-5.91-3-6.15,3,1-6.53-4.71-4.93,6.52-1.09,3.23-6Zm-34.3,4.51h0l4.46,4.89,6.8-.56-3.27,5.74,2.64,6.3-6.48-1.33-5.17,4.45-.74-6.57-5.83-3.55,6-2.73Z" fill-rule="evenodd" fill="url(#GradientFill_3)"/><path d="M358.9,453.79a3.6,3.6,0,1,1-3.6,3.6,3.6,3.6,0,0,1,3.6-3.6ZM87.07,259A197.3,197.3,0,0,0,131,371.54a192.79,192.79,0,0,0,112.91,67.9c2.46.47,4.88,1,7.31,1.48a193.57,193.57,0,0,0,21.19,3.58c-7.35,3.31-22.77,18.65-36.48,35.06-14.1,16.87-26.48,34.93-26.48,42.23a8.48,8.48,0,0,0,1.55,5.34,13.33,13.33,0,0,1,.7,1.19l.18.36h5.65l.19-.31c2.5-4,4.71-8.42,6.93-12.88,2.1-4.22,4.21-8.45,6.55-12.29,1.8-3,4.23-6.62,6.73-10.25,2.9-4.22,5.93-8.42,8.2-11.43,2.77-3.67,13.1-15.63,21.78-24.34,5.39-5.41,10.07-9.54,11.7-9.54h1.09c1.52,0,6.24,4.22,11.7,9.69,8.71,8.75,19.13,20.67,21.78,24.19,2.31,3.05,5.77,7.78,8.94,12.39,2.34,3.39,4.53,6.72,6,9.26,2.07,3.6,4,7.46,5.95,11.3,2.42,4.81,4.82,9.59,7.52,13.9l.2.31h5.64l.19-.36a11.26,11.26,0,0,1,.69-1.19,8.48,8.48,0,0,0,1.55-5.34c0-3.37-3.83-10.48-8.78-18.16-7.63-11.82-18-25.12-20.91-28-2-2-4-4.22-6-6.51-3.48-3.91-7.05-7.94-10.91-10.91-1.38-1.06-3.17-2.73-5.13-4.54-3.73-3.45-8-7.45-11.45-9.09,3.06-.27,6.09-.67,9.11-1.16a30.58,30.58,0,0,0-5.38,1.78c26.71,17.59,30.66,19.53,62.9,19-8.51-14.73-34.29-23.87-53.11-21.6,3.54-.66,7-1.41,10.51-2.15,2.28-.49,4.54-1,6.55-1.38A192.88,192.88,0,0,0,429.9,370.81,197.34,197.34,0,0,0,473.23,258.9l-8.42-.18a197.28,197.28,0,0,1-6.33,33.14A203.65,203.65,0,0,1,416,370.51c-24.73,28.29-57.05,48.9-93.26,56.64-13.49,2.89-27.57,1.88-42,.86l-.6,0h-.13c-7.08.94-14.08,1.86-21,2.27a89.94,89.94,0,0,1-20.26-.83c-35.44-6-67.26-25.63-91.85-53.41A208,208,0,0,1,96.64,259Zm9.65,0h2l-1.46,1.82a18.09,18.09,0,0,1-.51-1.82ZM116,243.47h0c3.3,26.51,2.06,29.93-10,53.52-8.31-14.26-3.51-43.6,10-53.52Zm3.43,35.26h0c8.58,25.29,8.06,28.9,1,54.43-11-12.29-12.22-42-1-54.43Zm10.22,31.78h0c16.49,25.59,16.91,29.72,16.15,59.91-15.58-10.54-25.13-43-16.15-59.91Zm19.63,34.23h0c22.17,20.86,23.58,24.76,30.12,54.24-17.66-6.47-34.77-35.71-30.12-54.24Zm30.09,27.5h0c28.44,15.18,31,18.79,45.82,47.11-19.85-1.72-45.45-26.88-45.82-47.11Zm37.3,24.39h0c31.72,5.79,35.22,8.46,58,30.91-19.43,4.4-51.47-11.76-58-30.91ZM65.64,250.22h0c13.58,4.31,25.41,26.63,22.58,40.37-16.12-15.71-18-18.13-22.58-40.37ZM64,281.06h0c16.45,2,34.81,24.91,34.57,41.22C76.74,307.83,74,305.49,64,281.06Zm6.19,37.72h0c16.51-1.41,39.16,17.3,42.25,33.32C88.13,342.4,85,340.66,70.2,318.78Zm9.72,32h0c17.55-4.68,45.59,11.19,52,27.89-28.11-5.81-31.85-7.1-52-27.89Zm23.59,33.59h0c16.47-7.69,46.85,3,56.08,18.33-28.7-.79-32.6-1.4-56.08-18.33Zm26.12,34h0c16.29-12,51.83-7,65.27,7.7-31.52,5.45-35.91,5.64-65.27-7.7Zm36.8,26.37h0c13.5-15.07,49.31-17.39,65.47-5.73-29.76,11.73-34,12.82-65.47,5.73Zm39.15,19.51h0c10.13-17.52,44.7-27.14,62.9-19-26.71,17.59-30.66,19.53-62.9,19ZM443.84,243.47h0c13.51,9.92,18.32,39.26,10,53.52-12.08-23.59-13.32-27-10-53.52Zm-3.43,35.26h0c11.24,12.44,10,42.14-1,54.43-7.08-25.53-7.6-29.14,1-54.43Zm-10.23,31.78h0c9,16.87-.57,49.37-16.15,59.91-.75-30.19-.33-34.32,16.15-59.91Zm-19.62,34.23h0c4.65,18.53-12.47,47.77-30.13,54.24,6.55-29.48,7.95-33.38,30.13-54.24Zm-30.09,27.5h0c-.38,20.23-26,45.39-45.82,47.11C349.5,391,352,387.42,380.47,372.24Zm-37.31,24.39h0c-6.52,19.15-38.56,35.31-58,30.91,22.78-22.45,26.27-25.12,58-30.91ZM494.23,250.22h0c-4.53,22.24-6.46,24.66-22.59,40.37-2.82-13.74,9-36.06,22.59-40.37Zm1.63,30.84h0c-10,24.43-12.74,26.77-34.58,41.22C461,306,479.41,283,495.86,281.06Zm-6.2,37.72h0c-14.77,21.88-17.92,23.62-42.24,33.32,3.08-16,25.73-34.73,42.24-33.32Zm-9.71,32h0c-20.14,20.79-23.87,22.08-52,27.89,6.4-16.7,34.43-32.57,52-27.89Zm-23.6,33.59h0c-23.47,16.93-27.37,17.54-56.08,18.33,9.23-15.32,39.62-26,56.08-18.33Zm-26.12,34h0c-29.35,13.34-33.75,13.15-65.26,7.7,13.44-14.7,49-19.71,65.26-7.7Zm-36.79,26.37h0c-31.46,7.09-35.72,6-65.47-5.73,16.15-11.66,52-9.34,65.47,5.73Zm66-72.48h0a2.95,2.95,0,1,1-2.94,2.94,2.95,2.95,0,0,1,2.94-2.94Zm-359.1,0h0a2.95,2.95,0,1,1-2.94,2.94,2.94,2.94,0,0,1,2.94-2.94ZM66.49,271.29h0a2.65,2.65,0,1,0,2.65,2.65,2.65,2.65,0,0,0-2.65-2.65Zm4.56,34.48h0A2.95,2.95,0,1,0,74,308.71a2.95,2.95,0,0,0-2.94-2.94ZM81,338.47h0a2.95,2.95,0,1,0,2.94,2.94A2.94,2.94,0,0,0,81,338.47Zm48.71,65.79h0a2.95,2.95,0,1,1-2.94,2.95,2.95,2.95,0,0,1,2.94-2.95Zm29.1,28.68h0a2.95,2.95,0,1,1-2.94,2.94,2.94,2.94,0,0,1,2.94-2.94ZM201,453.79h0a3.6,3.6,0,1,1-3.6,3.6,3.61,3.61,0,0,1,3.6-3.6Zm292.41-182.5h0a2.65,2.65,0,1,0,2.65,2.65,2.65,2.65,0,0,0-2.65-2.65Zm-4.55,34.48h0a2.95,2.95,0,1,0,2.94,2.94,2.95,2.95,0,0,0-2.94-2.94Zm-9.94,32.7h0a2.95,2.95,0,1,0,2.95,2.94,2.94,2.94,0,0,0-2.95-2.94Zm-48.71,65.79h0a2.95,2.95,0,1,1-2.94,2.95,2.95,2.95,0,0,1,2.94-2.95Zm-29.1,28.68h0a2.95,2.95,0,1,1-2.94,2.94A2.95,2.95,0,0,1,401.07,432.94Z" fill-rule="evenodd" fill="url(#GradientFill_3-2)"/><path d="M367.76,473c-2.57,4.74-11,7.67-21.84,8.75a117.62,117.62,0,0,1-38.37-3c-13.9-3.48-27.55-6.52-41.08-8.77A291.59,291.59,0,0,0,226,466a51.49,51.49,0,0,0-19.5,3.2c-5.34,2.09-9.47,5.15-11.12,9a.61.61,0,0,0,0,.29c.07,5.16.22,10.14.36,15.13s.28,10,.36,15.16a.66.66,0,0,0,1.29.2c1.26-3.25,5.66-5.83,11.39-7.63a72.72,72.72,0,0,1,22.84-2.87c16.43.54,32,4.27,47,7.86,10.39,2.5,20.52,4.92,30.49,6.19a157.44,157.44,0,0,0,31.56.94c8.42-.67,15.49-2.09,20.55-4,5.23-2,8.39-4.6,8.75-7.5a4.21,4.21,0,0,0,0-.94h0c-.2-4.68-.39-9.29-.55-13.86s-.29-9.16-.37-13.74a.66.66,0,0,0-.68-.65.64.64,0,0,0-.57.35ZM346.05,483.1h0c9.94-1,18-3.57,21.67-7.73q.12,5.86.33,11.74c.16,4.59.35,9.2.55,13.87v0a3.09,3.09,0,0,1,0,.68c-.3,2.37-3.15,4.59-7.91,6.41-4.95,1.89-11.89,3.29-20.17,3.94a156.39,156.39,0,0,1-31.3-.94c-9.91-1.25-20-3.67-30.34-6.15-15.05-3.61-30.68-7.36-47.25-7.9A74.12,74.12,0,0,0,208.34,500c-4.87,1.53-8.86,3.65-11,6.32-.08-4.35-.2-8.58-.32-12.82-.14-4.94-.28-9.87-.36-15,1.53-3.41,5.37-6.18,10.33-8.13a50.2,50.2,0,0,1,19-3.1,289,289,0,0,1,40.27,4c13.51,2.25,27.13,5.28,41,8.75A119,119,0,0,0,346.05,483.1Z" fill-rule="evenodd" fill="url(#GradientFill_4)"/><path d="M368.34,473.33c-5.5,10.19-36.19,12.29-60.95,6.09-27.76-6.95-54.52-12.13-81.4-12.8-13-.33-26.73,4.2-30,11.76.16,10.34.57,20,.72,30.3,2.87-7.46,20.62-11.41,34.88-10.95,27.9.92,53.19,11,77.53,14,33.57,4.26,60.81-2.23,60.14-10.8C368.87,491.61,368.51,482.51,368.34,473.33Z" fill-rule="evenodd" fill="url(#GradientFill_10)"/><path d="M365.26,478.25l0,0h0a9.53,9.53,0,0,1-3.51,2.88,26.92,26.92,0,0,1-5.91,2.14c-12,3-31.95,2.25-48.88-1.95-13.28-3.29-26.33-6.21-39.31-8.47a321.11,321.11,0,0,0-38.83-4.54h0c-1.76-.09-3.54-.1-5.32,0s-3.54.2-5.25.42c-8.89,1.11-16.65,4.2-19.16,8.82l-.07.25c-.08,4.28-.09,8.44-.11,12.6s0,8.31-.11,12.63l1,.24h0a6.49,6.49,0,0,1,1.9-2.19,15.77,15.77,0,0,1,3.31-1.91c6.81-3,18.4-4.28,28.21-3.71,15.84.93,30.72,4.48,45.06,7.9,9.93,2.37,19.6,4.68,29.16,6A172.26,172.26,0,0,0,339.94,511a76.5,76.5,0,0,0,18.48-2.89c4.7-1.51,7.52-3.52,7.84-5.86a3.39,3.39,0,0,0,0-.64c-.05-3.9-.09-7.74-.11-11.57s0-7.62.06-11.44l-1-.31Zm-3,3.86h0a12.6,12.6,0,0,0,2.92-2.07c0,3.32,0,6.63,0,10q0,5.73.11,11.58v0a2.26,2.26,0,0,1,0,.45c-.26,1.89-2.81,3.61-7.1,5a76,76,0,0,1-18.21,2.85,172,172,0,0,1-32.33-1.58c-9.51-1.33-19.15-3.63-29.06-6-14.38-3.43-29.32-7-45.24-7.93-9.95-.58-21.74.72-28.7,3.8a16.41,16.41,0,0,0-3.54,2.05,8.5,8.5,0,0,0-1.16,1.06c.06-3.69.07-7.29.08-10.89,0-4.1,0-8.2.11-12.46,2.4-4.24,9.79-7.1,18.3-8.16,1.68-.21,3.41-.35,5.14-.41s3.49-.06,5.24,0h0a323.46,323.46,0,0,1,38.7,4.52c12.94,2.26,26,5.17,39.23,8.46,17.08,4.24,37.28,5,49.39,1.95A28,28,0,0,0,362.22,482.11Z" fill-rule="evenodd" fill="url(#GradientFill_4-2)"/><path d="M80.23,256.3q-.51-7.16-.52-14.44a200.76,200.76,0,1,1,401.52,0q0,7.29-.51,14.44c-.45-.5-.88-1-1.33-1.49q.41-6.42.41-12.95a199.33,199.33,0,1,0-398.66,0q0,6.52.41,12.95c-.45.49-.88,1-1.32,1.49ZM103.38,234c1.82-1.52,3.65-3,5.52-4.48a172,172,0,0,1,343.14,0q2.81,2.21,5.52,4.48a177.27,177.27,0,0,0-354.18,0Zm-10.58,9.4q1.59-1.51,3.23-3a184.45,184.45,0,0,1,368.88,0q1.63,1.47,3.23,3v-1.49a187.68,187.68,0,1,0-375.36,0v1.49Zm-6.86,6.8c.64-.67,1.3-1.33,2-2q-.11-3.14-.11-6.3a192.69,192.69,0,0,1,385.38,0q0,3.16-.11,6.3c.66.66,1.31,1.32,1.95,2,.12-2.75.17-5.51.17-8.29a194.7,194.7,0,1,0-389.4,0Q85.77,246,85.94,250.15Z" fill="#efc671" fill-rule="evenodd"/></g><g id="_Layer_1-9" data-name="#Layer 1"><path d="M225.81,182.64V143H238.2a21.11,21.11,0,0,1,6,.74,11,11,0,0,1,4.1,2.11,8.18,8.18,0,0,1,2.35,3.32,12.36,12.36,0,0,1,.74,4.39,9.41,9.41,0,0,1-.37,2.67,8.11,8.11,0,0,1-1.15,2.39,9.23,9.23,0,0,1-2,2,11.3,11.3,0,0,1-2.87,1.54q7.41,1.83,7.4,8.83a12.23,12.23,0,0,1-.87,4.66,10.18,10.18,0,0,1-2.53,3.69,12,12,0,0,1-4.1,2.43,16.42,16.42,0,0,1-5.56.88Zm6.68-22.49h5.34a8.34,8.34,0,0,0,5.17-1.37,5.2,5.2,0,0,0,1.76-4.36q0-3.1-1.59-4.42a7.71,7.71,0,0,0-5-1.32h-5.71Zm0,5.1v11.63h6.78a8.57,8.57,0,0,0,3.12-.5,5.4,5.4,0,0,0,2-1.31,5,5,0,0,0,1.09-1.92,8.05,8.05,0,0,0,.34-2.33,6.72,6.72,0,0,0-.38-2.32,4.27,4.27,0,0,0-1.16-1.76,5.39,5.39,0,0,0-2-1.11,10.48,10.48,0,0,0-3-.38Z" fill="url(#GradientFill_22)"/><path d="M280.81,143v5.87H264.9v11h12.54v5.67H264.9v11.22h15.91v5.9H258.17V143Z" fill="url(#GradientFill_22-2)"/><path d="M305.84,150.19a2,2,0,0,1-.63.85,1.45,1.45,0,0,1-.86.25,2,2,0,0,1-1.11-.43c-.42-.28-.91-.6-1.47-.94a11,11,0,0,0-2-.95,7.71,7.71,0,0,0-2.67-.42,7,7,0,0,0-2.42.37,5,5,0,0,0-1.74,1,4.16,4.16,0,0,0-1.06,1.58,5.71,5.71,0,0,0-.34,2,3.75,3.75,0,0,0,.7,2.33,6,6,0,0,0,1.88,1.59,16.74,16.74,0,0,0,2.65,1.18c1,.35,2,.72,3.05,1.11a27.49,27.49,0,0,1,3,1.37,10.54,10.54,0,0,1,2.66,2,8.94,8.94,0,0,1,1.87,2.92,11.09,11.09,0,0,1,.71,4.19,15.14,15.14,0,0,1-.83,5,11.83,11.83,0,0,1-2.44,4.08,11.22,11.22,0,0,1-3.91,2.74,13.14,13.14,0,0,1-5.29,1,15.82,15.82,0,0,1-3.37-.37,16.68,16.68,0,0,1-3.2-1.06,16.41,16.41,0,0,1-2.85-1.65,13.9,13.9,0,0,1-2.37-2.14l1.93-3.53a2.9,2.9,0,0,1,.66-.65,1.53,1.53,0,0,1,.86-.26,2.27,2.27,0,0,1,1.34.56c.48.38,1,.79,1.7,1.25a12.46,12.46,0,0,0,2.31,1.25,8.27,8.27,0,0,0,3.19.56,6.17,6.17,0,0,0,4.42-1.49,5.69,5.69,0,0,0,1.57-4.3,4.3,4.3,0,0,0-.71-2.55,6,6,0,0,0-1.88-1.66,13.46,13.46,0,0,0-2.65-1.13q-1.5-.47-3-1a23.68,23.68,0,0,1-3-1.31,9.82,9.82,0,0,1-2.66-2,9.13,9.13,0,0,1-1.87-3.08,12.72,12.72,0,0,1-.71-4.57,11.81,11.81,0,0,1,.78-4.22,10.91,10.91,0,0,1,2.28-3.65,11.37,11.37,0,0,1,3.69-2.55,12.3,12.3,0,0,1,5-1,15.33,15.33,0,0,1,5.86,1.1,13,13,0,0,1,4.57,3.07Z" fill="url(#GradientFill_22-3)"/><path d="M338.55,143V149h-10.8v33.6h-6.68V149H310.22V143Z" fill="url(#GradientFill_22-4)"/><path d="M175.12,208.8v5.87H159.2v11.74h13.43v5.9H159.2v16.15h-6.73V208.8Z" fill="url(#GradientFill_22-5)"/><path d="M187.88,248.46h-6.7V208.8h6.7Z" fill="url(#GradientFill_22-6)"/><path d="M200.2,208.84a1.5,1.5,0,0,1,.53.17,1.81,1.81,0,0,1,.46.35,6.63,6.63,0,0,1,.5.62l18.84,26.52c-.06-.64-.11-1.26-.13-1.88s0-1.18,0-1.71V208.8h5.89v39.66h-3.46a2.7,2.7,0,0,1-1.31-.28,3,3,0,0,1-1-1l-18.77-26.41c.05.58.08,1.16.11,1.74s0,1.1,0,1.57v24.36H196V208.8h3.5A5.28,5.28,0,0,1,200.2,208.84Z" fill="url(#GradientFill_22-7)"/><path d="M265.06,248.46h-5.17a2.09,2.09,0,0,1-1.42-.48,2.64,2.64,0,0,1-.81-1.19L255,238.7H240.1l-2.68,8.09a2.57,2.57,0,0,1-.78,1.15,2.07,2.07,0,0,1-1.43.52H230l14.1-39.66H251Zm-23.24-15h11.44l-4.37-13.19c-.2-.58-.42-1.27-.65-2.07s-.48-1.66-.71-2.59q-.34,1.4-.69,2.61c-.22.8-.44,1.5-.65,2.11Z" fill="url(#GradientFill_22-8)"/><path d="M273,208.84a1.55,1.55,0,0,1,.54.17,2,2,0,0,1,.46.35,5.37,5.37,0,0,1,.49.62l18.85,26.52c-.07-.64-.11-1.26-.14-1.88s0-1.18,0-1.71V208.8h5.88v39.66H295.6a2.68,2.68,0,0,1-1.31-.28,3,3,0,0,1-1-1l-18.78-26.41q.08.87.12,1.74c0,.57,0,1.1,0,1.57v24.36h-5.88V208.8h3.5A5,5,0,0,1,273,208.84Z" fill="url(#GradientFill_22-9)"/><path d="M331,239.11a1.21,1.21,0,0,1,.94.46l2.63,3.16a14.83,14.83,0,0,1-5.37,4.58,17,17,0,0,1-7.67,1.59,16.51,16.51,0,0,1-7.18-1.51,15.81,15.81,0,0,1-5.45-4.2,18.75,18.75,0,0,1-3.47-6.41,26.53,26.53,0,0,1-1.2-8.15,23.85,23.85,0,0,1,1.34-8.19,19.05,19.05,0,0,1,3.77-6.4,17,17,0,0,1,5.83-4.18,18.27,18.27,0,0,1,7.48-1.5,15.72,15.72,0,0,1,12.12,5.16L332.53,217a2.32,2.32,0,0,1-.51.57,1.33,1.33,0,0,1-.86.25,1.91,1.91,0,0,1-1.17-.49,13.14,13.14,0,0,0-1.51-1.07,11.51,11.51,0,0,0-2.32-1.07,12.11,12.11,0,0,0-8.22.48,10.33,10.33,0,0,0-3.65,2.78,13.09,13.09,0,0,0-2.39,4.4,18.56,18.56,0,0,0-.85,5.83,19.08,19.08,0,0,0,.85,6,13.55,13.55,0,0,0,2.32,4.39,10,10,0,0,0,3.46,2.73,9.77,9.77,0,0,0,4.27.94,16.89,16.89,0,0,0,2.47-.16,9.57,9.57,0,0,0,2-.52,8.5,8.5,0,0,0,1.77-.92,11.83,11.83,0,0,0,1.65-1.38,2.13,2.13,0,0,1,.52-.4A1.21,1.21,0,0,1,331,239.11Z" fill="url(#GradientFill_22-10)"/><path d="M347.13,248.46h-6.71V208.8h6.71Z" fill="url(#GradientFill_22-11)"/><path d="M386.76,248.46h-5.17a2.13,2.13,0,0,1-1.43-.48,2.71,2.71,0,0,1-.8-1.19l-2.68-8.09H361.8l-2.68,8.09a2.57,2.57,0,0,1-.78,1.15,2.07,2.07,0,0,1-1.43.52h-5.19l14.1-39.66h6.83Zm-23.25-15H375l-4.37-13.19q-.3-.87-.66-2.07c-.24-.79-.47-1.66-.7-2.59-.24.93-.46,1.8-.69,2.61s-.44,1.5-.65,2.11Z" fill="url(#GradientFill_22-12)"/><path d="M397.14,242.37h14.38v6.09H390.46V208.8h6.68Z" fill="url(#GradientFill_22-13)"/><path d="M169,281.84a2,2,0,0,1-.63.85,1.52,1.52,0,0,1-.86.24,2.09,2.09,0,0,1-1.12-.42c-.41-.28-.9-.6-1.46-.95a11.43,11.43,0,0,0-2-.94,7.4,7.4,0,0,0-2.67-.43,7.12,7.12,0,0,0-2.42.37,5,5,0,0,0-1.73,1,4,4,0,0,0-1.06,1.58,5.66,5.66,0,0,0-.35,2,3.74,3.74,0,0,0,.71,2.33,5.85,5.85,0,0,0,1.87,1.59,16,16,0,0,0,2.66,1.18c1,.35,2,.72,3,1.11a27.71,27.71,0,0,1,3,1.38,10.69,10.69,0,0,1,2.65,2,9,9,0,0,1,1.88,2.92,11.11,11.11,0,0,1,.71,4.2,14.79,14.79,0,0,1-.84,5A11.7,11.7,0,0,1,168,311a11.45,11.45,0,0,1-3.91,2.74,13.14,13.14,0,0,1-5.29,1,15.35,15.35,0,0,1-3.38-.37,16.59,16.59,0,0,1-3.19-1.06,15.41,15.41,0,0,1-2.85-1.64,14.36,14.36,0,0,1-2.38-2.14L149,306a2.51,2.51,0,0,1,.66-.64,1.45,1.45,0,0,1,.86-.26,2.21,2.21,0,0,1,1.34.56c.48.37,1,.79,1.7,1.25a12.46,12.46,0,0,0,2.31,1.24,8,8,0,0,0,3.19.57,6.13,6.13,0,0,0,4.42-1.5A5.66,5.66,0,0,0,165,302.9a4.23,4.23,0,0,0-.71-2.55,5.81,5.81,0,0,0-1.87-1.66,13,13,0,0,0-2.66-1.14c-1-.31-2-.65-3-1a26.73,26.73,0,0,1-3-1.32,9.9,9.9,0,0,1-2.65-2,9.1,9.1,0,0,1-1.88-3.09,12.84,12.84,0,0,1-.71-4.56,11.62,11.62,0,0,1,.79-4.23,10.87,10.87,0,0,1,2.28-3.64,11.18,11.18,0,0,1,3.69-2.56,12.3,12.3,0,0,1,5-1,15.36,15.36,0,0,1,5.86,1.1,13.15,13.15,0,0,1,4.57,3.07Z" fill="url(#GradientFill_22-14)"/><path d="M210.86,294.45a24.24,24.24,0,0,1-1.31,8.08,19.49,19.49,0,0,1-3.7,6.43,16.9,16.9,0,0,1-5.74,4.24,18.92,18.92,0,0,1-14.86,0,16.79,16.79,0,0,1-5.76-4.24,19.36,19.36,0,0,1-3.72-6.43,25.54,25.54,0,0,1,0-16.15,19.4,19.4,0,0,1,3.72-6.44,16.63,16.63,0,0,1,5.76-4.23,18.75,18.75,0,0,1,14.86,0,17,17,0,0,1,5.74,4.24,19.34,19.34,0,0,1,3.7,6.42A24.18,24.18,0,0,1,210.86,294.45Zm-6.85,0a20.26,20.26,0,0,0-.78-5.85,12.78,12.78,0,0,0-2.25-4.4,9.75,9.75,0,0,0-3.57-2.77,11.2,11.2,0,0,0-4.73-1,11.34,11.34,0,0,0-4.74,1,9.9,9.9,0,0,0-3.59,2.77,12.81,12.81,0,0,0-2.27,4.4,22.09,22.09,0,0,0,0,11.71,12.76,12.76,0,0,0,2.27,4.39,10.07,10.07,0,0,0,3.59,2.75,11.34,11.34,0,0,0,4.74,1,11.2,11.2,0,0,0,4.73-1A9.91,9.91,0,0,0,201,304.7a12.73,12.73,0,0,0,2.25-4.39A20.33,20.33,0,0,0,204,294.45Z" fill="url(#GradientFill_22-15)"/><path d="M238.77,274.62v5.87H222.86v11.74h13.43v5.9H222.86v16.15h-6.73V274.62Z" fill="url(#GradientFill_22-16)"/><path d="M269.32,274.62v6.06H258.51v33.6h-6.68v-33.6H241v-6.06Z" fill="url(#GradientFill_22-17)"/><path d="M270.23,274.62h5.62a2.27,2.27,0,0,1,1.45.46,2.13,2.13,0,0,1,.78,1.22L284.19,300c.15.59.29,1.22.41,1.91s.24,1.41.36,2.18c.13-.77.28-1.5.43-2.18s.33-1.32.51-1.91L293,276.3a2.71,2.71,0,0,1,.79-1.16,2.09,2.09,0,0,1,1.42-.52h2a2.2,2.2,0,0,1,1.44.46,2.31,2.31,0,0,1,.79,1.22l7,23.72a34.13,34.13,0,0,1,.95,3.89c.11-.71.23-1.39.36-2.05s.25-1.27.38-1.84l6.11-23.72a2.22,2.22,0,0,1,.77-1.18,2.19,2.19,0,0,1,1.44-.5h5.24l-11.15,39.66h-6l-7.85-27.1c-.1-.34-.2-.72-.31-1.12s-.21-.83-.31-1.29c-.1.46-.2.89-.31,1.29s-.21.78-.31,1.12l-7.92,27.1h-6Z" fill="url(#GradientFill_22-18)"/><path d="M354.17,314.28H349a2.13,2.13,0,0,1-1.43-.48,2.71,2.71,0,0,1-.8-1.19l-2.69-8.09H329.21l-2.68,8.09a2.66,2.66,0,0,1-.78,1.15,2.07,2.07,0,0,1-1.43.52h-5.19l14.1-39.66h6.83Zm-23.25-15h11.45L338,286.12c-.2-.59-.42-1.28-.66-2.08s-.47-1.66-.71-2.59c-.23.93-.46,1.8-.68,2.61s-.44,1.51-.66,2.11Z" fill="url(#GradientFill_22-19)"/><path d="M364.77,298.79v15.49h-6.68V274.62h11a20.69,20.69,0,0,1,6.29.84,11.72,11.72,0,0,1,4.3,2.34,9,9,0,0,1,2.46,3.61,13.18,13.18,0,0,1,.78,4.62,13.35,13.35,0,0,1-.53,3.79,11.46,11.46,0,0,1-1.54,3.23,10.75,10.75,0,0,1-2.49,2.55,12.19,12.19,0,0,1-3.36,1.76,7.06,7.06,0,0,1,2.19,2.28l9,14.64h-6a2.72,2.72,0,0,1-1.47-.38,3.13,3.13,0,0,1-1-1.1l-7.55-12.7a2.79,2.79,0,0,0-.93-1,3,3,0,0,0-1.51-.3Zm0-5.3h4.17a9.35,9.35,0,0,0,3.29-.52,6.23,6.23,0,0,0,2.31-1.44,5.77,5.77,0,0,0,1.35-2.18,8.17,8.17,0,0,0,.45-2.77,5.9,5.9,0,0,0-1.8-4.63q-1.8-1.62-5.5-1.62h-4.27Z" fill="url(#GradientFill_22-20)"/><path d="M413,274.62v5.87H397.12v11h12.54v5.68H397.12v11.22H413v5.89H390.39V274.62Z" fill="url(#GradientFill_22-21)"/><path d="M252.16,331.48a8.26,8.26,0,0,1,3,.54,6.78,6.78,0,0,1,2.36,1.53,6.89,6.89,0,0,1,1.52,2.38,8.31,8.31,0,0,1,.55,3.1,9,9,0,0,1-.39,2.71,12,12,0,0,1-1,2.38,15.31,15.31,0,0,1-1.54,2.2c-.59.71-1.2,1.43-1.84,2.17l-5.41,6.1a11.86,11.86,0,0,1,1.56-.39,8.37,8.37,0,0,1,1.46-.14h6.16a1.39,1.39,0,0,1,1.05.41,1.53,1.53,0,0,1,.39,1.09v2.72H243.57v-1.51a2.77,2.77,0,0,1,.17-.95,2.68,2.68,0,0,1,.56-.92l7.28-8.06c.61-.69,1.16-1.34,1.64-2a13.65,13.65,0,0,0,1.21-1.86,9.17,9.17,0,0,0,.75-1.86,7.57,7.57,0,0,0,.25-2,5,5,0,0,0-.25-1.68,3.27,3.27,0,0,0-.71-1.22,2.93,2.93,0,0,0-1.1-.74,3.89,3.89,0,0,0-1.44-.25,3.59,3.59,0,0,0-2.43.82,4.39,4.39,0,0,0-1.34,2.22,1.86,1.86,0,0,1-.54,1,1.44,1.44,0,0,1-.93.3,2.74,2.74,0,0,1-.55-.05l-2.16-.42a10.88,10.88,0,0,1,1-3.35,7.85,7.85,0,0,1,1.79-2.4,7.3,7.3,0,0,1,2.45-1.45A9.08,9.08,0,0,1,252.16,331.48Z" fill="url(#GradientFill_22-22)"/><path d="M279.85,345a23.71,23.71,0,0,1-.68,6,12.71,12.71,0,0,1-1.85,4.23,7.75,7.75,0,0,1-2.81,2.48,7.82,7.82,0,0,1-7,0,7.67,7.67,0,0,1-2.78-2.48,12.71,12.71,0,0,1-1.84-4.23,27.43,27.43,0,0,1,0-12.05,12.68,12.68,0,0,1,1.84-4.21,7.7,7.7,0,0,1,2.78-2.49,7.9,7.9,0,0,1,7,0,7.78,7.78,0,0,1,2.81,2.49,12.69,12.69,0,0,1,1.85,4.21A23.74,23.74,0,0,1,279.85,345Zm-4.24,0a24.2,24.2,0,0,0-.38-4.76,10,10,0,0,0-1-3,3.88,3.88,0,0,0-1.47-1.57,3.56,3.56,0,0,0-1.72-.45,3.46,3.46,0,0,0-1.7.45,3.93,3.93,0,0,0-1.46,1.57,10.36,10.36,0,0,0-1,3,30.87,30.87,0,0,0,0,9.53,10.36,10.36,0,0,0,1,3,3.9,3.9,0,0,0,1.46,1.56,3.46,3.46,0,0,0,1.7.45,3.56,3.56,0,0,0,1.72-.45,3.85,3.85,0,0,0,1.47-1.56,10,10,0,0,0,1-3A24.31,24.31,0,0,0,275.61,345Z" fill="url(#GradientFill_22-23)"/><path d="M285.14,354.89H290V339.43c0-.6,0-1.23.05-1.89l-3.45,3.19a1.13,1.13,0,0,1-.44.28,1.35,1.35,0,0,1-.44.07,1.21,1.21,0,0,1-.6-.15,1.23,1.23,0,0,1-.41-.36l-1.29-2,7.32-6.88h3.36v23.16h4.32v3.39H285.14Z" fill="url(#GradientFill_22-24)"/><path d="M311.05,341.72a7.33,7.33,0,0,1,2.65.5,6.41,6.41,0,0,1,2.26,1.49,7.64,7.64,0,0,1,1.58,2.49,9.18,9.18,0,0,1,.6,3.46,9.67,9.67,0,0,1-.62,3.47A8.68,8.68,0,0,1,315.8,356a8.17,8.17,0,0,1-2.68,1.9,8.37,8.37,0,0,1-3.47.7,8.46,8.46,0,0,1-3.45-.68,7.35,7.35,0,0,1-2.6-1.9,8.48,8.48,0,0,1-1.66-2.93,12,12,0,0,1-.57-3.8,11.55,11.55,0,0,1,.69-3.84,17.92,17.92,0,0,1,2.13-4.1l5.73-8.49a2.5,2.5,0,0,1,.87-.75,2.68,2.68,0,0,1,1.32-.31h3.65l-7.12,9.62-.44.59c-.14.18-.27.37-.4.57a6.64,6.64,0,0,1,1.5-.61A6.87,6.87,0,0,1,311.05,341.72ZM305.31,350a7,7,0,0,0,.27,2,4.24,4.24,0,0,0,.81,1.55,3.72,3.72,0,0,0,1.34,1,4.72,4.72,0,0,0,3.64,0,4,4,0,0,0,1.41-1,4.62,4.62,0,0,0,.92-1.55A5.26,5.26,0,0,0,314,350a6.15,6.15,0,0,0-.32-2,4.26,4.26,0,0,0-.9-1.54,3.79,3.79,0,0,0-1.39-1,4.71,4.71,0,0,0-1.79-.33,4.26,4.26,0,0,0-1.78.37,4.06,4.06,0,0,0-1.37,1,4.66,4.66,0,0,0-.88,1.54A5.93,5.93,0,0,0,305.31,350Z" fill="url(#GradientFill_22-25)"/></g></svg>